<svg xmlns="http://www.w3.org/2000/svg" viewBox="0 0 300 350" width="300" height="350">
  <defs />
  <rect width="100%" height="100%" fill="none" />
  <rect x="142.50" y="315.00" width="15.00" height="35.00" fill="#0d0d0d" rx="2.25" />
  <g stroke-linecap="round" stroke-linejoin="round">
    <line x1="150.00" y1="315.00" x2="150.07" y2="272.80" stroke="#0d0d0d" stroke-width="17.50" />
    <line x1="150.00" y1="272.86" x2="165.82" y2="255.01" stroke="#1f2d1f" stroke-width="14.71" />
    <line x1="165.48" y1="255.60" x2="178.38" y2="254.30" stroke="#1f2d1f" stroke-width="11.92" />
    <line x1="178.19" y1="254.62" x2="183.45" y2="258.97" stroke="#1f2d1f" stroke-width="9.12" />
    <line x1="183.55" y1="259.13" x2="184.26" y2="263.17" stroke="#1f2d1f" stroke-width="6.33" />
    <line x1="184.28" y1="262.92" x2="183.16" y2="264.74" stroke="#1f2d1f" stroke-width="3.54" />
    <line x1="183.21" y1="264.75" x2="182.10" y2="265.10" stroke="#1f2d1f" stroke-width="0.75" />
    <line x1="183.21" y1="264.75" x2="183.47" y2="265.89" stroke="#1f2d1f" stroke-width="0.75" />
    <line x1="184.28" y1="262.92" x2="185.88" y2="264.22" stroke="#1f2d1f" stroke-width="3.54" />
    <line x1="185.94" y1="264.23" x2="186.12" y2="265.38" stroke="#1f2d1f" stroke-width="0.75" />
    <line x1="185.94" y1="264.23" x2="187.10" y2="264.14" stroke="#1f2d1f" stroke-width="0.75" />
    <line x1="183.55" y1="259.13" x2="187.39" y2="259.44" stroke="#1f2d1f" stroke-width="6.33" />
    <line x1="187.41" y1="259.19" x2="188.94" y2="260.59" stroke="#1f2d1f" stroke-width="3.54" />
    <line x1="188.99" y1="260.60" x2="189.11" y2="261.76" stroke="#1f2d1f" stroke-width="0.75" />
    <line x1="188.99" y1="260.60" x2="190.16" y2="260.58" stroke="#1f2d1f" stroke-width="0.75" />
    <line x1="187.41" y1="259.19" x2="188.98" y2="257.82" stroke="#1f2d1f" stroke-width="3.54" />
    <line x1="189.04" y1="257.83" x2="190.20" y2="257.88" stroke="#1f2d1f" stroke-width="0.75" />
    <line x1="189.04" y1="257.83" x2="189.19" y2="256.67" stroke="#1f2d1f" stroke-width="0.75" />
    <line x1="178.19" y1="254.62" x2="182.69" y2="249.18" stroke="#1f2d1f" stroke-width="9.12" />
    <line x1="182.79" y1="249.33" x2="186.57" y2="248.92" stroke="#1f2d1f" stroke-width="6.33" />
    <line x1="186.59" y1="248.67" x2="188.35" y2="249.76" stroke="#1f2d1f" stroke-width="3.54" />
    <line x1="188.41" y1="249.77" x2="188.74" y2="250.89" stroke="#1f2d1f" stroke-width="0.75" />
    <line x1="188.41" y1="249.77" x2="189.55" y2="249.53" stroke="#1f2d1f" stroke-width="0.75" />
    <line x1="186.59" y1="248.67" x2="187.88" y2="247.02" stroke="#1f2d1f" stroke-width="3.54" />
    <line x1="187.94" y1="247.03" x2="189.09" y2="246.87" stroke="#1f2d1f" stroke-width="0.75" />
    <line x1="187.94" y1="247.03" x2="187.87" y2="245.87" stroke="#1f2d1f" stroke-width="0.75" />
    <line x1="182.79" y1="249.33" x2="182.90" y2="245.73" stroke="#1f2d1f" stroke-width="6.33" />
    <line x1="182.92" y1="245.47" x2="184.30" y2="243.91" stroke="#1f2d1f" stroke-width="3.54" />
    <line x1="184.36" y1="243.92" x2="185.52" y2="243.82" stroke="#1f2d1f" stroke-width="0.75" />
    <line x1="184.36" y1="243.92" x2="184.37" y2="242.75" stroke="#1f2d1f" stroke-width="0.75" />
    <line x1="182.92" y1="245.47" x2="181.53" y2="243.81" stroke="#1f2d1f" stroke-width="3.54" />
    <line x1="181.59" y1="243.82" x2="181.66" y2="242.66" stroke="#1f2d1f" stroke-width="0.75" />
    <line x1="181.59" y1="243.82" x2="180.43" y2="243.65" stroke="#1f2d1f" stroke-width="0.75" />
    <line x1="165.48" y1="255.60" x2="165.28" y2="242.55" stroke="#1f2d1f" stroke-width="11.92" />
    <line x1="165.09" y1="242.86" x2="169.74" y2="237.56" stroke="#1f2d1f" stroke-width="9.12" />
    <line x1="169.84" y1="237.71" x2="173.64" y2="237.42" stroke="#1f2d1f" stroke-width="6.33" />
    <line x1="173.66" y1="237.17" x2="175.39" y2="238.30" stroke="#1f2d1f" stroke-width="3.54" />
    <line x1="175.44" y1="238.31" x2="175.74" y2="239.44" stroke="#1f2d1f" stroke-width="0.75" />
    <line x1="175.44" y1="238.31" x2="176.59" y2="238.12" stroke="#1f2d1f" stroke-width="0.75" />
    <line x1="173.66" y1="237.17" x2="175.00" y2="235.56" stroke="#1f2d1f" stroke-width="3.54" />
    <line x1="175.05" y1="235.57" x2="176.21" y2="235.44" stroke="#1f2d1f" stroke-width="0.75" />
    <line x1="175.05" y1="235.57" x2="175.02" y2="234.40" stroke="#1f2d1f" stroke-width="0.75" />
    <line x1="169.84" y1="237.71" x2="170.07" y2="234.12" stroke="#1f2d1f" stroke-width="6.33" />
    <line x1="170.08" y1="233.86" x2="171.51" y2="232.34" stroke="#1f2d1f" stroke-width="3.54" />
    <line x1="171.57" y1="232.35" x2="172.74" y2="232.29" stroke="#1f2d1f" stroke-width="0.75" />
    <line x1="171.57" y1="232.35" x2="171.61" y2="231.18" stroke="#1f2d1f" stroke-width="0.75" />
    <line x1="170.08" y1="233.86" x2="168.74" y2="232.16" stroke="#1f2d1f" stroke-width="3.54" />
    <line x1="168.80" y1="232.18" x2="168.91" y2="231.01" stroke="#1f2d1f" stroke-width="0.75" />
    <line x1="168.80" y1="232.18" x2="167.65" y2="231.97" stroke="#1f2d1f" stroke-width="0.75" />
    <line x1="165.09" y1="242.86" x2="159.91" y2="237.86" stroke="#1f2d1f" stroke-width="9.12" />
    <line x1="160.02" y1="238.01" x2="159.52" y2="234.44" stroke="#1f2d1f" stroke-width="6.33" />
    <line x1="159.54" y1="234.19" x2="160.66" y2="232.41" stroke="#1f2d1f" stroke-width="3.54" />
    <line x1="160.72" y1="232.42" x2="161.85" y2="232.15" stroke="#1f2d1f" stroke-width="0.75" />
    <line x1="160.72" y1="232.42" x2="160.54" y2="231.27" stroke="#1f2d1f" stroke-width="0.75" />
    <line x1="159.54" y1="234.19" x2="157.91" y2="232.76" stroke="#1f2d1f" stroke-width="3.54" />
    <line x1="157.97" y1="232.77" x2="157.86" y2="231.61" stroke="#1f2d1f" stroke-width="0.75" />
    <line x1="157.97" y1="232.77" x2="156.80" y2="232.78" stroke="#1f2d1f" stroke-width="0.75" />
    <line x1="160.02" y1="238.01" x2="156.16" y2="237.96" stroke="#1f2d1f" stroke-width="6.33" />
    <line x1="156.18" y1="237.71" x2="154.63" y2="236.18" stroke="#1f2d1f" stroke-width="3.54" />
    <line x1="154.69" y1="236.19" x2="154.65" y2="235.03" stroke="#1f2d1f" stroke-width="0.75" />
    <line x1="154.69" y1="236.19" x2="153.52" y2="236.14" stroke="#1f2d1f" stroke-width="0.75" />
    <line x1="156.18" y1="237.71" x2="154.41" y2="238.95" stroke="#1f2d1f" stroke-width="3.54" />
    <line x1="154.47" y1="238.96" x2="153.31" y2="238.83" stroke="#1f2d1f" stroke-width="0.75" />
    <line x1="154.47" y1="238.96" x2="154.24" y2="240.11" stroke="#1f2d1f" stroke-width="0.75" />
    <line x1="150.00" y1="272.86" x2="134.86" y2="255.01" stroke="#1f2d1f" stroke-width="14.71" />
    <line x1="134.52" y1="255.60" x2="135.11" y2="242.55" stroke="#1f2d1f" stroke-width="11.92" />
    <line x1="134.91" y1="242.86" x2="139.87" y2="237.86" stroke="#1f2d1f" stroke-width="9.12" />
    <line x1="139.98" y1="238.01" x2="143.81" y2="237.96" stroke="#1f2d1f" stroke-width="6.33" />
    <line x1="143.82" y1="237.71" x2="145.48" y2="238.95" stroke="#1f2d1f" stroke-width="3.54" />
    <line x1="145.53" y1="238.96" x2="145.76" y2="240.11" stroke="#1f2d1f" stroke-width="0.75" />
    <line x1="145.53" y1="238.96" x2="146.69" y2="238.83" stroke="#1f2d1f" stroke-width="0.75" />
    <line x1="143.82" y1="237.71" x2="145.26" y2="236.18" stroke="#1f2d1f" stroke-width="3.54" />
    <line x1="145.31" y1="236.19" x2="146.48" y2="236.14" stroke="#1f2d1f" stroke-width="0.75" />
    <line x1="145.31" y1="236.19" x2="145.35" y2="235.03" stroke="#1f2d1f" stroke-width="0.75" />
    <line x1="139.98" y1="238.01" x2="140.44" y2="234.44" stroke="#1f2d1f" stroke-width="6.33" />
    <line x1="140.46" y1="234.19" x2="141.98" y2="232.76" stroke="#1f2d1f" stroke-width="3.54" />
    <line x1="142.03" y1="232.77" x2="143.20" y2="232.78" stroke="#1f2d1f" stroke-width="0.75" />
    <line x1="142.03" y1="232.77" x2="142.14" y2="231.61" stroke="#1f2d1f" stroke-width="0.75" />
    <line x1="140.46" y1="234.19" x2="139.22" y2="232.41" stroke="#1f2d1f" stroke-width="3.54" />
    <line x1="139.28" y1="232.42" x2="139.46" y2="231.27" stroke="#1f2d1f" stroke-width="0.75" />
    <line x1="139.28" y1="232.42" x2="138.15" y2="232.15" stroke="#1f2d1f" stroke-width="0.75" />
    <line x1="134.91" y1="242.86" x2="130.05" y2="237.56" stroke="#1f2d1f" stroke-width="9.12" />
    <line x1="130.16" y1="237.71" x2="129.90" y2="234.12" stroke="#1f2d1f" stroke-width="6.33" />
    <line x1="129.92" y1="233.86" x2="131.14" y2="232.16" stroke="#1f2d1f" stroke-width="3.54" />
    <line x1="131.20" y1="232.18" x2="132.35" y2="231.97" stroke="#1f2d1f" stroke-width="0.75" />
    <line x1="131.20" y1="232.18" x2="131.09" y2="231.01" stroke="#1f2d1f" stroke-width="0.75" />
    <line x1="129.92" y1="233.86" x2="128.37" y2="232.34" stroke="#1f2d1f" stroke-width="3.54" />
    <line x1="128.43" y1="232.35" x2="128.39" y2="231.18" stroke="#1f2d1f" stroke-width="0.75" />
    <line x1="128.43" y1="232.35" x2="127.26" y2="232.29" stroke="#1f2d1f" stroke-width="0.75" />
    <line x1="130.16" y1="237.71" x2="126.32" y2="237.42" stroke="#1f2d1f" stroke-width="6.33" />
    <line x1="126.34" y1="237.17" x2="124.89" y2="235.56" stroke="#1f2d1f" stroke-width="3.54" />
    <line x1="124.95" y1="235.57" x2="124.98" y2="234.40" stroke="#1f2d1f" stroke-width="0.75" />
    <line x1="124.95" y1="235.57" x2="123.79" y2="235.44" stroke="#1f2d1f" stroke-width="0.75" />
    <line x1="126.34" y1="237.17" x2="124.50" y2="238.30" stroke="#1f2d1f" stroke-width="3.54" />
    <line x1="124.56" y1="238.31" x2="123.41" y2="238.12" stroke="#1f2d1f" stroke-width="0.75" />
    <line x1="124.56" y1="238.31" x2="124.26" y2="239.44" stroke="#1f2d1f" stroke-width="0.75" />
    <line x1="134.52" y1="255.60" x2="122.01" y2="254.30" stroke="#1f2d1f" stroke-width="11.92" />
    <line x1="121.81" y1="254.62" x2="117.10" y2="249.18" stroke="#1f2d1f" stroke-width="9.12" />
    <line x1="117.21" y1="249.33" x2="117.06" y2="245.73" stroke="#1f2d1f" stroke-width="6.33" />
    <line x1="117.08" y1="245.47" x2="118.36" y2="243.81" stroke="#1f2d1f" stroke-width="3.54" />
    <line x1="118.41" y1="243.82" x2="119.57" y2="243.65" stroke="#1f2d1f" stroke-width="0.75" />
    <line x1="118.41" y1="243.82" x2="118.34" y2="242.66" stroke="#1f2d1f" stroke-width="0.75" />
    <line x1="117.08" y1="245.47" x2="115.58" y2="243.91" stroke="#1f2d1f" stroke-width="3.54" />
    <line x1="115.64" y1="243.92" x2="115.63" y2="242.75" stroke="#1f2d1f" stroke-width="0.75" />
    <line x1="115.64" y1="243.92" x2="114.48" y2="243.82" stroke="#1f2d1f" stroke-width="0.75" />
    <line x1="117.21" y1="249.33" x2="113.39" y2="248.92" stroke="#1f2d1f" stroke-width="6.33" />
    <line x1="113.41" y1="248.67" x2="112.01" y2="247.02" stroke="#1f2d1f" stroke-width="3.54" />
    <line x1="112.06" y1="247.03" x2="112.13" y2="245.87" stroke="#1f2d1f" stroke-width="0.75" />
    <line x1="112.06" y1="247.03" x2="110.91" y2="246.87" stroke="#1f2d1f" stroke-width="0.75" />
    <line x1="113.41" y1="248.67" x2="111.53" y2="249.76" stroke="#1f2d1f" stroke-width="3.54" />
    <line x1="111.59" y1="249.77" x2="110.45" y2="249.53" stroke="#1f2d1f" stroke-width="0.75" />
    <line x1="111.59" y1="249.77" x2="111.26" y2="250.89" stroke="#1f2d1f" stroke-width="0.75" />
    <line x1="121.81" y1="254.62" x2="116.34" y2="258.97" stroke="#1f2d1f" stroke-width="9.12" />
    <line x1="116.45" y1="259.13" x2="112.57" y2="259.44" stroke="#1f2d1f" stroke-width="6.33" />
    <line x1="112.59" y1="259.19" x2="110.91" y2="257.82" stroke="#1f2d1f" stroke-width="3.54" />
    <line x1="110.96" y1="257.83" x2="110.81" y2="256.67" stroke="#1f2d1f" stroke-width="0.75" />
    <line x1="110.96" y1="257.83" x2="109.80" y2="257.88" stroke="#1f2d1f" stroke-width="0.75" />
    <line x1="112.59" y1="259.19" x2="110.95" y2="260.59" stroke="#1f2d1f" stroke-width="3.54" />
    <line x1="111.01" y1="260.60" x2="109.84" y2="260.58" stroke="#1f2d1f" stroke-width="0.75" />
    <line x1="111.01" y1="260.60" x2="110.89" y2="261.76" stroke="#1f2d1f" stroke-width="0.75" />
    <line x1="116.45" y1="259.13" x2="115.70" y2="263.17" stroke="#1f2d1f" stroke-width="6.33" />
    <line x1="115.72" y1="262.92" x2="114.00" y2="264.22" stroke="#1f2d1f" stroke-width="3.54" />
    <line x1="114.06" y1="264.23" x2="112.90" y2="264.14" stroke="#1f2d1f" stroke-width="0.75" />
    <line x1="114.06" y1="264.23" x2="113.88" y2="265.38" stroke="#1f2d1f" stroke-width="0.75" />
    <line x1="115.72" y1="262.92" x2="116.73" y2="264.74" stroke="#1f2d1f" stroke-width="3.54" />
    <line x1="116.79" y1="264.75" x2="116.53" y2="265.89" stroke="#1f2d1f" stroke-width="0.75" />
    <line x1="116.79" y1="264.75" x2="117.90" y2="265.10" stroke="#1f2d1f" stroke-width="0.75" />
    <line x1="150.00" y1="272.86" x2="150.07" y2="230.66" stroke="#0d0d0d" stroke-width="17.50" />
    <line x1="150.00" y1="230.71" x2="165.82" y2="212.86" stroke="#1f2d1f" stroke-width="14.71" />
    <line x1="165.48" y1="213.46" x2="178.38" y2="212.16" stroke="#1f2d1f" stroke-width="11.92" />
    <line x1="178.19" y1="212.47" x2="183.45" y2="216.83" stroke="#1f2d1f" stroke-width="9.12" />
    <line x1="183.55" y1="216.98" x2="184.26" y2="221.03" stroke="#1f2d1f" stroke-width="6.33" />
    <line x1="184.28" y1="220.77" x2="183.16" y2="222.60" stroke="#1f2d1f" stroke-width="3.54" />
    <line x1="184.28" y1="220.77" x2="185.88" y2="222.08" stroke="#1f2d1f" stroke-width="3.54" />
    <line x1="183.55" y1="216.98" x2="187.39" y2="217.30" stroke="#1f2d1f" stroke-width="6.33" />
    <line x1="187.41" y1="217.05" x2="188.94" y2="218.45" stroke="#1f2d1f" stroke-width="3.54" />
    <line x1="187.41" y1="217.05" x2="188.98" y2="215.67" stroke="#1f2d1f" stroke-width="3.54" />
    <line x1="178.19" y1="212.47" x2="182.69" y2="207.03" stroke="#1f2d1f" stroke-width="9.12" />
    <line x1="182.79" y1="207.19" x2="186.57" y2="206.78" stroke="#1f2d1f" stroke-width="6.33" />
    <line x1="186.59" y1="206.53" x2="188.35" y2="207.61" stroke="#1f2d1f" stroke-width="3.54" />
    <line x1="186.59" y1="206.53" x2="187.88" y2="204.88" stroke="#1f2d1f" stroke-width="3.54" />
    <line x1="182.79" y1="207.19" x2="182.90" y2="203.58" stroke="#1f2d1f" stroke-width="6.33" />
    <line x1="182.92" y1="203.33" x2="184.30" y2="201.76" stroke="#1f2d1f" stroke-width="3.54" />
    <line x1="182.92" y1="203.33" x2="181.53" y2="201.67" stroke="#1f2d1f" stroke-width="3.54" />
    <line x1="165.48" y1="213.46" x2="165.28" y2="200.41" stroke="#1f2d1f" stroke-width="11.92" />
    <line x1="165.09" y1="200.72" x2="169.74" y2="195.42" stroke="#1f2d1f" stroke-width="9.12" />
    <line x1="169.84" y1="195.57" x2="173.64" y2="195.28" stroke="#1f2d1f" stroke-width="6.33" />
    <line x1="173.66" y1="195.02" x2="175.39" y2="196.16" stroke="#1f2d1f" stroke-width="3.54" />
    <line x1="173.66" y1="195.02" x2="175.00" y2="193.41" stroke="#1f2d1f" stroke-width="3.54" />
    <line x1="169.84" y1="195.57" x2="170.07" y2="191.97" stroke="#1f2d1f" stroke-width="6.33" />
    <line x1="170.08" y1="191.72" x2="171.51" y2="190.20" stroke="#1f2d1f" stroke-width="3.54" />
    <line x1="170.08" y1="191.72" x2="168.74" y2="190.02" stroke="#1f2d1f" stroke-width="3.54" />
    <line x1="165.09" y1="200.72" x2="159.91" y2="195.72" stroke="#1f2d1f" stroke-width="9.12" />
    <line x1="160.02" y1="195.87" x2="159.52" y2="192.30" stroke="#1f2d1f" stroke-width="6.33" />
    <line x1="159.54" y1="192.04" x2="160.66" y2="190.27" stroke="#1f2d1f" stroke-width="3.54" />
    <line x1="159.54" y1="192.04" x2="157.91" y2="190.61" stroke="#1f2d1f" stroke-width="3.54" />
    <line x1="160.02" y1="195.87" x2="156.16" y2="195.82" stroke="#1f2d1f" stroke-width="6.33" />
    <line x1="156.18" y1="195.56" x2="154.63" y2="194.04" stroke="#1f2d1f" stroke-width="3.54" />
    <line x1="156.18" y1="195.56" x2="154.41" y2="196.81" stroke="#1f2d1f" stroke-width="3.54" />
    <line x1="150.00" y1="230.71" x2="134.86" y2="212.86" stroke="#1f2d1f" stroke-width="14.71" />
    <line x1="134.52" y1="213.46" x2="135.11" y2="200.41" stroke="#1f2d1f" stroke-width="11.92" />
    <line x1="134.91" y1="200.72" x2="139.87" y2="195.72" stroke="#1f2d1f" stroke-width="9.12" />
    <line x1="139.98" y1="195.87" x2="143.81" y2="195.82" stroke="#1f2d1f" stroke-width="6.33" />
    <line x1="143.82" y1="195.56" x2="145.48" y2="196.81" stroke="#1f2d1f" stroke-width="3.54" />
    <line x1="143.82" y1="195.56" x2="145.26" y2="194.04" stroke="#1f2d1f" stroke-width="3.54" />
    <line x1="139.98" y1="195.87" x2="140.44" y2="192.30" stroke="#1f2d1f" stroke-width="6.33" />
    <line x1="140.46" y1="192.04" x2="141.98" y2="190.61" stroke="#1f2d1f" stroke-width="3.54" />
    <line x1="140.46" y1="192.04" x2="139.22" y2="190.27" stroke="#1f2d1f" stroke-width="3.54" />
    <line x1="134.91" y1="200.72" x2="130.05" y2="195.42" stroke="#1f2d1f" stroke-width="9.12" />
    <line x1="130.16" y1="195.57" x2="129.90" y2="191.97" stroke="#1f2d1f" stroke-width="6.33" />
    <line x1="129.92" y1="191.72" x2="131.14" y2="190.02" stroke="#1f2d1f" stroke-width="3.54" />
    <line x1="129.92" y1="191.72" x2="128.37" y2="190.20" stroke="#1f2d1f" stroke-width="3.54" />
    <line x1="130.16" y1="195.57" x2="126.32" y2="195.28" stroke="#1f2d1f" stroke-width="6.33" />
    <line x1="126.34" y1="195.02" x2="124.89" y2="193.41" stroke="#1f2d1f" stroke-width="3.54" />
    <line x1="126.34" y1="195.02" x2="124.50" y2="196.16" stroke="#1f2d1f" stroke-width="3.54" />
    <line x1="134.52" y1="213.46" x2="122.01" y2="212.16" stroke="#1f2d1f" stroke-width="11.92" />
    <line x1="121.81" y1="212.47" x2="117.10" y2="207.03" stroke="#1f2d1f" stroke-width="9.12" />
    <line x1="117.21" y1="207.19" x2="117.06" y2="203.58" stroke="#1f2d1f" stroke-width="6.33" />
    <line x1="117.08" y1="203.33" x2="118.36" y2="201.67" stroke="#1f2d1f" stroke-width="3.54" />
    <line x1="117.08" y1="203.33" x2="115.58" y2="201.76" stroke="#1f2d1f" stroke-width="3.54" />
    <line x1="117.21" y1="207.19" x2="113.39" y2="206.78" stroke="#1f2d1f" stroke-width="6.33" />
    <line x1="113.41" y1="206.53" x2="112.01" y2="204.88" stroke="#1f2d1f" stroke-width="3.54" />
    <line x1="113.41" y1="206.53" x2="111.53" y2="207.61" stroke="#1f2d1f" stroke-width="3.54" />
    <line x1="121.81" y1="212.47" x2="116.34" y2="216.83" stroke="#1f2d1f" stroke-width="9.12" />
    <line x1="116.45" y1="216.98" x2="112.57" y2="217.30" stroke="#1f2d1f" stroke-width="6.33" />
    <line x1="112.59" y1="217.05" x2="110.91" y2="215.67" stroke="#1f2d1f" stroke-width="3.54" />
    <line x1="112.59" y1="217.05" x2="110.95" y2="218.45" stroke="#1f2d1f" stroke-width="3.54" />
    <line x1="116.45" y1="216.98" x2="115.70" y2="221.03" stroke="#1f2d1f" stroke-width="6.33" />
    <line x1="115.72" y1="220.77" x2="114.00" y2="222.08" stroke="#1f2d1f" stroke-width="3.54" />
    <line x1="115.72" y1="220.77" x2="116.73" y2="222.60" stroke="#1f2d1f" stroke-width="3.54" />
    <line x1="150.00" y1="230.71" x2="150.07" y2="188.51" stroke="#0d0d0d" stroke-width="17.50" />
    <line x1="150.00" y1="188.57" x2="165.82" y2="170.72" stroke="#1f2d1f" stroke-width="14.71" />
    <line x1="165.48" y1="171.32" x2="178.38" y2="170.02" stroke="#1f2d1f" stroke-width="11.92" />
    <line x1="178.19" y1="170.33" x2="183.45" y2="174.69" stroke="#1f2d1f" stroke-width="9.12" />
    <line x1="183.55" y1="174.84" x2="184.26" y2="178.88" stroke="#1f2d1f" stroke-width="6.33" />
    <line x1="183.55" y1="174.84" x2="187.39" y2="175.16" stroke="#1f2d1f" stroke-width="6.33" />
    <line x1="178.19" y1="170.33" x2="182.69" y2="164.89" stroke="#1f2d1f" stroke-width="9.12" />
    <line x1="182.79" y1="165.04" x2="186.57" y2="164.64" stroke="#1f2d1f" stroke-width="6.33" />
    <line x1="182.79" y1="165.04" x2="182.90" y2="161.44" stroke="#1f2d1f" stroke-width="6.33" />
    <line x1="165.48" y1="171.32" x2="165.28" y2="158.26" stroke="#1f2d1f" stroke-width="11.92" />
    <line x1="165.09" y1="158.58" x2="169.74" y2="153.27" stroke="#1f2d1f" stroke-width="9.12" />
    <line x1="169.84" y1="153.43" x2="173.64" y2="153.13" stroke="#1f2d1f" stroke-width="6.33" />
    <line x1="169.84" y1="153.43" x2="170.07" y2="149.83" stroke="#1f2d1f" stroke-width="6.33" />
    <line x1="165.09" y1="158.58" x2="159.91" y2="153.58" stroke="#1f2d1f" stroke-width="9.12" />
    <line x1="160.02" y1="153.73" x2="159.52" y2="150.15" stroke="#1f2d1f" stroke-width="6.33" />
    <line x1="160.02" y1="153.73" x2="156.16" y2="153.67" stroke="#1f2d1f" stroke-width="6.33" />
    <line x1="150.00" y1="188.57" x2="134.86" y2="170.72" stroke="#1f2d1f" stroke-width="14.71" />
    <line x1="134.52" y1="171.32" x2="135.11" y2="158.26" stroke="#1f2d1f" stroke-width="11.92" />
    <line x1="134.91" y1="158.58" x2="139.87" y2="153.58" stroke="#1f2d1f" stroke-width="9.12" />
    <line x1="139.98" y1="153.73" x2="143.81" y2="153.67" stroke="#1f2d1f" stroke-width="6.33" />
    <line x1="139.98" y1="153.73" x2="140.44" y2="150.15" stroke="#1f2d1f" stroke-width="6.33" />
    <line x1="134.91" y1="158.58" x2="130.05" y2="153.27" stroke="#1f2d1f" stroke-width="9.12" />
    <line x1="130.16" y1="153.43" x2="129.90" y2="149.83" stroke="#1f2d1f" stroke-width="6.33" />
    <line x1="130.16" y1="153.43" x2="126.32" y2="153.13" stroke="#1f2d1f" stroke-width="6.33" />
    <line x1="134.52" y1="171.32" x2="122.01" y2="170.02" stroke="#1f2d1f" stroke-width="11.92" />
    <line x1="121.81" y1="170.33" x2="117.10" y2="164.89" stroke="#1f2d1f" stroke-width="9.12" />
    <line x1="117.21" y1="165.04" x2="117.06" y2="161.44" stroke="#1f2d1f" stroke-width="6.33" />
    <line x1="117.21" y1="165.04" x2="113.39" y2="164.64" stroke="#1f2d1f" stroke-width="6.33" />
    <line x1="121.81" y1="170.33" x2="116.34" y2="174.69" stroke="#1f2d1f" stroke-width="9.12" />
    <line x1="116.45" y1="174.84" x2="112.57" y2="175.16" stroke="#1f2d1f" stroke-width="6.33" />
    <line x1="116.45" y1="174.84" x2="115.70" y2="178.88" stroke="#1f2d1f" stroke-width="6.33" />
    <line x1="150.00" y1="188.57" x2="150.07" y2="146.37" stroke="#0d0d0d" stroke-width="17.50" />
    <line x1="150.00" y1="146.43" x2="165.82" y2="128.58" stroke="#1f2d1f" stroke-width="14.71" />
    <line x1="165.48" y1="129.18" x2="178.38" y2="127.87" stroke="#1f2d1f" stroke-width="11.92" />
    <line x1="178.19" y1="128.19" x2="183.45" y2="132.55" stroke="#1f2d1f" stroke-width="9.12" />
    <line x1="178.19" y1="128.19" x2="182.69" y2="122.75" stroke="#1f2d1f" stroke-width="9.12" />
    <line x1="165.48" y1="129.18" x2="165.28" y2="116.12" stroke="#1f2d1f" stroke-width="11.92" />
    <line x1="165.09" y1="116.43" x2="169.74" y2="111.13" stroke="#1f2d1f" stroke-width="9.12" />
    <line x1="165.09" y1="116.43" x2="159.91" y2="111.43" stroke="#1f2d1f" stroke-width="9.12" />
    <line x1="150.00" y1="146.43" x2="134.86" y2="128.58" stroke="#1f2d1f" stroke-width="14.71" />
    <line x1="134.52" y1="129.18" x2="135.11" y2="116.12" stroke="#1f2d1f" stroke-width="11.92" />
    <line x1="134.91" y1="116.43" x2="139.87" y2="111.43" stroke="#1f2d1f" stroke-width="9.12" />
    <line x1="134.91" y1="116.43" x2="130.05" y2="111.13" stroke="#1f2d1f" stroke-width="9.12" />
    <line x1="134.52" y1="129.18" x2="122.01" y2="127.87" stroke="#1f2d1f" stroke-width="11.92" />
    <line x1="121.81" y1="128.19" x2="117.10" y2="122.75" stroke="#1f2d1f" stroke-width="9.12" />
    <line x1="121.81" y1="128.19" x2="116.34" y2="132.55" stroke="#1f2d1f" stroke-width="9.12" />
    <line x1="150.00" y1="146.43" x2="150.07" y2="104.23" stroke="#0d0d0d" stroke-width="17.50" />
    <line x1="150.00" y1="104.29" x2="165.82" y2="86.44" stroke="#1f2d1f" stroke-width="14.71" />
    <line x1="165.48" y1="87.03" x2="178.38" y2="85.73" stroke="#1f2d1f" stroke-width="11.92" />
    <line x1="165.48" y1="87.03" x2="165.28" y2="73.98" stroke="#1f2d1f" stroke-width="11.92" />
    <line x1="150.00" y1="104.29" x2="134.86" y2="86.44" stroke="#1f2d1f" stroke-width="14.71" />
    <line x1="134.52" y1="87.03" x2="135.11" y2="73.98" stroke="#1f2d1f" stroke-width="11.92" />
    <line x1="134.52" y1="87.03" x2="122.01" y2="85.73" stroke="#1f2d1f" stroke-width="11.92" />
    <line x1="150.00" y1="104.29" x2="150.07" y2="62.08" stroke="#0d0d0d" stroke-width="17.50" />
    <line x1="150.00" y1="62.14" x2="165.82" y2="44.29" stroke="#1f2d1f" stroke-width="14.71" />
    <line x1="150.00" y1="62.14" x2="134.86" y2="44.29" stroke="#1f2d1f" stroke-width="14.71" />
    <line x1="150.00" y1="62.14" x2="150.07" y2="19.94" stroke="#0d0d0d" stroke-width="17.50" />
  </g>
</svg>