<svg xmlns="http://www.w3.org/2000/svg" viewBox="0 0 300 350" width="300" height="350">
  <defs />
  <rect width="100%" height="100%" fill="none" />
  <rect x="142.50" y="315.00" width="15.00" height="35.00" fill="#2d1a0e" rx="2.25" />
  <g stroke-linecap="round" stroke-linejoin="round">
    <line x1="150.00" y1="315.00" x2="150.00" y2="272.88" stroke="#2d1a0e" stroke-width="17.50" />
    <line x1="150.00" y1="272.86" x2="167.19" y2="255.57" stroke="#2d5a1b" stroke-width="14.71" />
    <line x1="164.79" y1="255.01" x2="178.22" y2="253.53" stroke="#2d5a1b" stroke-width="11.92" />
    <line x1="177.38" y1="253.04" x2="183.17" y2="256.94" stroke="#2d5a1b" stroke-width="9.12" />
    <line x1="183.17" y1="257.00" x2="183.99" y2="260.67" stroke="#2d5a1b" stroke-width="6.33" />
    <line x1="183.89" y1="260.79" x2="182.98" y2="262.61" stroke="#2d5a1b" stroke-width="3.54" />
    <line x1="182.87" y1="262.65" x2="181.78" y2="263.07" stroke="#2d5a1b" stroke-width="0.75" />
    <line x1="182.87" y1="262.65" x2="183.11" y2="263.80" stroke="#2d5a1b" stroke-width="0.75" />
    <line x1="183.89" y1="260.79" x2="185.62" y2="262.11" stroke="#2d5a1b" stroke-width="3.54" />
    <line x1="185.51" y1="262.15" x2="185.71" y2="263.30" stroke="#2d5a1b" stroke-width="0.75" />
    <line x1="185.51" y1="262.15" x2="186.68" y2="262.14" stroke="#2d5a1b" stroke-width="0.75" />
    <line x1="183.17" y1="257.00" x2="187.06" y2="256.17" stroke="#2d5a1b" stroke-width="6.33" />
    <line x1="186.96" y1="256.30" x2="188.92" y2="257.28" stroke="#2d5a1b" stroke-width="3.54" />
    <line x1="188.82" y1="257.32" x2="189.23" y2="258.41" stroke="#2d5a1b" stroke-width="0.75" />
    <line x1="188.82" y1="257.32" x2="189.96" y2="257.09" stroke="#2d5a1b" stroke-width="0.75" />
    <line x1="186.96" y1="256.30" x2="188.43" y2="254.64" stroke="#2d5a1b" stroke-width="3.54" />
    <line x1="188.33" y1="254.68" x2="189.48" y2="254.49" stroke="#2d5a1b" stroke-width="0.75" />
    <line x1="188.33" y1="254.68" x2="188.32" y2="253.51" stroke="#2d5a1b" stroke-width="0.75" />
    <line x1="177.38" y1="253.04" x2="181.69" y2="247.45" stroke="#2d5a1b" stroke-width="9.12" />
    <line x1="181.69" y1="247.51" x2="185.62" y2="246.90" stroke="#2d5a1b" stroke-width="6.33" />
    <line x1="185.52" y1="247.03" x2="187.42" y2="248.11" stroke="#2d5a1b" stroke-width="3.54" />
    <line x1="187.31" y1="248.16" x2="187.66" y2="249.27" stroke="#2d5a1b" stroke-width="0.75" />
    <line x1="187.31" y1="248.16" x2="188.47" y2="247.99" stroke="#2d5a1b" stroke-width="0.75" />
    <line x1="185.52" y1="247.03" x2="187.08" y2="245.44" stroke="#2d5a1b" stroke-width="3.54" />
    <line x1="186.98" y1="245.49" x2="188.14" y2="245.37" stroke="#2d5a1b" stroke-width="0.75" />
    <line x1="186.98" y1="245.49" x2="187.04" y2="244.32" stroke="#2d5a1b" stroke-width="0.75" />
    <line x1="181.69" y1="247.51" x2="181.32" y2="243.56" stroke="#2d5a1b" stroke-width="6.33" />
    <line x1="181.22" y1="243.68" x2="182.46" y2="241.85" stroke="#2d5a1b" stroke-width="3.54" />
    <line x1="182.36" y1="241.89" x2="183.47" y2="241.55" stroke="#2d5a1b" stroke-width="0.75" />
    <line x1="182.36" y1="241.89" x2="182.19" y2="240.74" stroke="#2d5a1b" stroke-width="0.75" />
    <line x1="181.22" y1="243.68" x2="179.80" y2="242.17" stroke="#2d5a1b" stroke-width="3.54" />
    <line x1="179.69" y1="242.22" x2="179.57" y2="241.06" stroke="#2d5a1b" stroke-width="0.75" />
    <line x1="179.69" y1="242.22" x2="178.53" y2="242.15" stroke="#2d5a1b" stroke-width="0.75" />
    <line x1="164.79" y1="255.01" x2="165.21" y2="242.75" stroke="#2d5a1b" stroke-width="11.92" />
    <line x1="164.37" y1="242.27" x2="169.00" y2="236.94" stroke="#2d5a1b" stroke-width="9.12" />
    <line x1="169.00" y1="237.00" x2="172.95" y2="236.62" stroke="#2d5a1b" stroke-width="6.33" />
    <line x1="172.85" y1="236.75" x2="174.68" y2="237.94" stroke="#2d5a1b" stroke-width="3.54" />
    <line x1="174.58" y1="237.98" x2="174.86" y2="239.11" stroke="#2d5a1b" stroke-width="0.75" />
    <line x1="174.58" y1="237.98" x2="175.74" y2="237.88" stroke="#2d5a1b" stroke-width="0.75" />
    <line x1="172.85" y1="236.75" x2="174.50" y2="235.26" stroke="#2d5a1b" stroke-width="3.54" />
    <line x1="174.40" y1="235.30" x2="175.56" y2="235.25" stroke="#2d5a1b" stroke-width="0.75" />
    <line x1="174.40" y1="235.30" x2="174.53" y2="234.14" stroke="#2d5a1b" stroke-width="0.75" />
    <line x1="169.00" y1="237.00" x2="168.87" y2="233.03" stroke="#2d5a1b" stroke-width="6.33" />
    <line x1="168.77" y1="233.15" x2="170.11" y2="231.39" stroke="#2d5a1b" stroke-width="3.54" />
    <line x1="170.01" y1="231.43" x2="171.14" y2="231.16" stroke="#2d5a1b" stroke-width="0.75" />
    <line x1="170.01" y1="231.43" x2="169.91" y2="230.27" stroke="#2d5a1b" stroke-width="0.75" />
    <line x1="168.77" y1="233.15" x2="167.43" y2="231.55" stroke="#2d5a1b" stroke-width="3.54" />
    <line x1="167.32" y1="231.60" x2="167.28" y2="230.43" stroke="#2d5a1b" stroke-width="0.75" />
    <line x1="167.32" y1="231.60" x2="166.17" y2="231.46" stroke="#2d5a1b" stroke-width="0.75" />
    <line x1="164.37" y1="242.27" x2="159.40" y2="237.26" stroke="#2d5a1b" stroke-width="9.12" />
    <line x1="159.40" y1="237.32" x2="159.49" y2="233.33" stroke="#2d5a1b" stroke-width="6.33" />
    <line x1="159.39" y1="233.46" x2="160.83" y2="231.77" stroke="#2d5a1b" stroke-width="3.54" />
    <line x1="160.72" y1="231.81" x2="161.87" y2="231.60" stroke="#2d5a1b" stroke-width="0.75" />
    <line x1="160.72" y1="231.81" x2="160.69" y2="230.65" stroke="#2d5a1b" stroke-width="0.75" />
    <line x1="159.39" y1="233.46" x2="158.14" y2="231.78" stroke="#2d5a1b" stroke-width="3.54" />
    <line x1="158.04" y1="231.82" x2="158.05" y2="230.66" stroke="#2d5a1b" stroke-width="0.75" />
    <line x1="158.04" y1="231.82" x2="156.89" y2="231.62" stroke="#2d5a1b" stroke-width="0.75" />
    <line x1="159.40" y1="237.32" x2="155.65" y2="237.19" stroke="#2d5a1b" stroke-width="6.33" />
    <line x1="155.55" y1="237.32" x2="154.01" y2="235.93" stroke="#2d5a1b" stroke-width="3.54" />
    <line x1="153.90" y1="235.97" x2="153.70" y2="234.82" stroke="#2d5a1b" stroke-width="0.75" />
    <line x1="153.90" y1="235.97" x2="152.74" y2="235.99" stroke="#2d5a1b" stroke-width="0.75" />
    <line x1="155.55" y1="237.32" x2="154.01" y2="238.61" stroke="#2d5a1b" stroke-width="3.54" />
    <line x1="153.90" y1="238.66" x2="152.74" y2="238.63" stroke="#2d5a1b" stroke-width="0.75" />
    <line x1="153.90" y1="238.66" x2="153.70" y2="239.81" stroke="#2d5a1b" stroke-width="0.75" />
    <line x1="150.00" y1="272.86" x2="137.62" y2="255.57" stroke="#2d5a1b" stroke-width="14.71" />
    <line x1="135.21" y1="255.01" x2="136.47" y2="242.75" stroke="#2d5a1b" stroke-width="11.92" />
    <line x1="135.63" y1="242.27" x2="140.60" y2="237.26" stroke="#2d5a1b" stroke-width="9.12" />
    <line x1="140.60" y1="237.32" x2="144.55" y2="237.19" stroke="#2d5a1b" stroke-width="6.33" />
    <line x1="144.45" y1="237.32" x2="146.20" y2="238.61" stroke="#2d5a1b" stroke-width="3.54" />
    <line x1="146.10" y1="238.66" x2="146.30" y2="239.81" stroke="#2d5a1b" stroke-width="0.75" />
    <line x1="146.10" y1="238.66" x2="147.26" y2="238.63" stroke="#2d5a1b" stroke-width="0.75" />
    <line x1="144.45" y1="237.32" x2="146.20" y2="235.93" stroke="#2d5a1b" stroke-width="3.54" />
    <line x1="146.10" y1="235.97" x2="147.26" y2="235.99" stroke="#2d5a1b" stroke-width="0.75" />
    <line x1="146.10" y1="235.97" x2="146.30" y2="234.82" stroke="#2d5a1b" stroke-width="0.75" />
    <line x1="140.60" y1="237.32" x2="140.71" y2="233.33" stroke="#2d5a1b" stroke-width="6.33" />
    <line x1="140.61" y1="233.46" x2="142.07" y2="231.78" stroke="#2d5a1b" stroke-width="3.54" />
    <line x1="141.96" y1="231.82" x2="143.11" y2="231.62" stroke="#2d5a1b" stroke-width="0.75" />
    <line x1="141.96" y1="231.82" x2="141.95" y2="230.66" stroke="#2d5a1b" stroke-width="0.75" />
    <line x1="140.61" y1="233.46" x2="139.38" y2="231.77" stroke="#2d5a1b" stroke-width="3.54" />
    <line x1="139.28" y1="231.81" x2="139.31" y2="230.65" stroke="#2d5a1b" stroke-width="0.75" />
    <line x1="139.28" y1="231.81" x2="138.13" y2="231.60" stroke="#2d5a1b" stroke-width="0.75" />
    <line x1="135.63" y1="242.27" x2="131.00" y2="236.94" stroke="#2d5a1b" stroke-width="9.12" />
    <line x1="131.00" y1="237.00" x2="131.33" y2="233.03" stroke="#2d5a1b" stroke-width="6.33" />
    <line x1="131.23" y1="233.15" x2="132.78" y2="231.55" stroke="#2d5a1b" stroke-width="3.54" />
    <line x1="132.68" y1="231.60" x2="133.83" y2="231.46" stroke="#2d5a1b" stroke-width="0.75" />
    <line x1="132.68" y1="231.60" x2="132.72" y2="230.43" stroke="#2d5a1b" stroke-width="0.75" />
    <line x1="131.23" y1="233.15" x2="130.10" y2="231.39" stroke="#2d5a1b" stroke-width="3.54" />
    <line x1="129.99" y1="231.43" x2="130.09" y2="230.27" stroke="#2d5a1b" stroke-width="0.75" />
    <line x1="129.99" y1="231.43" x2="128.86" y2="231.16" stroke="#2d5a1b" stroke-width="0.75" />
    <line x1="131.00" y1="237.00" x2="127.25" y2="236.62" stroke="#2d5a1b" stroke-width="6.33" />
    <line x1="127.15" y1="236.75" x2="125.71" y2="235.26" stroke="#2d5a1b" stroke-width="3.54" />
    <line x1="125.60" y1="235.30" x2="125.47" y2="234.14" stroke="#2d5a1b" stroke-width="0.75" />
    <line x1="125.60" y1="235.30" x2="124.44" y2="235.25" stroke="#2d5a1b" stroke-width="0.75" />
    <line x1="127.15" y1="236.75" x2="125.53" y2="237.94" stroke="#2d5a1b" stroke-width="3.54" />
    <line x1="125.42" y1="237.98" x2="124.26" y2="237.88" stroke="#2d5a1b" stroke-width="0.75" />
    <line x1="125.42" y1="237.98" x2="125.14" y2="239.11" stroke="#2d5a1b" stroke-width="0.75" />
    <line x1="135.21" y1="255.01" x2="123.46" y2="253.53" stroke="#2d5a1b" stroke-width="11.92" />
    <line x1="122.62" y1="253.04" x2="118.31" y2="247.45" stroke="#2d5a1b" stroke-width="9.12" />
    <line x1="118.31" y1="247.51" x2="118.88" y2="243.56" stroke="#2d5a1b" stroke-width="6.33" />
    <line x1="118.78" y1="243.68" x2="120.42" y2="242.17" stroke="#2d5a1b" stroke-width="3.54" />
    <line x1="120.31" y1="242.22" x2="121.47" y2="242.15" stroke="#2d5a1b" stroke-width="0.75" />
    <line x1="120.31" y1="242.22" x2="120.43" y2="241.06" stroke="#2d5a1b" stroke-width="0.75" />
    <line x1="118.78" y1="243.68" x2="117.75" y2="241.85" stroke="#2d5a1b" stroke-width="3.54" />
    <line x1="117.64" y1="241.89" x2="117.81" y2="240.74" stroke="#2d5a1b" stroke-width="0.75" />
    <line x1="117.64" y1="241.89" x2="116.53" y2="241.55" stroke="#2d5a1b" stroke-width="0.75" />
    <line x1="118.31" y1="247.51" x2="114.58" y2="246.90" stroke="#2d5a1b" stroke-width="6.33" />
    <line x1="114.48" y1="247.03" x2="113.13" y2="245.44" stroke="#2d5a1b" stroke-width="3.54" />
    <line x1="113.02" y1="245.49" x2="112.96" y2="244.32" stroke="#2d5a1b" stroke-width="0.75" />
    <line x1="113.02" y1="245.49" x2="111.86" y2="245.37" stroke="#2d5a1b" stroke-width="0.75" />
    <line x1="114.48" y1="247.03" x2="112.79" y2="248.11" stroke="#2d5a1b" stroke-width="3.54" />
    <line x1="112.69" y1="248.16" x2="111.53" y2="247.99" stroke="#2d5a1b" stroke-width="0.75" />
    <line x1="112.69" y1="248.16" x2="112.34" y2="249.27" stroke="#2d5a1b" stroke-width="0.75" />
    <line x1="122.62" y1="253.04" x2="116.83" y2="256.94" stroke="#2d5a1b" stroke-width="9.12" />
    <line x1="116.83" y1="257.00" x2="113.14" y2="256.17" stroke="#2d5a1b" stroke-width="6.33" />
    <line x1="113.04" y1="256.30" x2="111.78" y2="254.64" stroke="#2d5a1b" stroke-width="3.54" />
    <line x1="111.67" y1="254.68" x2="111.68" y2="253.51" stroke="#2d5a1b" stroke-width="0.75" />
    <line x1="111.67" y1="254.68" x2="110.52" y2="254.49" stroke="#2d5a1b" stroke-width="0.75" />
    <line x1="113.04" y1="256.30" x2="111.29" y2="257.28" stroke="#2d5a1b" stroke-width="3.54" />
    <line x1="111.18" y1="257.32" x2="110.04" y2="257.09" stroke="#2d5a1b" stroke-width="0.75" />
    <line x1="111.18" y1="257.32" x2="110.77" y2="258.41" stroke="#2d5a1b" stroke-width="0.75" />
    <line x1="116.83" y1="257.00" x2="116.21" y2="260.67" stroke="#2d5a1b" stroke-width="6.33" />
    <line x1="116.11" y1="260.79" x2="114.59" y2="262.11" stroke="#2d5a1b" stroke-width="3.54" />
    <line x1="114.49" y1="262.15" x2="113.32" y2="262.14" stroke="#2d5a1b" stroke-width="0.75" />
    <line x1="114.49" y1="262.15" x2="114.29" y2="263.30" stroke="#2d5a1b" stroke-width="0.75" />
    <line x1="116.11" y1="260.79" x2="117.23" y2="262.61" stroke="#2d5a1b" stroke-width="3.54" />
    <line x1="117.13" y1="262.65" x2="116.89" y2="263.80" stroke="#2d5a1b" stroke-width="0.75" />
    <line x1="117.13" y1="262.65" x2="118.22" y2="263.07" stroke="#2d5a1b" stroke-width="0.75" />
    <line x1="150.00" y1="272.86" x2="150.00" y2="230.74" stroke="#2d1a0e" stroke-width="17.50" />
    <line x1="150.00" y1="230.71" x2="167.19" y2="213.43" stroke="#2d5a1b" stroke-width="14.71" />
    <line x1="164.79" y1="212.86" x2="178.22" y2="211.39" stroke="#2d5a1b" stroke-width="11.92" />
    <line x1="177.38" y1="210.90" x2="183.17" y2="214.80" stroke="#2d5a1b" stroke-width="9.12" />
    <line x1="183.17" y1="214.86" x2="183.99" y2="218.52" stroke="#2d5a1b" stroke-width="6.33" />
    <line x1="183.89" y1="218.65" x2="182.98" y2="220.47" stroke="#2d5a1b" stroke-width="3.54" />
    <line x1="183.89" y1="218.65" x2="185.62" y2="219.97" stroke="#2d5a1b" stroke-width="3.54" />
    <line x1="183.17" y1="214.86" x2="187.06" y2="214.03" stroke="#2d5a1b" stroke-width="6.33" />
    <line x1="186.96" y1="214.16" x2="188.92" y2="215.13" stroke="#2d5a1b" stroke-width="3.54" />
    <line x1="186.96" y1="214.16" x2="188.43" y2="212.49" stroke="#2d5a1b" stroke-width="3.54" />
    <line x1="177.38" y1="210.90" x2="181.69" y2="205.31" stroke="#2d5a1b" stroke-width="9.12" />
    <line x1="181.69" y1="205.37" x2="185.62" y2="204.76" stroke="#2d5a1b" stroke-width="6.33" />
    <line x1="185.52" y1="204.89" x2="187.42" y2="205.97" stroke="#2d5a1b" stroke-width="3.54" />
    <line x1="185.52" y1="204.89" x2="187.08" y2="203.30" stroke="#2d5a1b" stroke-width="3.54" />
    <line x1="181.69" y1="205.37" x2="181.32" y2="201.42" stroke="#2d5a1b" stroke-width="6.33" />
    <line x1="181.22" y1="201.54" x2="182.46" y2="199.70" stroke="#2d5a1b" stroke-width="3.54" />
    <line x1="181.22" y1="201.54" x2="179.80" y2="200.03" stroke="#2d5a1b" stroke-width="3.54" />
    <line x1="164.79" y1="212.86" x2="165.21" y2="200.61" stroke="#2d5a1b" stroke-width="11.92" />
    <line x1="164.37" y1="200.12" x2="169.00" y2="194.80" stroke="#2d5a1b" stroke-width="9.12" />
    <line x1="169.00" y1="194.86" x2="172.95" y2="194.48" stroke="#2d5a1b" stroke-width="6.33" />
    <line x1="172.85" y1="194.61" x2="174.68" y2="195.79" stroke="#2d5a1b" stroke-width="3.54" />
    <line x1="172.85" y1="194.61" x2="174.50" y2="193.11" stroke="#2d5a1b" stroke-width="3.54" />
    <line x1="169.00" y1="194.86" x2="168.87" y2="190.88" stroke="#2d5a1b" stroke-width="6.33" />
    <line x1="168.77" y1="191.01" x2="170.11" y2="189.25" stroke="#2d5a1b" stroke-width="3.54" />
    <line x1="168.77" y1="191.01" x2="167.43" y2="189.41" stroke="#2d5a1b" stroke-width="3.54" />
    <line x1="164.37" y1="200.12" x2="159.40" y2="195.11" stroke="#2d5a1b" stroke-width="9.12" />
    <line x1="159.40" y1="195.17" x2="159.49" y2="191.19" stroke="#2d5a1b" stroke-width="6.33" />
    <line x1="159.39" y1="191.32" x2="160.83" y2="189.63" stroke="#2d5a1b" stroke-width="3.54" />
    <line x1="159.39" y1="191.32" x2="158.14" y2="189.64" stroke="#2d5a1b" stroke-width="3.54" />
    <line x1="159.40" y1="195.17" x2="155.65" y2="195.05" stroke="#2d5a1b" stroke-width="6.33" />
    <line x1="155.55" y1="195.17" x2="154.01" y2="193.78" stroke="#2d5a1b" stroke-width="3.54" />
    <line x1="155.55" y1="195.17" x2="154.01" y2="196.47" stroke="#2d5a1b" stroke-width="3.54" />
    <line x1="150.00" y1="230.71" x2="137.62" y2="213.43" stroke="#2d5a1b" stroke-width="14.71" />
    <line x1="135.21" y1="212.86" x2="136.47" y2="200.61" stroke="#2d5a1b" stroke-width="11.92" />
    <line x1="135.63" y1="200.12" x2="140.60" y2="195.11" stroke="#2d5a1b" stroke-width="9.12" />
    <line x1="140.60" y1="195.17" x2="144.55" y2="195.05" stroke="#2d5a1b" stroke-width="6.33" />
    <line x1="144.45" y1="195.17" x2="146.20" y2="196.47" stroke="#2d5a1b" stroke-width="3.54" />
    <line x1="144.45" y1="195.17" x2="146.20" y2="193.78" stroke="#2d5a1b" stroke-width="3.54" />
    <line x1="140.60" y1="195.17" x2="140.71" y2="191.19" stroke="#2d5a1b" stroke-width="6.33" />
    <line x1="140.61" y1="191.32" x2="142.07" y2="189.64" stroke="#2d5a1b" stroke-width="3.54" />
    <line x1="140.61" y1="191.32" x2="139.38" y2="189.63" stroke="#2d5a1b" stroke-width="3.54" />
    <line x1="135.63" y1="200.12" x2="131.00" y2="194.80" stroke="#2d5a1b" stroke-width="9.12" />
    <line x1="131.00" y1="194.86" x2="131.33" y2="190.88" stroke="#2d5a1b" stroke-width="6.33" />
    <line x1="131.23" y1="191.01" x2="132.78" y2="189.41" stroke="#2d5a1b" stroke-width="3.54" />
    <line x1="131.23" y1="191.01" x2="130.10" y2="189.25" stroke="#2d5a1b" stroke-width="3.54" />
    <line x1="131.00" y1="194.86" x2="127.25" y2="194.48" stroke="#2d5a1b" stroke-width="6.33" />
    <line x1="127.15" y1="194.61" x2="125.71" y2="193.11" stroke="#2d5a1b" stroke-width="3.54" />
    <line x1="127.15" y1="194.61" x2="125.53" y2="195.79" stroke="#2d5a1b" stroke-width="3.54" />
    <line x1="135.21" y1="212.86" x2="123.46" y2="211.39" stroke="#2d5a1b" stroke-width="11.92" />
    <line x1="122.62" y1="210.90" x2="118.31" y2="205.31" stroke="#2d5a1b" stroke-width="9.12" />
    <line x1="118.31" y1="205.37" x2="118.88" y2="201.42" stroke="#2d5a1b" stroke-width="6.33" />
    <line x1="118.78" y1="201.54" x2="120.42" y2="200.03" stroke="#2d5a1b" stroke-width="3.54" />
    <line x1="118.78" y1="201.54" x2="117.75" y2="199.70" stroke="#2d5a1b" stroke-width="3.54" />
    <line x1="118.31" y1="205.37" x2="114.58" y2="204.76" stroke="#2d5a1b" stroke-width="6.33" />
    <line x1="114.48" y1="204.89" x2="113.13" y2="203.30" stroke="#2d5a1b" stroke-width="3.54" />
    <line x1="114.48" y1="204.89" x2="112.79" y2="205.97" stroke="#2d5a1b" stroke-width="3.54" />
    <line x1="122.62" y1="210.90" x2="116.83" y2="214.80" stroke="#2d5a1b" stroke-width="9.12" />
    <line x1="116.83" y1="214.86" x2="113.14" y2="214.03" stroke="#2d5a1b" stroke-width="6.33" />
    <line x1="113.04" y1="214.16" x2="111.78" y2="212.49" stroke="#2d5a1b" stroke-width="3.54" />
    <line x1="113.04" y1="214.16" x2="111.29" y2="215.13" stroke="#2d5a1b" stroke-width="3.54" />
    <line x1="116.83" y1="214.86" x2="116.21" y2="218.52" stroke="#2d5a1b" stroke-width="6.33" />
    <line x1="116.11" y1="218.65" x2="114.59" y2="219.97" stroke="#2d5a1b" stroke-width="3.54" />
    <line x1="116.11" y1="218.65" x2="117.23" y2="220.47" stroke="#2d5a1b" stroke-width="3.54" />
    <line x1="150.00" y1="230.71" x2="150.00" y2="188.60" stroke="#2d1a0e" stroke-width="17.50" />
    <line x1="150.00" y1="188.57" x2="167.19" y2="171.29" stroke="#2d5a1b" stroke-width="14.71" />
    <line x1="164.79" y1="170.72" x2="178.22" y2="169.25" stroke="#2d5a1b" stroke-width="11.92" />
    <line x1="177.38" y1="168.76" x2="183.17" y2="172.66" stroke="#2d5a1b" stroke-width="9.12" />
    <line x1="183.17" y1="172.72" x2="183.99" y2="176.38" stroke="#2d5a1b" stroke-width="6.33" />
    <line x1="183.17" y1="172.72" x2="187.06" y2="171.89" stroke="#2d5a1b" stroke-width="6.33" />
    <line x1="177.38" y1="168.76" x2="181.69" y2="163.17" stroke="#2d5a1b" stroke-width="9.12" />
    <line x1="181.69" y1="163.23" x2="185.62" y2="162.62" stroke="#2d5a1b" stroke-width="6.33" />
    <line x1="181.69" y1="163.23" x2="181.32" y2="159.27" stroke="#2d5a1b" stroke-width="6.33" />
    <line x1="164.79" y1="170.72" x2="165.21" y2="158.47" stroke="#2d5a1b" stroke-width="11.92" />
    <line x1="164.37" y1="157.98" x2="169.00" y2="152.66" stroke="#2d5a1b" stroke-width="9.12" />
    <line x1="169.00" y1="152.72" x2="172.95" y2="152.34" stroke="#2d5a1b" stroke-width="6.33" />
    <line x1="169.00" y1="152.72" x2="168.87" y2="148.74" stroke="#2d5a1b" stroke-width="6.33" />
    <line x1="164.37" y1="157.98" x2="159.40" y2="152.97" stroke="#2d5a1b" stroke-width="9.12" />
    <line x1="159.40" y1="153.03" x2="159.49" y2="149.05" stroke="#2d5a1b" stroke-width="6.33" />
    <line x1="159.40" y1="153.03" x2="155.65" y2="152.90" stroke="#2d5a1b" stroke-width="6.33" />
    <line x1="150.00" y1="188.57" x2="137.62" y2="171.29" stroke="#2d5a1b" stroke-width="14.71" />
    <line x1="135.21" y1="170.72" x2="136.47" y2="158.47" stroke="#2d5a1b" stroke-width="11.92" />
    <line x1="135.63" y1="157.98" x2="140.60" y2="152.97" stroke="#2d5a1b" stroke-width="9.12" />
    <line x1="140.60" y1="153.03" x2="144.55" y2="152.90" stroke="#2d5a1b" stroke-width="6.33" />
    <line x1="140.60" y1="153.03" x2="140.71" y2="149.05" stroke="#2d5a1b" stroke-width="6.33" />
    <line x1="135.63" y1="157.98" x2="131.00" y2="152.66" stroke="#2d5a1b" stroke-width="9.12" />
    <line x1="131.00" y1="152.72" x2="131.33" y2="148.74" stroke="#2d5a1b" stroke-width="6.33" />
    <line x1="131.00" y1="152.72" x2="127.25" y2="152.34" stroke="#2d5a1b" stroke-width="6.33" />
    <line x1="135.21" y1="170.72" x2="123.46" y2="169.25" stroke="#2d5a1b" stroke-width="11.92" />
    <line x1="122.62" y1="168.76" x2="118.31" y2="163.17" stroke="#2d5a1b" stroke-width="9.12" />
    <line x1="118.31" y1="163.23" x2="118.88" y2="159.27" stroke="#2d5a1b" stroke-width="6.33" />
    <line x1="118.31" y1="163.23" x2="114.58" y2="162.62" stroke="#2d5a1b" stroke-width="6.33" />
    <line x1="122.62" y1="168.76" x2="116.83" y2="172.66" stroke="#2d5a1b" stroke-width="9.12" />
    <line x1="116.83" y1="172.72" x2="113.14" y2="171.89" stroke="#2d5a1b" stroke-width="6.33" />
    <line x1="116.83" y1="172.72" x2="116.21" y2="176.38" stroke="#2d5a1b" stroke-width="6.33" />
    <line x1="150.00" y1="188.57" x2="150.00" y2="146.45" stroke="#2d1a0e" stroke-width="17.50" />
    <line x1="150.00" y1="146.43" x2="167.19" y2="129.14" stroke="#2d5a1b" stroke-width="14.71" />
    <line x1="164.79" y1="128.58" x2="178.22" y2="127.10" stroke="#2d5a1b" stroke-width="11.92" />
    <line x1="177.38" y1="126.62" x2="183.17" y2="130.51" stroke="#2d5a1b" stroke-width="9.12" />
    <line x1="177.38" y1="126.62" x2="181.69" y2="121.02" stroke="#2d5a1b" stroke-width="9.12" />
    <line x1="164.79" y1="128.58" x2="165.21" y2="116.32" stroke="#2d5a1b" stroke-width="11.92" />
    <line x1="164.37" y1="115.84" x2="169.00" y2="110.51" stroke="#2d5a1b" stroke-width="9.12" />
    <line x1="164.37" y1="115.84" x2="159.40" y2="110.83" stroke="#2d5a1b" stroke-width="9.12" />
    <line x1="150.00" y1="146.43" x2="137.62" y2="129.14" stroke="#2d5a1b" stroke-width="14.71" />
    <line x1="135.21" y1="128.58" x2="136.47" y2="116.32" stroke="#2d5a1b" stroke-width="11.92" />
    <line x1="135.63" y1="115.84" x2="140.60" y2="110.83" stroke="#2d5a1b" stroke-width="9.12" />
    <line x1="135.63" y1="115.84" x2="131.00" y2="110.51" stroke="#2d5a1b" stroke-width="9.12" />
    <line x1="135.21" y1="128.58" x2="123.46" y2="127.10" stroke="#2d5a1b" stroke-width="11.92" />
    <line x1="122.62" y1="126.62" x2="118.31" y2="121.02" stroke="#2d5a1b" stroke-width="9.12" />
    <line x1="122.62" y1="126.62" x2="116.83" y2="130.51" stroke="#2d5a1b" stroke-width="9.12" />
    <line x1="150.00" y1="146.43" x2="150.00" y2="104.31" stroke="#2d1a0e" stroke-width="17.50" />
    <line x1="150.00" y1="104.29" x2="167.19" y2="87.00" stroke="#2d5a1b" stroke-width="14.71" />
    <line x1="164.79" y1="86.44" x2="178.22" y2="84.96" stroke="#2d5a1b" stroke-width="11.92" />
    <line x1="164.79" y1="86.44" x2="165.21" y2="74.18" stroke="#2d5a1b" stroke-width="11.92" />
    <line x1="150.00" y1="104.29" x2="137.62" y2="87.00" stroke="#2d5a1b" stroke-width="14.71" />
    <line x1="135.21" y1="86.44" x2="136.47" y2="74.18" stroke="#2d5a1b" stroke-width="11.92" />
    <line x1="135.21" y1="86.44" x2="123.46" y2="84.96" stroke="#2d5a1b" stroke-width="11.92" />
    <line x1="150.00" y1="104.29" x2="150.00" y2="62.17" stroke="#2d1a0e" stroke-width="17.50" />
    <line x1="150.00" y1="62.14" x2="167.19" y2="44.86" stroke="#2d5a1b" stroke-width="14.71" />
    <line x1="150.00" y1="62.14" x2="137.62" y2="44.86" stroke="#2d5a1b" stroke-width="14.71" />
    <line x1="150.00" y1="62.14" x2="150.00" y2="20.03" stroke="#2d1a0e" stroke-width="17.50" />
  </g>
</svg>