<svg xmlns="http://www.w3.org/2000/svg" viewBox="0 0 300 350" width="300" height="350">
  <defs />
  <rect width="100%" height="100%" fill="none" />
  <rect x="152.35" y="297.50" width="15.00" height="52.50" fill="#2d1a0e" rx="2.25" />
  <g stroke-linecap="round" stroke-linejoin="round">
    <line x1="159.85" y1="297.50" x2="159.85" y2="276.66" stroke="#2d1a0e" stroke-width="15.00" />
    <line x1="159.85" y1="276.65" x2="168.02" y2="264.53" stroke="#2d5a1b" stroke-width="10.33" />
    <line x1="167.61" y1="264.29" x2="181.16" y2="258.18" stroke="#2d5a1b" stroke-width="10.33" />
    <line x1="159.85" y1="276.65" x2="159.85" y2="255.82" stroke="#2d1a0e" stroke-width="15.00" />
    <line x1="159.85" y1="255.80" x2="152.51" y2="243.68" stroke="#2d5a1b" stroke-width="10.33" />
    <line x1="152.10" y1="243.44" x2="139.37" y2="237.33" stroke="#2d5a1b" stroke-width="10.33" />
    <line x1="159.85" y1="255.80" x2="168.02" y2="243.68" stroke="#2d5a1b" stroke-width="10.33" />
    <line x1="167.61" y1="243.44" x2="177.25" y2="239.88" stroke="#2d5a1b" stroke-width="5.67" />
    <line x1="177.20" y1="239.94" x2="186.98" y2="243.00" stroke="#2d5a1b" stroke-width="5.67" />
    <line x1="167.61" y1="243.44" x2="175.78" y2="231.32" stroke="#2d5a1b" stroke-width="10.33" />
    <line x1="175.36" y1="231.08" x2="174.39" y2="220.85" stroke="#2d5a1b" stroke-width="5.67" />
    <line x1="174.34" y1="220.91" x2="167.34" y2="213.46" stroke="#2d5a1b" stroke-width="5.67" />
    <line x1="175.36" y1="231.08" x2="188.92" y2="224.97" stroke="#2d5a1b" stroke-width="10.33" />
    <line x1="188.50" y1="224.73" x2="198.54" y2="226.80" stroke="#2d5a1b" stroke-width="5.67" />
    <line x1="198.49" y1="226.86" x2="205.12" y2="234.62" stroke="#2d5a1b" stroke-width="5.67" />
    <line x1="188.50" y1="224.73" x2="202.05" y2="218.62" stroke="#2d5a1b" stroke-width="10.33" />
    <line x1="201.64" y1="218.38" x2="206.22" y2="209.16" stroke="#2d5a1b" stroke-width="5.67" />
    <line x1="206.17" y1="209.22" x2="204.18" y2="199.15" stroke="#2d5a1b" stroke-width="5.67" />
    <line x1="159.85" y1="255.80" x2="159.85" y2="234.97" stroke="#2d1a0e" stroke-width="15.00" />
    <line x1="159.85" y1="234.96" x2="168.02" y2="222.83" stroke="#2d5a1b" stroke-width="10.33" />
    <line x1="167.61" y1="222.59" x2="181.16" y2="216.48" stroke="#2d5a1b" stroke-width="10.33" />
    <line x1="159.85" y1="234.96" x2="159.85" y2="214.12" stroke="#2d1a0e" stroke-width="15.00" />
    <line x1="159.85" y1="214.11" x2="152.51" y2="201.99" stroke="#2d5a1b" stroke-width="10.33" />
    <line x1="152.10" y1="201.74" x2="139.37" y2="195.63" stroke="#2d5a1b" stroke-width="10.33" />
    <line x1="159.85" y1="214.11" x2="152.51" y2="201.99" stroke="#2d5a1b" stroke-width="10.33" />
    <line x1="152.10" y1="201.74" x2="153.17" y2="191.52" stroke="#2d5a1b" stroke-width="5.67" />
    <line x1="153.12" y1="191.58" x2="160.22" y2="184.12" stroke="#2d5a1b" stroke-width="5.67" />
    <line x1="152.10" y1="201.74" x2="144.76" y2="189.62" stroke="#2d5a1b" stroke-width="10.33" />
    <line x1="144.34" y1="189.38" x2="134.79" y2="185.82" stroke="#2d5a1b" stroke-width="5.67" />
    <line x1="134.74" y1="185.88" x2="125.07" y2="188.95" stroke="#2d5a1b" stroke-width="5.67" />
    <line x1="144.34" y1="189.38" x2="131.62" y2="183.27" stroke="#2d5a1b" stroke-width="10.33" />
    <line x1="131.20" y1="183.03" x2="126.72" y2="173.81" stroke="#2d5a1b" stroke-width="5.67" />
    <line x1="126.67" y1="173.88" x2="128.76" y2="163.80" stroke="#2d5a1b" stroke-width="5.67" />
    <line x1="131.20" y1="183.03" x2="118.48" y2="176.92" stroke="#2d5a1b" stroke-width="10.33" />
    <line x1="118.06" y1="176.68" x2="108.12" y2="178.75" stroke="#2d5a1b" stroke-width="5.67" />
    <line x1="108.07" y1="178.81" x2="101.54" y2="186.57" stroke="#2d5a1b" stroke-width="5.67" />
    <line x1="159.85" y1="214.11" x2="168.02" y2="201.99" stroke="#2d5a1b" stroke-width="10.33" />
    <line x1="167.61" y1="201.74" x2="177.25" y2="198.18" stroke="#2d5a1b" stroke-width="5.67" />
    <line x1="177.20" y1="198.24" x2="186.98" y2="201.31" stroke="#2d5a1b" stroke-width="5.67" />
    <line x1="167.61" y1="201.74" x2="175.78" y2="189.62" stroke="#2d5a1b" stroke-width="10.33" />
    <line x1="175.36" y1="189.38" x2="174.39" y2="179.16" stroke="#2d5a1b" stroke-width="5.67" />
    <line x1="174.34" y1="179.22" x2="167.34" y2="171.76" stroke="#2d5a1b" stroke-width="5.67" />
    <line x1="175.36" y1="189.38" x2="185.01" y2="185.82" stroke="#2d5a1b" stroke-width="5.67" />
    <line x1="184.96" y1="185.88" x2="191.86" y2="187.76" stroke="#2d5a1b" stroke-width="1.00" />
    <line x1="191.86" y1="187.76" x2="196.41" y2="193.27" stroke="#2d5a1b" stroke-width="1.00" />
    <line x1="184.96" y1="185.88" x2="194.60" y2="182.32" stroke="#2d5a1b" stroke-width="5.67" />
    <line x1="194.56" y1="182.38" x2="198.63" y2="176.50" stroke="#2d5a1b" stroke-width="1.00" />
    <line x1="198.63" y1="176.50" x2="198.56" y2="169.35" stroke="#2d5a1b" stroke-width="1.00" />
    <line x1="194.56" y1="182.38" x2="204.33" y2="185.45" stroke="#2d5a1b" stroke-width="5.67" />
    <line x1="204.28" y1="185.51" x2="208.58" y2="191.22" stroke="#2d5a1b" stroke-width="1.00" />
    <line x1="208.58" y1="191.22" x2="208.79" y2="198.37" stroke="#2d5a1b" stroke-width="1.00" />
    <line x1="204.28" y1="185.51" x2="214.06" y2="188.57" stroke="#2d5a1b" stroke-width="5.67" />
    <line x1="214.01" y1="188.64" x2="220.83" y2="186.49" stroke="#2d5a1b" stroke-width="1.00" />
    <line x1="220.83" y1="186.49" x2="225.17" y2="180.81" stroke="#2d5a1b" stroke-width="1.00" />
    <line x1="175.36" y1="189.38" x2="183.53" y2="177.26" stroke="#2d5a1b" stroke-width="10.33" />
    <line x1="183.12" y1="177.02" x2="192.76" y2="173.46" stroke="#2d5a1b" stroke-width="5.67" />
    <line x1="192.71" y1="173.52" x2="202.49" y2="176.58" stroke="#2d5a1b" stroke-width="5.67" />
    <line x1="183.12" y1="177.02" x2="191.29" y2="164.90" stroke="#2d5a1b" stroke-width="10.33" />
    <line x1="190.87" y1="164.66" x2="189.90" y2="154.43" stroke="#2d5a1b" stroke-width="5.67" />
    <line x1="189.85" y1="154.49" x2="182.85" y2="147.04" stroke="#2d5a1b" stroke-width="5.67" />
    <line x1="190.87" y1="164.66" x2="189.90" y2="154.43" stroke="#2d5a1b" stroke-width="5.67" />
    <line x1="189.85" y1="154.49" x2="193.37" y2="148.27" stroke="#2d5a1b" stroke-width="1.00" />
    <line x1="193.37" y1="148.27" x2="199.83" y2="145.22" stroke="#2d5a1b" stroke-width="1.00" />
    <line x1="189.85" y1="154.49" x2="188.87" y2="144.27" stroke="#2d5a1b" stroke-width="5.67" />
    <line x1="188.82" y1="144.33" x2="184.13" y2="138.93" stroke="#2d5a1b" stroke-width="1.00" />
    <line x1="184.13" y1="138.93" x2="177.18" y2="137.23" stroke="#2d5a1b" stroke-width="1.00" />
    <line x1="188.82" y1="144.33" x2="181.82" y2="136.87" stroke="#2d5a1b" stroke-width="5.67" />
    <line x1="181.77" y1="136.93" x2="180.73" y2="129.86" stroke="#2d5a1b" stroke-width="1.00" />
    <line x1="180.73" y1="129.86" x2="183.96" y2="123.48" stroke="#2d5a1b" stroke-width="1.00" />
    <line x1="181.77" y1="136.93" x2="174.77" y2="129.48" stroke="#2d5a1b" stroke-width="5.67" />
    <line x1="174.73" y1="129.54" x2="167.71" y2="128.16" stroke="#2d5a1b" stroke-width="1.00" />
    <line x1="167.71" y1="128.16" x2="161.18" y2="131.08" stroke="#2d5a1b" stroke-width="1.00" />
    <line x1="190.87" y1="164.66" x2="204.43" y2="158.55" stroke="#2d5a1b" stroke-width="10.33" />
    <line x1="204.01" y1="158.31" x2="214.05" y2="160.38" stroke="#2d5a1b" stroke-width="5.67" />
    <line x1="214.00" y1="160.44" x2="220.63" y2="168.20" stroke="#2d5a1b" stroke-width="5.67" />
    <line x1="204.01" y1="158.31" x2="217.56" y2="152.20" stroke="#2d5a1b" stroke-width="10.33" />
    <line x1="217.15" y1="151.95" x2="221.73" y2="142.74" stroke="#2d5a1b" stroke-width="5.67" />
    <line x1="221.68" y1="142.80" x2="219.69" y2="132.73" stroke="#2d5a1b" stroke-width="5.67" />
    <line x1="217.15" y1="151.95" x2="227.19" y2="154.03" stroke="#2d5a1b" stroke-width="5.67" />
    <line x1="227.14" y1="154.09" x2="231.99" y2="159.35" stroke="#2d5a1b" stroke-width="1.00" />
    <line x1="231.99" y1="159.35" x2="232.92" y2="166.44" stroke="#2d5a1b" stroke-width="1.00" />
    <line x1="227.14" y1="154.09" x2="237.18" y2="156.16" stroke="#2d5a1b" stroke-width="5.67" />
    <line x1="237.13" y1="156.22" x2="243.70" y2="153.41" stroke="#2d5a1b" stroke-width="1.00" />
    <line x1="243.70" y1="153.41" x2="247.45" y2="147.32" stroke="#2d5a1b" stroke-width="1.00" />
    <line x1="237.13" y1="156.22" x2="243.76" y2="163.98" stroke="#2d5a1b" stroke-width="5.67" />
    <line x1="243.71" y1="164.04" x2="244.31" y2="171.17" stroke="#2d5a1b" stroke-width="1.00" />
    <line x1="244.31" y1="171.17" x2="240.69" y2="177.33" stroke="#2d5a1b" stroke-width="1.00" />
    <line x1="243.71" y1="164.04" x2="250.33" y2="171.80" stroke="#2d5a1b" stroke-width="5.67" />
    <line x1="250.28" y1="171.86" x2="257.20" y2="173.67" stroke="#2d5a1b" stroke-width="1.00" />
    <line x1="257.20" y1="173.67" x2="263.90" y2="171.16" stroke="#2d5a1b" stroke-width="1.00" />
    <line x1="217.15" y1="151.95" x2="230.70" y2="145.84" stroke="#2d5a1b" stroke-width="10.33" />
    <line x1="230.29" y1="145.60" x2="240.33" y2="147.68" stroke="#2d5a1b" stroke-width="5.67" />
    <line x1="240.28" y1="147.74" x2="246.91" y2="155.49" stroke="#2d5a1b" stroke-width="5.67" />
    <line x1="230.29" y1="145.60" x2="243.84" y2="139.49" stroke="#2d5a1b" stroke-width="10.33" />
    <line x1="243.43" y1="139.25" x2="248.01" y2="130.03" stroke="#2d5a1b" stroke-width="5.67" />
    <line x1="247.96" y1="130.10" x2="245.97" y2="120.02" stroke="#2d5a1b" stroke-width="5.67" />
    <line x1="243.43" y1="139.25" x2="248.01" y2="130.03" stroke="#2d5a1b" stroke-width="5.67" />
    <line x1="247.96" y1="130.10" x2="254.25" y2="126.69" stroke="#2d5a1b" stroke-width="1.00" />
    <line x1="254.25" y1="126.69" x2="261.35" y2="127.55" stroke="#2d5a1b" stroke-width="1.00" />
    <line x1="247.96" y1="130.10" x2="252.54" y2="120.88" stroke="#2d5a1b" stroke-width="5.67" />
    <line x1="252.49" y1="120.94" x2="251.39" y2="113.88" stroke="#2d5a1b" stroke-width="1.00" />
    <line x1="251.39" y1="113.88" x2="246.41" y2="108.75" stroke="#2d5a1b" stroke-width="1.00" />
    <line x1="252.49" y1="120.94" x2="250.50" y2="110.87" stroke="#2d5a1b" stroke-width="5.67" />
    <line x1="250.45" y1="110.93" x2="253.33" y2="104.39" stroke="#2d5a1b" stroke-width="1.00" />
    <line x1="253.33" y1="104.39" x2="259.46" y2="100.70" stroke="#2d5a1b" stroke-width="1.00" />
    <line x1="250.45" y1="110.93" x2="248.46" y2="100.86" stroke="#2d5a1b" stroke-width="5.67" />
    <line x1="248.41" y1="100.92" x2="243.20" y2="96.02" stroke="#2d5a1b" stroke-width="1.00" />
    <line x1="243.20" y1="96.02" x2="236.12" y2="95.03" stroke="#2d5a1b" stroke-width="1.00" />
    <line x1="159.85" y1="214.11" x2="159.85" y2="193.27" stroke="#2d1a0e" stroke-width="15.00" />
    <line x1="159.85" y1="193.26" x2="168.02" y2="181.14" stroke="#2d5a1b" stroke-width="10.33" />
    <line x1="167.61" y1="180.90" x2="181.16" y2="174.79" stroke="#2d5a1b" stroke-width="10.33" />
    <line x1="159.85" y1="193.26" x2="159.85" y2="172.42" stroke="#2d1a0e" stroke-width="15.00" />
    <line x1="159.85" y1="172.41" x2="152.51" y2="160.29" stroke="#2d5a1b" stroke-width="10.33" />
    <line x1="152.10" y1="160.05" x2="139.37" y2="153.94" stroke="#2d5a1b" stroke-width="10.33" />
    <line x1="159.85" y1="172.41" x2="168.02" y2="160.29" stroke="#2d5a1b" stroke-width="10.33" />
    <line x1="167.61" y1="160.05" x2="177.25" y2="156.49" stroke="#2d5a1b" stroke-width="5.67" />
    <line x1="177.20" y1="156.55" x2="186.98" y2="159.61" stroke="#2d5a1b" stroke-width="5.67" />
    <line x1="167.61" y1="160.05" x2="175.78" y2="147.93" stroke="#2d5a1b" stroke-width="10.33" />
    <line x1="175.36" y1="147.69" x2="174.39" y2="137.46" stroke="#2d5a1b" stroke-width="5.67" />
    <line x1="174.34" y1="137.52" x2="167.34" y2="130.06" stroke="#2d5a1b" stroke-width="5.67" />
    <line x1="175.36" y1="147.69" x2="188.92" y2="141.58" stroke="#2d5a1b" stroke-width="10.33" />
    <line x1="188.50" y1="141.33" x2="198.54" y2="143.41" stroke="#2d5a1b" stroke-width="5.67" />
    <line x1="198.49" y1="143.47" x2="205.12" y2="151.22" stroke="#2d5a1b" stroke-width="5.67" />
    <line x1="188.50" y1="141.33" x2="202.05" y2="135.22" stroke="#2d5a1b" stroke-width="10.33" />
    <line x1="201.64" y1="134.98" x2="206.22" y2="125.77" stroke="#2d5a1b" stroke-width="5.67" />
    <line x1="206.17" y1="125.83" x2="204.18" y2="115.76" stroke="#2d5a1b" stroke-width="5.67" />
    <line x1="159.85" y1="172.41" x2="159.85" y2="151.58" stroke="#2d1a0e" stroke-width="15.00" />
    <line x1="159.85" y1="151.56" x2="168.02" y2="139.44" stroke="#2d5a1b" stroke-width="10.33" />
    <line x1="167.61" y1="139.20" x2="181.16" y2="133.09" stroke="#2d5a1b" stroke-width="10.33" />
    <line x1="159.85" y1="151.56" x2="159.85" y2="130.73" stroke="#2d1a0e" stroke-width="15.00" />
    <line x1="159.85" y1="130.71" x2="152.51" y2="118.59" stroke="#2d5a1b" stroke-width="10.33" />
    <line x1="152.10" y1="118.35" x2="139.37" y2="112.24" stroke="#2d5a1b" stroke-width="10.33" />
    <line x1="159.85" y1="130.71" x2="152.51" y2="118.59" stroke="#2d5a1b" stroke-width="10.33" />
    <line x1="152.10" y1="118.35" x2="153.17" y2="108.13" stroke="#2d5a1b" stroke-width="5.67" />
    <line x1="153.12" y1="108.19" x2="160.22" y2="100.73" stroke="#2d5a1b" stroke-width="5.67" />
    <line x1="152.10" y1="118.35" x2="144.76" y2="106.23" stroke="#2d5a1b" stroke-width="10.33" />
    <line x1="144.34" y1="105.99" x2="134.79" y2="102.43" stroke="#2d5a1b" stroke-width="5.67" />
    <line x1="134.74" y1="102.49" x2="125.07" y2="105.55" stroke="#2d5a1b" stroke-width="5.67" />
    <line x1="144.34" y1="105.99" x2="131.62" y2="99.88" stroke="#2d5a1b" stroke-width="10.33" />
    <line x1="131.20" y1="99.64" x2="126.72" y2="90.42" stroke="#2d5a1b" stroke-width="5.67" />
    <line x1="126.67" y1="90.48" x2="128.76" y2="80.41" stroke="#2d5a1b" stroke-width="5.67" />
    <line x1="131.20" y1="99.64" x2="118.48" y2="93.53" stroke="#2d5a1b" stroke-width="10.33" />
    <line x1="118.06" y1="93.29" x2="108.12" y2="95.36" stroke="#2d5a1b" stroke-width="5.67" />
    <line x1="108.07" y1="95.42" x2="101.54" y2="103.18" stroke="#2d5a1b" stroke-width="5.67" />
    <line x1="159.85" y1="130.71" x2="152.51" y2="118.59" stroke="#2d5a1b" stroke-width="10.33" />
    <line x1="152.10" y1="118.35" x2="153.17" y2="108.13" stroke="#2d5a1b" stroke-width="5.67" />
    <line x1="153.12" y1="108.19" x2="160.22" y2="100.73" stroke="#2d5a1b" stroke-width="5.67" />
    <line x1="152.10" y1="118.35" x2="144.76" y2="106.23" stroke="#2d5a1b" stroke-width="10.33" />
    <line x1="144.34" y1="105.99" x2="134.79" y2="102.43" stroke="#2d5a1b" stroke-width="5.67" />
    <line x1="134.74" y1="102.49" x2="125.07" y2="105.55" stroke="#2d5a1b" stroke-width="5.67" />
    <line x1="144.34" y1="105.99" x2="145.42" y2="95.76" stroke="#2d5a1b" stroke-width="5.67" />
    <line x1="145.37" y1="95.83" x2="150.06" y2="90.43" stroke="#2d5a1b" stroke-width="1.00" />
    <line x1="150.06" y1="90.43" x2="157.00" y2="88.73" stroke="#2d5a1b" stroke-width="1.00" />
    <line x1="145.37" y1="95.83" x2="146.44" y2="85.60" stroke="#2d5a1b" stroke-width="5.67" />
    <line x1="146.39" y1="85.66" x2="142.87" y2="79.44" stroke="#2d5a1b" stroke-width="1.00" />
    <line x1="142.87" y1="79.44" x2="136.40" y2="76.38" stroke="#2d5a1b" stroke-width="1.00" />
    <line x1="146.39" y1="85.66" x2="153.49" y2="78.20" stroke="#2d5a1b" stroke-width="5.67" />
    <line x1="153.44" y1="78.27" x2="160.46" y2="76.89" stroke="#2d5a1b" stroke-width="1.00" />
    <line x1="160.46" y1="76.89" x2="166.98" y2="79.81" stroke="#2d5a1b" stroke-width="1.00" />
    <line x1="153.44" y1="78.27" x2="160.54" y2="70.81" stroke="#2d5a1b" stroke-width="5.67" />
    <line x1="160.49" y1="70.87" x2="161.53" y2="63.80" stroke="#2d5a1b" stroke-width="1.00" />
    <line x1="161.53" y1="63.80" x2="158.30" y2="57.42" stroke="#2d5a1b" stroke-width="1.00" />
    <line x1="144.34" y1="105.99" x2="137.00" y2="93.87" stroke="#2d5a1b" stroke-width="10.33" />
    <line x1="136.59" y1="93.63" x2="137.66" y2="83.40" stroke="#2d5a1b" stroke-width="5.67" />
    <line x1="137.61" y1="83.46" x2="144.71" y2="76.01" stroke="#2d5a1b" stroke-width="5.67" />
    <line x1="136.59" y1="93.63" x2="129.24" y2="81.51" stroke="#2d5a1b" stroke-width="10.33" />
    <line x1="128.83" y1="81.26" x2="119.28" y2="77.70" stroke="#2d5a1b" stroke-width="5.67" />
    <line x1="119.23" y1="77.76" x2="109.56" y2="80.83" stroke="#2d5a1b" stroke-width="5.67" />
    <line x1="128.83" y1="81.26" x2="119.28" y2="77.70" stroke="#2d5a1b" stroke-width="5.67" />
    <line x1="119.23" y1="77.76" x2="115.16" y2="71.89" stroke="#2d5a1b" stroke-width="1.00" />
    <line x1="115.16" y1="71.89" x2="115.23" y2="64.74" stroke="#2d5a1b" stroke-width="1.00" />
    <line x1="119.23" y1="77.76" x2="109.68" y2="74.20" stroke="#2d5a1b" stroke-width="5.67" />
    <line x1="109.64" y1="74.26" x2="102.73" y2="76.14" stroke="#2d5a1b" stroke-width="1.00" />
    <line x1="102.73" y1="76.14" x2="98.18" y2="81.65" stroke="#2d5a1b" stroke-width="1.00" />
    <line x1="109.64" y1="74.26" x2="99.96" y2="77.33" stroke="#2d5a1b" stroke-width="5.67" />
    <line x1="99.91" y1="77.39" x2="93.09" y2="75.25" stroke="#2d5a1b" stroke-width="1.00" />
    <line x1="93.09" y1="75.25" x2="88.75" y2="69.56" stroke="#2d5a1b" stroke-width="1.00" />
    <line x1="99.91" y1="77.39" x2="90.23" y2="80.46" stroke="#2d5a1b" stroke-width="5.67" />
    <line x1="90.18" y1="80.52" x2="85.89" y2="86.23" stroke="#2d5a1b" stroke-width="1.00" />
    <line x1="85.89" y1="86.23" x2="85.68" y2="93.38" stroke="#2d5a1b" stroke-width="1.00" />
    <line x1="128.83" y1="81.26" x2="116.11" y2="75.15" stroke="#2d5a1b" stroke-width="10.33" />
    <line x1="115.69" y1="74.91" x2="111.21" y2="65.70" stroke="#2d5a1b" stroke-width="5.67" />
    <line x1="111.16" y1="65.76" x2="113.25" y2="55.69" stroke="#2d5a1b" stroke-width="5.67" />
    <line x1="115.69" y1="74.91" x2="102.97" y2="68.80" stroke="#2d5a1b" stroke-width="10.33" />
    <line x1="102.55" y1="68.56" x2="92.61" y2="70.63" stroke="#2d5a1b" stroke-width="5.67" />
    <line x1="92.56" y1="70.70" x2="86.03" y2="78.45" stroke="#2d5a1b" stroke-width="5.67" />
    <line x1="102.55" y1="68.56" x2="98.07" y2="59.34" stroke="#2d5a1b" stroke-width="5.67" />
    <line x1="98.02" y1="59.41" x2="99.13" y2="52.34" stroke="#2d5a1b" stroke-width="1.00" />
    <line x1="99.13" y1="52.34" x2="104.11" y2="47.21" stroke="#2d5a1b" stroke-width="1.00" />
    <line x1="98.02" y1="59.41" x2="93.54" y2="50.19" stroke="#2d5a1b" stroke-width="5.67" />
    <line x1="93.49" y1="50.25" x2="87.20" y2="46.85" stroke="#2d5a1b" stroke-width="1.00" />
    <line x1="87.20" y1="46.85" x2="80.10" y2="47.70" stroke="#2d5a1b" stroke-width="1.00" />
    <line x1="93.49" y1="50.25" x2="95.58" y2="40.18" stroke="#2d5a1b" stroke-width="5.67" />
    <line x1="95.53" y1="40.24" x2="100.74" y2="35.34" stroke="#2d5a1b" stroke-width="1.00" />
    <line x1="100.74" y1="35.34" x2="107.82" y2="34.35" stroke="#2d5a1b" stroke-width="1.00" />
    <line x1="95.53" y1="40.24" x2="97.62" y2="30.17" stroke="#2d5a1b" stroke-width="5.67" />
    <line x1="97.57" y1="30.23" x2="94.69" y2="23.69" stroke="#2d5a1b" stroke-width="1.00" />
    <line x1="94.69" y1="23.69" x2="88.56" y2="20.00" stroke="#2d5a1b" stroke-width="1.00" />
    <line x1="102.55" y1="68.56" x2="89.83" y2="62.45" stroke="#2d5a1b" stroke-width="10.33" />
    <line x1="89.41" y1="62.21" x2="84.93" y2="52.99" stroke="#2d5a1b" stroke-width="5.67" />
    <line x1="84.88" y1="53.06" x2="86.97" y2="42.98" stroke="#2d5a1b" stroke-width="5.67" />
    <line x1="89.41" y1="62.21" x2="76.69" y2="56.10" stroke="#2d5a1b" stroke-width="10.33" />
    <line x1="76.27" y1="55.86" x2="66.33" y2="57.93" stroke="#2d5a1b" stroke-width="5.67" />
    <line x1="66.28" y1="57.99" x2="59.76" y2="65.75" stroke="#2d5a1b" stroke-width="5.67" />
    <line x1="76.27" y1="55.86" x2="66.33" y2="57.93" stroke="#2d5a1b" stroke-width="5.67" />
    <line x1="66.28" y1="57.99" x2="59.71" y2="55.18" stroke="#2d5a1b" stroke-width="1.00" />
    <line x1="59.71" y1="55.18" x2="55.97" y2="49.09" stroke="#2d5a1b" stroke-width="1.00" />
    <line x1="66.28" y1="57.99" x2="56.34" y2="60.07" stroke="#2d5a1b" stroke-width="5.67" />
    <line x1="56.29" y1="60.13" x2="51.44" y2="65.39" stroke="#2d5a1b" stroke-width="1.00" />
    <line x1="51.44" y1="65.39" x2="50.52" y2="72.48" stroke="#2d5a1b" stroke-width="1.00" />
    <line x1="56.29" y1="60.13" x2="49.77" y2="67.88" stroke="#2d5a1b" stroke-width="5.67" />
    <line x1="49.72" y1="67.95" x2="42.80" y2="69.76" stroke="#2d5a1b" stroke-width="1.00" />
    <line x1="42.80" y1="69.76" x2="36.10" y2="67.25" stroke="#2d5a1b" stroke-width="1.00" />
    <line x1="49.72" y1="67.95" x2="43.19" y2="75.70" stroke="#2d5a1b" stroke-width="5.67" />
    <line x1="43.14" y1="75.76" x2="42.54" y2="82.89" stroke="#2d5a1b" stroke-width="1.00" />
    <line x1="42.54" y1="82.89" x2="46.16" y2="89.06" stroke="#2d5a1b" stroke-width="1.00" />
  </g>
  <polygon points="384.92,186.50 385.92,197.61 385.67,208.74 384.16,219.77 381.65,230.62 378.39,241.24 374.27,251.54 369.37,261.47 363.61,270.90 357.00,279.75 349.85,288.06 342.37,295.90 334.52,303.21 326.25,309.91 317.70,316.04 309.02,321.70 300.16,326.81 291.07,331.28 281.76,335.05 272.41,338.27 263.31,341.33 254.32,344.11 245.36,346.48 236.35,348.25 227.36,349.47 218.58,350.63 209.97,351.72 201.48,352.71 193.06,353.45 184.68,353.87 176.37,354.18 168.10,354.51 159.85,354.76 151.58,354.80 143.29,354.66 134.94,354.41 126.52,354.09 118.01,353.52 109.54,352.35 101.13,350.60 92.54,349.01 83.64,347.62 74.66,345.88 65.84,343.35 57.00,340.43 47.85,337.51 38.63,334.21 29.66,330.14 21.15,325.20 12.93,319.66 5.41,313.25 -1.68,306.30 -9.28,299.51 -17.12,292.57 -24.39,284.98 -30.39,276.48 -35.55,267.44 -40.76,258.28 -45.49,248.79 -49.27,238.88 -51.95,228.63 -53.86,218.20 -54.81,207.64 -55.12,197.06 -55.47,186.50 -55.51,175.92 -54.23,165.41 -51.45,155.16 -48.47,145.06 -45.71,135.01 -42.26,125.19 -37.26,115.97 -31.05,107.43 -24.78,99.18 -17.99,91.44 -10.81,84.21 -3.86,77.11 3.18,70.31 10.75,64.13 19.31,59.12 28.54,55.19 37.60,51.62 46.39,48.24 54.88,44.96 63.21,41.86 71.49,39.08 79.83,36.79 88.16,34.93 96.35,33.19 104.46,31.70 112.62,30.80 120.75,30.40 128.64,29.60 136.36,28.16 144.13,26.86 151.98,26.23 159.85,26.11 167.74,25.95 175.63,26.30 183.49,27.10 191.45,27.63 199.58,27.91 207.75,28.60 215.73,30.34 223.50,32.84 231.43,35.15 239.48,37.52 247.80,39.77 256.83,41.36 266.36,42.88 275.96,45.02 284.96,48.46 293.17,53.18 301.20,58.39 308.69,64.35 315.93,70.75 323.84,76.93 332.16,83.22 339.86,90.28 346.32,98.31 352.18,106.83 358.08,115.57 362.81,124.93 366.03,134.85 369.07,144.88 372.41,154.97 374.96,165.31 375.64,175.90" fill="#2d5a1b" opacity="0.18" />
</svg>