<svg xmlns="http://www.w3.org/2000/svg" viewBox="0 0 300 350" width="300" height="350">
  <defs />
  <rect width="100%" height="100%" fill="none" />
  <rect x="142.50" y="322.00" width="15.00" height="28.00" fill="#2d1a0e" rx="2.25" />
  <g stroke-linecap="round" stroke-linejoin="round">
    <line x1="150.00" y1="322.00" x2="150.00" y2="261.64" stroke="#2d1a0e" stroke-width="17.50" />
    <line x1="150.00" y1="261.60" x2="180.86" y2="244.49" stroke="#2d5a1b" stroke-width="13.38" />
    <line x1="178.68" y1="243.68" x2="195.71" y2="251.89" stroke="#2d5a1b" stroke-width="9.25" />
    <line x1="195.71" y1="251.98" x2="197.02" y2="262.24" stroke="#2d5a1b" stroke-width="5.12" />
    <line x1="196.82" y1="262.53" x2="192.14" y2="266.19" stroke="#2d5a1b" stroke-width="1.00" />
    <line x1="192.14" y1="266.19" x2="187.46" y2="269.84" stroke="#2d5a1b" stroke-width="1.00" />
    <line x1="196.82" y1="262.53" x2="202.16" y2="265.13" stroke="#2d5a1b" stroke-width="1.00" />
    <line x1="202.16" y1="265.13" x2="207.50" y2="267.74" stroke="#2d5a1b" stroke-width="1.00" />
    <line x1="196.82" y1="262.53" x2="198.13" y2="272.79" stroke="#2d5a1b" stroke-width="5.12" />
    <line x1="197.93" y1="273.08" x2="193.25" y2="276.73" stroke="#2d5a1b" stroke-width="1.00" />
    <line x1="193.25" y1="276.73" x2="188.56" y2="280.39" stroke="#2d5a1b" stroke-width="1.00" />
    <line x1="197.93" y1="273.08" x2="203.27" y2="275.68" stroke="#2d5a1b" stroke-width="1.00" />
    <line x1="203.27" y1="275.68" x2="208.60" y2="278.29" stroke="#2d5a1b" stroke-width="1.00" />
    <line x1="195.71" y1="251.98" x2="204.91" y2="246.07" stroke="#2d5a1b" stroke-width="5.12" />
    <line x1="204.70" y1="246.36" x2="210.04" y2="248.96" stroke="#2d5a1b" stroke-width="1.00" />
    <line x1="210.04" y1="248.96" x2="215.38" y2="251.57" stroke="#2d5a1b" stroke-width="1.00" />
    <line x1="204.70" y1="246.36" x2="204.70" y2="240.42" stroke="#2d5a1b" stroke-width="1.00" />
    <line x1="204.70" y1="240.42" x2="204.70" y2="234.48" stroke="#2d5a1b" stroke-width="1.00" />
    <line x1="204.70" y1="246.36" x2="213.91" y2="240.45" stroke="#2d5a1b" stroke-width="5.12" />
    <line x1="213.70" y1="240.74" x2="219.04" y2="243.34" stroke="#2d5a1b" stroke-width="1.00" />
    <line x1="219.04" y1="243.34" x2="224.38" y2="245.95" stroke="#2d5a1b" stroke-width="1.00" />
    <line x1="213.70" y1="240.74" x2="213.70" y2="234.80" stroke="#2d5a1b" stroke-width="1.00" />
    <line x1="213.70" y1="234.80" x2="213.70" y2="228.86" stroke="#2d5a1b" stroke-width="1.00" />
    <line x1="195.71" y1="251.98" x2="212.73" y2="260.20" stroke="#2d5a1b" stroke-width="9.25" />
    <line x1="212.73" y1="260.28" x2="214.05" y2="270.54" stroke="#2d5a1b" stroke-width="5.12" />
    <line x1="213.84" y1="270.83" x2="209.16" y2="274.49" stroke="#2d5a1b" stroke-width="1.00" />
    <line x1="209.16" y1="274.49" x2="204.48" y2="278.15" stroke="#2d5a1b" stroke-width="1.00" />
    <line x1="213.84" y1="270.83" x2="219.18" y2="273.44" stroke="#2d5a1b" stroke-width="1.00" />
    <line x1="219.18" y1="273.44" x2="224.52" y2="276.04" stroke="#2d5a1b" stroke-width="1.00" />
    <line x1="213.84" y1="270.83" x2="215.16" y2="281.09" stroke="#2d5a1b" stroke-width="5.12" />
    <line x1="214.95" y1="281.38" x2="210.27" y2="285.04" stroke="#2d5a1b" stroke-width="1.00" />
    <line x1="210.27" y1="285.04" x2="205.59" y2="288.70" stroke="#2d5a1b" stroke-width="1.00" />
    <line x1="214.95" y1="281.38" x2="220.29" y2="283.98" stroke="#2d5a1b" stroke-width="1.00" />
    <line x1="220.29" y1="283.98" x2="225.63" y2="286.59" stroke="#2d5a1b" stroke-width="1.00" />
    <line x1="212.73" y1="260.28" x2="221.94" y2="254.37" stroke="#2d5a1b" stroke-width="5.12" />
    <line x1="221.73" y1="254.66" x2="227.07" y2="257.27" stroke="#2d5a1b" stroke-width="1.00" />
    <line x1="227.07" y1="257.27" x2="232.41" y2="259.87" stroke="#2d5a1b" stroke-width="1.00" />
    <line x1="221.73" y1="254.66" x2="221.73" y2="248.72" stroke="#2d5a1b" stroke-width="1.00" />
    <line x1="221.73" y1="248.72" x2="221.73" y2="242.78" stroke="#2d5a1b" stroke-width="1.00" />
    <line x1="221.73" y1="254.66" x2="230.93" y2="248.75" stroke="#2d5a1b" stroke-width="5.12" />
    <line x1="230.72" y1="249.04" x2="236.06" y2="251.64" stroke="#2d5a1b" stroke-width="1.00" />
    <line x1="236.06" y1="251.64" x2="241.40" y2="254.25" stroke="#2d5a1b" stroke-width="1.00" />
    <line x1="230.72" y1="249.04" x2="230.72" y2="243.10" stroke="#2d5a1b" stroke-width="1.00" />
    <line x1="230.72" y1="243.10" x2="230.72" y2="237.16" stroke="#2d5a1b" stroke-width="1.00" />
    <line x1="178.68" y1="243.68" x2="178.68" y2="224.65" stroke="#2d5a1b" stroke-width="9.25" />
    <line x1="178.68" y1="224.73" x2="187.89" y2="218.82" stroke="#2d5a1b" stroke-width="5.12" />
    <line x1="187.68" y1="219.11" x2="193.02" y2="221.72" stroke="#2d5a1b" stroke-width="1.00" />
    <line x1="193.02" y1="221.72" x2="198.36" y2="224.32" stroke="#2d5a1b" stroke-width="1.00" />
    <line x1="187.68" y1="219.11" x2="187.68" y2="213.17" stroke="#2d5a1b" stroke-width="1.00" />
    <line x1="187.68" y1="213.17" x2="187.68" y2="207.23" stroke="#2d5a1b" stroke-width="1.00" />
    <line x1="187.68" y1="219.11" x2="196.88" y2="213.20" stroke="#2d5a1b" stroke-width="5.12" />
    <line x1="196.68" y1="213.49" x2="202.01" y2="216.10" stroke="#2d5a1b" stroke-width="1.00" />
    <line x1="202.01" y1="216.10" x2="207.35" y2="218.70" stroke="#2d5a1b" stroke-width="1.00" />
    <line x1="196.68" y1="213.49" x2="196.68" y2="207.55" stroke="#2d5a1b" stroke-width="1.00" />
    <line x1="196.68" y1="207.55" x2="196.68" y2="201.61" stroke="#2d5a1b" stroke-width="1.00" />
    <line x1="178.68" y1="224.73" x2="169.90" y2="218.82" stroke="#2d5a1b" stroke-width="5.12" />
    <line x1="169.69" y1="219.11" x2="169.69" y2="213.17" stroke="#2d5a1b" stroke-width="1.00" />
    <line x1="169.69" y1="213.17" x2="169.69" y2="207.23" stroke="#2d5a1b" stroke-width="1.00" />
    <line x1="169.69" y1="219.11" x2="164.35" y2="221.72" stroke="#2d5a1b" stroke-width="1.00" />
    <line x1="164.35" y1="221.72" x2="159.01" y2="224.32" stroke="#2d5a1b" stroke-width="1.00" />
    <line x1="169.69" y1="219.11" x2="160.90" y2="213.20" stroke="#2d5a1b" stroke-width="5.12" />
    <line x1="160.69" y1="213.49" x2="160.69" y2="207.55" stroke="#2d5a1b" stroke-width="1.00" />
    <line x1="160.69" y1="207.55" x2="160.69" y2="201.61" stroke="#2d5a1b" stroke-width="1.00" />
    <line x1="160.69" y1="213.49" x2="155.35" y2="216.10" stroke="#2d5a1b" stroke-width="1.00" />
    <line x1="155.35" y1="216.10" x2="150.02" y2="218.70" stroke="#2d5a1b" stroke-width="1.00" />
    <line x1="178.68" y1="224.73" x2="178.68" y2="205.71" stroke="#2d5a1b" stroke-width="9.25" />
    <line x1="178.68" y1="205.79" x2="187.89" y2="199.88" stroke="#2d5a1b" stroke-width="5.12" />
    <line x1="187.68" y1="200.17" x2="193.02" y2="202.78" stroke="#2d5a1b" stroke-width="1.00" />
    <line x1="193.02" y1="202.78" x2="198.36" y2="205.38" stroke="#2d5a1b" stroke-width="1.00" />
    <line x1="187.68" y1="200.17" x2="187.68" y2="194.23" stroke="#2d5a1b" stroke-width="1.00" />
    <line x1="187.68" y1="194.23" x2="187.68" y2="188.29" stroke="#2d5a1b" stroke-width="1.00" />
    <line x1="187.68" y1="200.17" x2="196.88" y2="194.26" stroke="#2d5a1b" stroke-width="5.12" />
    <line x1="196.68" y1="194.55" x2="202.01" y2="197.16" stroke="#2d5a1b" stroke-width="1.00" />
    <line x1="202.01" y1="197.16" x2="207.35" y2="199.76" stroke="#2d5a1b" stroke-width="1.00" />
    <line x1="196.68" y1="194.55" x2="196.68" y2="188.61" stroke="#2d5a1b" stroke-width="1.00" />
    <line x1="196.68" y1="188.61" x2="196.68" y2="182.67" stroke="#2d5a1b" stroke-width="1.00" />
    <line x1="178.68" y1="205.79" x2="169.90" y2="199.88" stroke="#2d5a1b" stroke-width="5.12" />
    <line x1="169.69" y1="200.17" x2="169.69" y2="194.23" stroke="#2d5a1b" stroke-width="1.00" />
    <line x1="169.69" y1="194.23" x2="169.69" y2="188.29" stroke="#2d5a1b" stroke-width="1.00" />
    <line x1="169.69" y1="200.17" x2="164.35" y2="202.78" stroke="#2d5a1b" stroke-width="1.00" />
    <line x1="164.35" y1="202.78" x2="159.01" y2="205.38" stroke="#2d5a1b" stroke-width="1.00" />
    <line x1="169.69" y1="200.17" x2="160.90" y2="194.26" stroke="#2d5a1b" stroke-width="5.12" />
    <line x1="160.69" y1="194.55" x2="160.69" y2="188.61" stroke="#2d5a1b" stroke-width="1.00" />
    <line x1="160.69" y1="188.61" x2="160.69" y2="182.67" stroke="#2d5a1b" stroke-width="1.00" />
    <line x1="160.69" y1="194.55" x2="155.35" y2="197.16" stroke="#2d5a1b" stroke-width="1.00" />
    <line x1="155.35" y1="197.16" x2="150.02" y2="199.76" stroke="#2d5a1b" stroke-width="1.00" />
    <line x1="178.68" y1="243.68" x2="209.54" y2="226.57" stroke="#2d5a1b" stroke-width="13.38" />
    <line x1="207.37" y1="225.75" x2="224.39" y2="233.97" stroke="#2d5a1b" stroke-width="9.25" />
    <line x1="224.39" y1="234.06" x2="225.71" y2="244.32" stroke="#2d5a1b" stroke-width="5.12" />
    <line x1="225.50" y1="244.60" x2="220.82" y2="248.26" stroke="#2d5a1b" stroke-width="1.00" />
    <line x1="220.82" y1="248.26" x2="216.14" y2="251.92" stroke="#2d5a1b" stroke-width="1.00" />
    <line x1="225.50" y1="244.60" x2="230.84" y2="247.21" stroke="#2d5a1b" stroke-width="1.00" />
    <line x1="230.84" y1="247.21" x2="236.18" y2="249.81" stroke="#2d5a1b" stroke-width="1.00" />
    <line x1="225.50" y1="244.60" x2="226.82" y2="254.86" stroke="#2d5a1b" stroke-width="5.12" />
    <line x1="226.61" y1="255.15" x2="221.93" y2="258.81" stroke="#2d5a1b" stroke-width="1.00" />
    <line x1="221.93" y1="258.81" x2="217.25" y2="262.47" stroke="#2d5a1b" stroke-width="1.00" />
    <line x1="226.61" y1="255.15" x2="231.95" y2="257.76" stroke="#2d5a1b" stroke-width="1.00" />
    <line x1="231.95" y1="257.76" x2="237.29" y2="260.36" stroke="#2d5a1b" stroke-width="1.00" />
    <line x1="224.39" y1="234.06" x2="233.60" y2="228.15" stroke="#2d5a1b" stroke-width="5.12" />
    <line x1="233.39" y1="228.43" x2="238.73" y2="231.04" stroke="#2d5a1b" stroke-width="1.00" />
    <line x1="238.73" y1="231.04" x2="244.07" y2="233.64" stroke="#2d5a1b" stroke-width="1.00" />
    <line x1="233.39" y1="228.43" x2="233.39" y2="222.49" stroke="#2d5a1b" stroke-width="1.00" />
    <line x1="233.39" y1="222.49" x2="233.39" y2="216.55" stroke="#2d5a1b" stroke-width="1.00" />
    <line x1="233.39" y1="228.43" x2="242.59" y2="222.52" stroke="#2d5a1b" stroke-width="5.12" />
    <line x1="242.38" y1="222.81" x2="247.72" y2="225.42" stroke="#2d5a1b" stroke-width="1.00" />
    <line x1="247.72" y1="225.42" x2="253.06" y2="228.02" stroke="#2d5a1b" stroke-width="1.00" />
    <line x1="242.38" y1="222.81" x2="242.38" y2="216.87" stroke="#2d5a1b" stroke-width="1.00" />
    <line x1="242.38" y1="216.87" x2="242.38" y2="210.93" stroke="#2d5a1b" stroke-width="1.00" />
    <line x1="224.39" y1="234.06" x2="241.42" y2="242.27" stroke="#2d5a1b" stroke-width="9.25" />
    <line x1="241.42" y1="242.36" x2="242.73" y2="252.62" stroke="#2d5a1b" stroke-width="5.12" />
    <line x1="242.53" y1="252.91" x2="237.85" y2="256.56" stroke="#2d5a1b" stroke-width="1.00" />
    <line x1="237.85" y1="256.56" x2="233.16" y2="260.22" stroke="#2d5a1b" stroke-width="1.00" />
    <line x1="242.53" y1="252.91" x2="247.87" y2="255.51" stroke="#2d5a1b" stroke-width="1.00" />
    <line x1="247.87" y1="255.51" x2="253.20" y2="258.12" stroke="#2d5a1b" stroke-width="1.00" />
    <line x1="242.53" y1="252.91" x2="243.84" y2="263.17" stroke="#2d5a1b" stroke-width="5.12" />
    <line x1="243.64" y1="263.46" x2="238.95" y2="267.11" stroke="#2d5a1b" stroke-width="1.00" />
    <line x1="238.95" y1="267.11" x2="234.27" y2="270.77" stroke="#2d5a1b" stroke-width="1.00" />
    <line x1="243.64" y1="263.46" x2="248.97" y2="266.06" stroke="#2d5a1b" stroke-width="1.00" />
    <line x1="248.97" y1="266.06" x2="254.31" y2="268.66" stroke="#2d5a1b" stroke-width="1.00" />
    <line x1="241.42" y1="242.36" x2="250.62" y2="236.45" stroke="#2d5a1b" stroke-width="5.12" />
    <line x1="250.41" y1="236.74" x2="255.75" y2="239.34" stroke="#2d5a1b" stroke-width="1.00" />
    <line x1="255.75" y1="239.34" x2="261.09" y2="241.95" stroke="#2d5a1b" stroke-width="1.00" />
    <line x1="250.41" y1="236.74" x2="250.41" y2="230.80" stroke="#2d5a1b" stroke-width="1.00" />
    <line x1="250.41" y1="230.80" x2="250.41" y2="224.86" stroke="#2d5a1b" stroke-width="1.00" />
    <line x1="250.41" y1="236.74" x2="259.62" y2="230.83" stroke="#2d5a1b" stroke-width="5.12" />
    <line x1="259.41" y1="231.12" x2="264.75" y2="233.72" stroke="#2d5a1b" stroke-width="1.00" />
    <line x1="264.75" y1="233.72" x2="270.09" y2="236.32" stroke="#2d5a1b" stroke-width="1.00" />
    <line x1="259.41" y1="231.12" x2="259.41" y2="225.18" stroke="#2d5a1b" stroke-width="1.00" />
    <line x1="259.41" y1="225.18" x2="259.41" y2="219.24" stroke="#2d5a1b" stroke-width="1.00" />
    <line x1="207.37" y1="225.75" x2="207.37" y2="206.72" stroke="#2d5a1b" stroke-width="9.25" />
    <line x1="207.37" y1="206.81" x2="216.57" y2="200.90" stroke="#2d5a1b" stroke-width="5.12" />
    <line x1="216.36" y1="201.19" x2="221.70" y2="203.79" stroke="#2d5a1b" stroke-width="1.00" />
    <line x1="221.70" y1="203.79" x2="227.04" y2="206.40" stroke="#2d5a1b" stroke-width="1.00" />
    <line x1="216.36" y1="201.19" x2="216.36" y2="195.25" stroke="#2d5a1b" stroke-width="1.00" />
    <line x1="216.36" y1="195.25" x2="216.36" y2="189.31" stroke="#2d5a1b" stroke-width="1.00" />
    <line x1="216.36" y1="201.19" x2="225.57" y2="195.28" stroke="#2d5a1b" stroke-width="5.12" />
    <line x1="225.36" y1="195.57" x2="230.70" y2="198.17" stroke="#2d5a1b" stroke-width="1.00" />
    <line x1="230.70" y1="198.17" x2="236.04" y2="200.78" stroke="#2d5a1b" stroke-width="1.00" />
    <line x1="225.36" y1="195.57" x2="225.36" y2="189.63" stroke="#2d5a1b" stroke-width="1.00" />
    <line x1="225.36" y1="189.63" x2="225.36" y2="183.69" stroke="#2d5a1b" stroke-width="1.00" />
    <line x1="207.37" y1="206.81" x2="198.58" y2="200.90" stroke="#2d5a1b" stroke-width="5.12" />
    <line x1="198.37" y1="201.19" x2="198.37" y2="195.25" stroke="#2d5a1b" stroke-width="1.00" />
    <line x1="198.37" y1="195.25" x2="198.37" y2="189.31" stroke="#2d5a1b" stroke-width="1.00" />
    <line x1="198.37" y1="201.19" x2="193.03" y2="203.79" stroke="#2d5a1b" stroke-width="1.00" />
    <line x1="193.03" y1="203.79" x2="187.70" y2="206.40" stroke="#2d5a1b" stroke-width="1.00" />
    <line x1="198.37" y1="201.19" x2="189.59" y2="195.28" stroke="#2d5a1b" stroke-width="5.12" />
    <line x1="189.38" y1="195.57" x2="189.38" y2="189.63" stroke="#2d5a1b" stroke-width="1.00" />
    <line x1="189.38" y1="189.63" x2="189.38" y2="183.69" stroke="#2d5a1b" stroke-width="1.00" />
    <line x1="189.38" y1="195.57" x2="184.04" y2="198.17" stroke="#2d5a1b" stroke-width="1.00" />
    <line x1="184.04" y1="198.17" x2="178.70" y2="200.78" stroke="#2d5a1b" stroke-width="1.00" />
    <line x1="207.37" y1="206.81" x2="207.37" y2="187.78" stroke="#2d5a1b" stroke-width="9.25" />
    <line x1="207.37" y1="187.87" x2="216.57" y2="181.96" stroke="#2d5a1b" stroke-width="5.12" />
    <line x1="216.36" y1="182.25" x2="221.70" y2="184.85" stroke="#2d5a1b" stroke-width="1.00" />
    <line x1="221.70" y1="184.85" x2="227.04" y2="187.46" stroke="#2d5a1b" stroke-width="1.00" />
    <line x1="216.36" y1="182.25" x2="216.36" y2="176.31" stroke="#2d5a1b" stroke-width="1.00" />
    <line x1="216.36" y1="176.31" x2="216.36" y2="170.37" stroke="#2d5a1b" stroke-width="1.00" />
    <line x1="216.36" y1="182.25" x2="225.57" y2="176.34" stroke="#2d5a1b" stroke-width="5.12" />
    <line x1="225.36" y1="176.63" x2="230.70" y2="179.23" stroke="#2d5a1b" stroke-width="1.00" />
    <line x1="230.70" y1="179.23" x2="236.04" y2="181.84" stroke="#2d5a1b" stroke-width="1.00" />
    <line x1="225.36" y1="176.63" x2="225.36" y2="170.69" stroke="#2d5a1b" stroke-width="1.00" />
    <line x1="225.36" y1="170.69" x2="225.36" y2="164.75" stroke="#2d5a1b" stroke-width="1.00" />
    <line x1="207.37" y1="187.87" x2="198.58" y2="181.96" stroke="#2d5a1b" stroke-width="5.12" />
    <line x1="198.37" y1="182.25" x2="198.37" y2="176.31" stroke="#2d5a1b" stroke-width="1.00" />
    <line x1="198.37" y1="176.31" x2="198.37" y2="170.37" stroke="#2d5a1b" stroke-width="1.00" />
    <line x1="198.37" y1="182.25" x2="193.03" y2="184.85" stroke="#2d5a1b" stroke-width="1.00" />
    <line x1="193.03" y1="184.85" x2="187.70" y2="187.46" stroke="#2d5a1b" stroke-width="1.00" />
    <line x1="198.37" y1="182.25" x2="189.59" y2="176.34" stroke="#2d5a1b" stroke-width="5.12" />
    <line x1="189.38" y1="176.63" x2="189.38" y2="170.69" stroke="#2d5a1b" stroke-width="1.00" />
    <line x1="189.38" y1="170.69" x2="189.38" y2="164.75" stroke="#2d5a1b" stroke-width="1.00" />
    <line x1="189.38" y1="176.63" x2="184.04" y2="179.23" stroke="#2d5a1b" stroke-width="1.00" />
    <line x1="184.04" y1="179.23" x2="178.70" y2="181.84" stroke="#2d5a1b" stroke-width="1.00" />
    <line x1="150.00" y1="261.60" x2="123.49" y2="244.49" stroke="#2d5a1b" stroke-width="13.38" />
    <line x1="121.32" y1="243.68" x2="121.32" y2="224.65" stroke="#2d5a1b" stroke-width="9.25" />
    <line x1="121.32" y1="224.73" x2="130.52" y2="218.82" stroke="#2d5a1b" stroke-width="5.12" />
    <line x1="130.31" y1="219.11" x2="135.65" y2="221.72" stroke="#2d5a1b" stroke-width="1.00" />
    <line x1="135.65" y1="221.72" x2="140.99" y2="224.32" stroke="#2d5a1b" stroke-width="1.00" />
    <line x1="130.31" y1="219.11" x2="130.31" y2="213.17" stroke="#2d5a1b" stroke-width="1.00" />
    <line x1="130.31" y1="213.17" x2="130.31" y2="207.23" stroke="#2d5a1b" stroke-width="1.00" />
    <line x1="130.31" y1="219.11" x2="139.51" y2="213.20" stroke="#2d5a1b" stroke-width="5.12" />
    <line x1="139.31" y1="213.49" x2="144.65" y2="216.10" stroke="#2d5a1b" stroke-width="1.00" />
    <line x1="144.65" y1="216.10" x2="149.98" y2="218.70" stroke="#2d5a1b" stroke-width="1.00" />
    <line x1="139.31" y1="213.49" x2="139.31" y2="207.55" stroke="#2d5a1b" stroke-width="1.00" />
    <line x1="139.31" y1="207.55" x2="139.31" y2="201.61" stroke="#2d5a1b" stroke-width="1.00" />
    <line x1="121.32" y1="224.73" x2="112.53" y2="218.82" stroke="#2d5a1b" stroke-width="5.12" />
    <line x1="112.32" y1="219.11" x2="112.32" y2="213.17" stroke="#2d5a1b" stroke-width="1.00" />
    <line x1="112.32" y1="213.17" x2="112.32" y2="207.23" stroke="#2d5a1b" stroke-width="1.00" />
    <line x1="112.32" y1="219.11" x2="106.98" y2="221.72" stroke="#2d5a1b" stroke-width="1.00" />
    <line x1="106.98" y1="221.72" x2="101.64" y2="224.32" stroke="#2d5a1b" stroke-width="1.00" />
    <line x1="112.32" y1="219.11" x2="103.53" y2="213.20" stroke="#2d5a1b" stroke-width="5.12" />
    <line x1="103.32" y1="213.49" x2="103.32" y2="207.55" stroke="#2d5a1b" stroke-width="1.00" />
    <line x1="103.32" y1="207.55" x2="103.32" y2="201.61" stroke="#2d5a1b" stroke-width="1.00" />
    <line x1="103.32" y1="213.49" x2="97.99" y2="216.10" stroke="#2d5a1b" stroke-width="1.00" />
    <line x1="97.99" y1="216.10" x2="92.65" y2="218.70" stroke="#2d5a1b" stroke-width="1.00" />
    <line x1="121.32" y1="224.73" x2="121.32" y2="205.71" stroke="#2d5a1b" stroke-width="9.25" />
    <line x1="121.32" y1="205.79" x2="130.52" y2="199.88" stroke="#2d5a1b" stroke-width="5.12" />
    <line x1="130.31" y1="200.17" x2="135.65" y2="202.78" stroke="#2d5a1b" stroke-width="1.00" />
    <line x1="135.65" y1="202.78" x2="140.99" y2="205.38" stroke="#2d5a1b" stroke-width="1.00" />
    <line x1="130.31" y1="200.17" x2="130.31" y2="194.23" stroke="#2d5a1b" stroke-width="1.00" />
    <line x1="130.31" y1="194.23" x2="130.31" y2="188.29" stroke="#2d5a1b" stroke-width="1.00" />
    <line x1="130.31" y1="200.17" x2="139.51" y2="194.26" stroke="#2d5a1b" stroke-width="5.12" />
    <line x1="139.31" y1="194.55" x2="144.65" y2="197.16" stroke="#2d5a1b" stroke-width="1.00" />
    <line x1="144.65" y1="197.16" x2="149.98" y2="199.76" stroke="#2d5a1b" stroke-width="1.00" />
    <line x1="139.31" y1="194.55" x2="139.31" y2="188.61" stroke="#2d5a1b" stroke-width="1.00" />
    <line x1="139.31" y1="188.61" x2="139.31" y2="182.67" stroke="#2d5a1b" stroke-width="1.00" />
    <line x1="121.32" y1="205.79" x2="112.53" y2="199.88" stroke="#2d5a1b" stroke-width="5.12" />
    <line x1="112.32" y1="200.17" x2="112.32" y2="194.23" stroke="#2d5a1b" stroke-width="1.00" />
    <line x1="112.32" y1="194.23" x2="112.32" y2="188.29" stroke="#2d5a1b" stroke-width="1.00" />
    <line x1="112.32" y1="200.17" x2="106.98" y2="202.78" stroke="#2d5a1b" stroke-width="1.00" />
    <line x1="106.98" y1="202.78" x2="101.64" y2="205.38" stroke="#2d5a1b" stroke-width="1.00" />
    <line x1="112.32" y1="200.17" x2="103.53" y2="194.26" stroke="#2d5a1b" stroke-width="5.12" />
    <line x1="103.32" y1="194.55" x2="103.32" y2="188.61" stroke="#2d5a1b" stroke-width="1.00" />
    <line x1="103.32" y1="188.61" x2="103.32" y2="182.67" stroke="#2d5a1b" stroke-width="1.00" />
    <line x1="103.32" y1="194.55" x2="97.99" y2="197.16" stroke="#2d5a1b" stroke-width="1.00" />
    <line x1="97.99" y1="197.16" x2="92.65" y2="199.76" stroke="#2d5a1b" stroke-width="1.00" />
    <line x1="121.32" y1="243.68" x2="104.29" y2="251.89" stroke="#2d5a1b" stroke-width="9.25" />
    <line x1="104.29" y1="251.98" x2="95.50" y2="246.07" stroke="#2d5a1b" stroke-width="5.12" />
    <line x1="95.30" y1="246.36" x2="95.30" y2="240.42" stroke="#2d5a1b" stroke-width="1.00" />
    <line x1="95.30" y1="240.42" x2="95.30" y2="234.48" stroke="#2d5a1b" stroke-width="1.00" />
    <line x1="95.30" y1="246.36" x2="89.96" y2="248.96" stroke="#2d5a1b" stroke-width="1.00" />
    <line x1="89.96" y1="248.96" x2="84.62" y2="251.57" stroke="#2d5a1b" stroke-width="1.00" />
    <line x1="95.30" y1="246.36" x2="86.51" y2="240.45" stroke="#2d5a1b" stroke-width="5.12" />
    <line x1="86.30" y1="240.74" x2="86.30" y2="234.80" stroke="#2d5a1b" stroke-width="1.00" />
    <line x1="86.30" y1="234.80" x2="86.30" y2="228.86" stroke="#2d5a1b" stroke-width="1.00" />
    <line x1="86.30" y1="240.74" x2="80.96" y2="243.34" stroke="#2d5a1b" stroke-width="1.00" />
    <line x1="80.96" y1="243.34" x2="75.62" y2="245.95" stroke="#2d5a1b" stroke-width="1.00" />
    <line x1="104.29" y1="251.98" x2="103.39" y2="262.24" stroke="#2d5a1b" stroke-width="5.12" />
    <line x1="103.18" y1="262.53" x2="97.84" y2="265.13" stroke="#2d5a1b" stroke-width="1.00" />
    <line x1="97.84" y1="265.13" x2="92.50" y2="267.74" stroke="#2d5a1b" stroke-width="1.00" />
    <line x1="103.18" y1="262.53" x2="107.86" y2="266.19" stroke="#2d5a1b" stroke-width="1.00" />
    <line x1="107.86" y1="266.19" x2="112.54" y2="269.84" stroke="#2d5a1b" stroke-width="1.00" />
    <line x1="103.18" y1="262.53" x2="102.28" y2="272.79" stroke="#2d5a1b" stroke-width="5.12" />
    <line x1="102.07" y1="273.08" x2="96.73" y2="275.68" stroke="#2d5a1b" stroke-width="1.00" />
    <line x1="96.73" y1="275.68" x2="91.40" y2="278.29" stroke="#2d5a1b" stroke-width="1.00" />
    <line x1="102.07" y1="273.08" x2="106.75" y2="276.73" stroke="#2d5a1b" stroke-width="1.00" />
    <line x1="106.75" y1="276.73" x2="111.44" y2="280.39" stroke="#2d5a1b" stroke-width="1.00" />
    <line x1="104.29" y1="251.98" x2="87.27" y2="260.20" stroke="#2d5a1b" stroke-width="9.25" />
    <line x1="87.27" y1="260.28" x2="78.48" y2="254.37" stroke="#2d5a1b" stroke-width="5.12" />
    <line x1="78.27" y1="254.66" x2="78.27" y2="248.72" stroke="#2d5a1b" stroke-width="1.00" />
    <line x1="78.27" y1="248.72" x2="78.27" y2="242.78" stroke="#2d5a1b" stroke-width="1.00" />
    <line x1="78.27" y1="254.66" x2="72.93" y2="257.27" stroke="#2d5a1b" stroke-width="1.00" />
    <line x1="72.93" y1="257.27" x2="67.59" y2="259.87" stroke="#2d5a1b" stroke-width="1.00" />
    <line x1="78.27" y1="254.66" x2="69.48" y2="248.75" stroke="#2d5a1b" stroke-width="5.12" />
    <line x1="69.28" y1="249.04" x2="69.28" y2="243.10" stroke="#2d5a1b" stroke-width="1.00" />
    <line x1="69.28" y1="243.10" x2="69.28" y2="237.16" stroke="#2d5a1b" stroke-width="1.00" />
    <line x1="69.28" y1="249.04" x2="63.94" y2="251.64" stroke="#2d5a1b" stroke-width="1.00" />
    <line x1="63.94" y1="251.64" x2="58.60" y2="254.25" stroke="#2d5a1b" stroke-width="1.00" />
    <line x1="87.27" y1="260.28" x2="86.37" y2="270.54" stroke="#2d5a1b" stroke-width="5.12" />
    <line x1="86.16" y1="270.83" x2="80.82" y2="273.44" stroke="#2d5a1b" stroke-width="1.00" />
    <line x1="80.82" y1="273.44" x2="75.48" y2="276.04" stroke="#2d5a1b" stroke-width="1.00" />
    <line x1="86.16" y1="270.83" x2="90.84" y2="274.49" stroke="#2d5a1b" stroke-width="1.00" />
    <line x1="90.84" y1="274.49" x2="95.52" y2="278.15" stroke="#2d5a1b" stroke-width="1.00" />
    <line x1="86.16" y1="270.83" x2="85.26" y2="281.09" stroke="#2d5a1b" stroke-width="5.12" />
    <line x1="85.05" y1="281.38" x2="79.71" y2="283.98" stroke="#2d5a1b" stroke-width="1.00" />
    <line x1="79.71" y1="283.98" x2="74.37" y2="286.59" stroke="#2d5a1b" stroke-width="1.00" />
    <line x1="85.05" y1="281.38" x2="89.73" y2="285.04" stroke="#2d5a1b" stroke-width="1.00" />
    <line x1="89.73" y1="285.04" x2="94.41" y2="288.70" stroke="#2d5a1b" stroke-width="1.00" />
    <line x1="121.32" y1="243.68" x2="94.81" y2="226.57" stroke="#2d5a1b" stroke-width="13.38" />
    <line x1="92.63" y1="225.75" x2="92.63" y2="206.72" stroke="#2d5a1b" stroke-width="9.25" />
    <line x1="92.63" y1="206.81" x2="101.83" y2="200.90" stroke="#2d5a1b" stroke-width="5.12" />
    <line x1="101.63" y1="201.19" x2="106.97" y2="203.79" stroke="#2d5a1b" stroke-width="1.00" />
    <line x1="106.97" y1="203.79" x2="112.30" y2="206.40" stroke="#2d5a1b" stroke-width="1.00" />
    <line x1="101.63" y1="201.19" x2="101.63" y2="195.25" stroke="#2d5a1b" stroke-width="1.00" />
    <line x1="101.63" y1="195.25" x2="101.63" y2="189.31" stroke="#2d5a1b" stroke-width="1.00" />
    <line x1="101.63" y1="201.19" x2="110.83" y2="195.28" stroke="#2d5a1b" stroke-width="5.12" />
    <line x1="110.62" y1="195.57" x2="115.96" y2="198.17" stroke="#2d5a1b" stroke-width="1.00" />
    <line x1="115.96" y1="198.17" x2="121.30" y2="200.78" stroke="#2d5a1b" stroke-width="1.00" />
    <line x1="110.62" y1="195.57" x2="110.62" y2="189.63" stroke="#2d5a1b" stroke-width="1.00" />
    <line x1="110.62" y1="189.63" x2="110.62" y2="183.69" stroke="#2d5a1b" stroke-width="1.00" />
    <line x1="92.63" y1="206.81" x2="83.84" y2="200.90" stroke="#2d5a1b" stroke-width="5.12" />
    <line x1="83.64" y1="201.19" x2="83.64" y2="195.25" stroke="#2d5a1b" stroke-width="1.00" />
    <line x1="83.64" y1="195.25" x2="83.64" y2="189.31" stroke="#2d5a1b" stroke-width="1.00" />
    <line x1="83.64" y1="201.19" x2="78.30" y2="203.79" stroke="#2d5a1b" stroke-width="1.00" />
    <line x1="78.30" y1="203.79" x2="72.96" y2="206.40" stroke="#2d5a1b" stroke-width="1.00" />
    <line x1="83.64" y1="201.19" x2="74.85" y2="195.28" stroke="#2d5a1b" stroke-width="5.12" />
    <line x1="74.64" y1="195.57" x2="74.64" y2="189.63" stroke="#2d5a1b" stroke-width="1.00" />
    <line x1="74.64" y1="189.63" x2="74.64" y2="183.69" stroke="#2d5a1b" stroke-width="1.00" />
    <line x1="74.64" y1="195.57" x2="69.30" y2="198.17" stroke="#2d5a1b" stroke-width="1.00" />
    <line x1="69.30" y1="198.17" x2="63.96" y2="200.78" stroke="#2d5a1b" stroke-width="1.00" />
    <line x1="92.63" y1="206.81" x2="92.63" y2="187.78" stroke="#2d5a1b" stroke-width="9.25" />
    <line x1="92.63" y1="187.87" x2="101.83" y2="181.96" stroke="#2d5a1b" stroke-width="5.12" />
    <line x1="101.63" y1="182.25" x2="106.97" y2="184.85" stroke="#2d5a1b" stroke-width="1.00" />
    <line x1="106.97" y1="184.85" x2="112.30" y2="187.46" stroke="#2d5a1b" stroke-width="1.00" />
    <line x1="101.63" y1="182.25" x2="101.63" y2="176.31" stroke="#2d5a1b" stroke-width="1.00" />
    <line x1="101.63" y1="176.31" x2="101.63" y2="170.37" stroke="#2d5a1b" stroke-width="1.00" />
    <line x1="101.63" y1="182.25" x2="110.83" y2="176.34" stroke="#2d5a1b" stroke-width="5.12" />
    <line x1="110.62" y1="176.63" x2="115.96" y2="179.23" stroke="#2d5a1b" stroke-width="1.00" />
    <line x1="115.96" y1="179.23" x2="121.30" y2="181.84" stroke="#2d5a1b" stroke-width="1.00" />
    <line x1="110.62" y1="176.63" x2="110.62" y2="170.69" stroke="#2d5a1b" stroke-width="1.00" />
    <line x1="110.62" y1="170.69" x2="110.62" y2="164.75" stroke="#2d5a1b" stroke-width="1.00" />
    <line x1="92.63" y1="187.87" x2="83.84" y2="181.96" stroke="#2d5a1b" stroke-width="5.12" />
    <line x1="83.64" y1="182.25" x2="83.64" y2="176.31" stroke="#2d5a1b" stroke-width="1.00" />
    <line x1="83.64" y1="176.31" x2="83.64" y2="170.37" stroke="#2d5a1b" stroke-width="1.00" />
    <line x1="83.64" y1="182.25" x2="78.30" y2="184.85" stroke="#2d5a1b" stroke-width="1.00" />
    <line x1="78.30" y1="184.85" x2="72.96" y2="187.46" stroke="#2d5a1b" stroke-width="1.00" />
    <line x1="83.64" y1="182.25" x2="74.85" y2="176.34" stroke="#2d5a1b" stroke-width="5.12" />
    <line x1="74.64" y1="176.63" x2="74.64" y2="170.69" stroke="#2d5a1b" stroke-width="1.00" />
    <line x1="74.64" y1="170.69" x2="74.64" y2="164.75" stroke="#2d5a1b" stroke-width="1.00" />
    <line x1="74.64" y1="176.63" x2="69.30" y2="179.23" stroke="#2d5a1b" stroke-width="1.00" />
    <line x1="69.30" y1="179.23" x2="63.96" y2="181.84" stroke="#2d5a1b" stroke-width="1.00" />
    <line x1="92.63" y1="225.75" x2="75.61" y2="233.97" stroke="#2d5a1b" stroke-width="9.25" />
    <line x1="75.61" y1="234.06" x2="66.82" y2="228.15" stroke="#2d5a1b" stroke-width="5.12" />
    <line x1="66.61" y1="228.43" x2="66.61" y2="222.49" stroke="#2d5a1b" stroke-width="1.00" />
    <line x1="66.61" y1="222.49" x2="66.61" y2="216.55" stroke="#2d5a1b" stroke-width="1.00" />
    <line x1="66.61" y1="228.43" x2="61.27" y2="231.04" stroke="#2d5a1b" stroke-width="1.00" />
    <line x1="61.27" y1="231.04" x2="55.93" y2="233.64" stroke="#2d5a1b" stroke-width="1.00" />
    <line x1="66.61" y1="228.43" x2="57.82" y2="222.52" stroke="#2d5a1b" stroke-width="5.12" />
    <line x1="57.62" y1="222.81" x2="57.62" y2="216.87" stroke="#2d5a1b" stroke-width="1.00" />
    <line x1="57.62" y1="216.87" x2="57.62" y2="210.93" stroke="#2d5a1b" stroke-width="1.00" />
    <line x1="57.62" y1="222.81" x2="52.28" y2="225.42" stroke="#2d5a1b" stroke-width="1.00" />
    <line x1="52.28" y1="225.42" x2="46.94" y2="228.02" stroke="#2d5a1b" stroke-width="1.00" />
    <line x1="75.61" y1="234.06" x2="74.71" y2="244.32" stroke="#2d5a1b" stroke-width="5.12" />
    <line x1="74.50" y1="244.60" x2="69.16" y2="247.21" stroke="#2d5a1b" stroke-width="1.00" />
    <line x1="69.16" y1="247.21" x2="63.82" y2="249.81" stroke="#2d5a1b" stroke-width="1.00" />
    <line x1="74.50" y1="244.60" x2="79.18" y2="248.26" stroke="#2d5a1b" stroke-width="1.00" />
    <line x1="79.18" y1="248.26" x2="83.86" y2="251.92" stroke="#2d5a1b" stroke-width="1.00" />
    <line x1="74.50" y1="244.60" x2="73.60" y2="254.86" stroke="#2d5a1b" stroke-width="5.12" />
    <line x1="73.39" y1="255.15" x2="68.05" y2="257.76" stroke="#2d5a1b" stroke-width="1.00" />
    <line x1="68.05" y1="257.76" x2="62.71" y2="260.36" stroke="#2d5a1b" stroke-width="1.00" />
    <line x1="73.39" y1="255.15" x2="78.07" y2="258.81" stroke="#2d5a1b" stroke-width="1.00" />
    <line x1="78.07" y1="258.81" x2="82.75" y2="262.47" stroke="#2d5a1b" stroke-width="1.00" />
    <line x1="75.61" y1="234.06" x2="58.58" y2="242.27" stroke="#2d5a1b" stroke-width="9.25" />
    <line x1="58.58" y1="242.36" x2="49.79" y2="236.45" stroke="#2d5a1b" stroke-width="5.12" />
    <line x1="49.59" y1="236.74" x2="49.59" y2="230.80" stroke="#2d5a1b" stroke-width="1.00" />
    <line x1="49.59" y1="230.80" x2="49.59" y2="224.86" stroke="#2d5a1b" stroke-width="1.00" />
    <line x1="49.59" y1="236.74" x2="44.25" y2="239.34" stroke="#2d5a1b" stroke-width="1.00" />
    <line x1="44.25" y1="239.34" x2="38.91" y2="241.95" stroke="#2d5a1b" stroke-width="1.00" />
    <line x1="49.59" y1="236.74" x2="40.80" y2="230.83" stroke="#2d5a1b" stroke-width="5.12" />
    <line x1="40.59" y1="231.12" x2="40.59" y2="225.18" stroke="#2d5a1b" stroke-width="1.00" />
    <line x1="40.59" y1="225.18" x2="40.59" y2="219.24" stroke="#2d5a1b" stroke-width="1.00" />
    <line x1="40.59" y1="231.12" x2="35.25" y2="233.72" stroke="#2d5a1b" stroke-width="1.00" />
    <line x1="35.25" y1="233.72" x2="29.91" y2="236.32" stroke="#2d5a1b" stroke-width="1.00" />
    <line x1="58.58" y1="242.36" x2="57.68" y2="252.62" stroke="#2d5a1b" stroke-width="5.12" />
    <line x1="57.47" y1="252.91" x2="52.13" y2="255.51" stroke="#2d5a1b" stroke-width="1.00" />
    <line x1="52.13" y1="255.51" x2="46.80" y2="258.12" stroke="#2d5a1b" stroke-width="1.00" />
    <line x1="57.47" y1="252.91" x2="62.15" y2="256.56" stroke="#2d5a1b" stroke-width="1.00" />
    <line x1="62.15" y1="256.56" x2="66.84" y2="260.22" stroke="#2d5a1b" stroke-width="1.00" />
    <line x1="57.47" y1="252.91" x2="56.57" y2="263.17" stroke="#2d5a1b" stroke-width="5.12" />
    <line x1="56.36" y1="263.46" x2="51.03" y2="266.06" stroke="#2d5a1b" stroke-width="1.00" />
    <line x1="51.03" y1="266.06" x2="45.69" y2="268.66" stroke="#2d5a1b" stroke-width="1.00" />
    <line x1="56.36" y1="263.46" x2="61.05" y2="267.11" stroke="#2d5a1b" stroke-width="1.00" />
    <line x1="61.05" y1="267.11" x2="65.73" y2="270.77" stroke="#2d5a1b" stroke-width="1.00" />
    <line x1="150.00" y1="261.60" x2="150.00" y2="201.24" stroke="#2d1a0e" stroke-width="17.50" />
    <line x1="150.00" y1="201.20" x2="180.86" y2="184.09" stroke="#2d5a1b" stroke-width="13.38" />
    <line x1="178.68" y1="183.28" x2="195.71" y2="191.49" stroke="#2d5a1b" stroke-width="9.25" />
    <line x1="195.71" y1="191.58" x2="197.02" y2="201.84" stroke="#2d5a1b" stroke-width="5.12" />
    <line x1="196.82" y1="202.13" x2="198.13" y2="212.39" stroke="#2d5a1b" stroke-width="5.12" />
    <line x1="195.71" y1="191.58" x2="204.91" y2="185.67" stroke="#2d5a1b" stroke-width="5.12" />
    <line x1="204.70" y1="185.96" x2="213.91" y2="180.05" stroke="#2d5a1b" stroke-width="5.12" />
    <line x1="195.71" y1="191.58" x2="212.73" y2="199.80" stroke="#2d5a1b" stroke-width="9.25" />
    <line x1="212.73" y1="199.88" x2="214.05" y2="210.14" stroke="#2d5a1b" stroke-width="5.12" />
    <line x1="213.84" y1="210.43" x2="215.16" y2="220.69" stroke="#2d5a1b" stroke-width="5.12" />
    <line x1="212.73" y1="199.88" x2="221.94" y2="193.97" stroke="#2d5a1b" stroke-width="5.12" />
    <line x1="221.73" y1="194.26" x2="230.93" y2="188.35" stroke="#2d5a1b" stroke-width="5.12" />
    <line x1="178.68" y1="183.28" x2="178.68" y2="164.25" stroke="#2d5a1b" stroke-width="9.25" />
    <line x1="178.68" y1="164.33" x2="187.89" y2="158.42" stroke="#2d5a1b" stroke-width="5.12" />
    <line x1="187.68" y1="158.71" x2="196.88" y2="152.80" stroke="#2d5a1b" stroke-width="5.12" />
    <line x1="178.68" y1="164.33" x2="169.90" y2="158.42" stroke="#2d5a1b" stroke-width="5.12" />
    <line x1="169.69" y1="158.71" x2="160.90" y2="152.80" stroke="#2d5a1b" stroke-width="5.12" />
    <line x1="178.68" y1="164.33" x2="178.68" y2="145.31" stroke="#2d5a1b" stroke-width="9.25" />
    <line x1="178.68" y1="145.39" x2="187.89" y2="139.48" stroke="#2d5a1b" stroke-width="5.12" />
    <line x1="187.68" y1="139.77" x2="196.88" y2="133.86" stroke="#2d5a1b" stroke-width="5.12" />
    <line x1="178.68" y1="145.39" x2="169.90" y2="139.48" stroke="#2d5a1b" stroke-width="5.12" />
    <line x1="169.69" y1="139.77" x2="160.90" y2="133.86" stroke="#2d5a1b" stroke-width="5.12" />
    <line x1="178.68" y1="183.28" x2="209.54" y2="166.17" stroke="#2d5a1b" stroke-width="13.38" />
    <line x1="207.37" y1="165.35" x2="224.39" y2="173.57" stroke="#2d5a1b" stroke-width="9.25" />
    <line x1="224.39" y1="173.66" x2="225.71" y2="183.92" stroke="#2d5a1b" stroke-width="5.12" />
    <line x1="225.50" y1="184.20" x2="226.82" y2="194.46" stroke="#2d5a1b" stroke-width="5.12" />
    <line x1="224.39" y1="173.66" x2="233.60" y2="167.75" stroke="#2d5a1b" stroke-width="5.12" />
    <line x1="233.39" y1="168.03" x2="242.59" y2="162.12" stroke="#2d5a1b" stroke-width="5.12" />
    <line x1="224.39" y1="173.66" x2="241.42" y2="181.87" stroke="#2d5a1b" stroke-width="9.25" />
    <line x1="241.42" y1="181.96" x2="242.73" y2="192.22" stroke="#2d5a1b" stroke-width="5.12" />
    <line x1="242.53" y1="192.51" x2="243.84" y2="202.77" stroke="#2d5a1b" stroke-width="5.12" />
    <line x1="241.42" y1="181.96" x2="250.62" y2="176.05" stroke="#2d5a1b" stroke-width="5.12" />
    <line x1="250.41" y1="176.34" x2="259.62" y2="170.43" stroke="#2d5a1b" stroke-width="5.12" />
    <line x1="207.37" y1="165.35" x2="207.37" y2="146.32" stroke="#2d5a1b" stroke-width="9.25" />
    <line x1="207.37" y1="146.41" x2="216.57" y2="140.50" stroke="#2d5a1b" stroke-width="5.12" />
    <line x1="216.36" y1="140.79" x2="225.57" y2="134.88" stroke="#2d5a1b" stroke-width="5.12" />
    <line x1="207.37" y1="146.41" x2="198.58" y2="140.50" stroke="#2d5a1b" stroke-width="5.12" />
    <line x1="198.37" y1="140.79" x2="189.59" y2="134.88" stroke="#2d5a1b" stroke-width="5.12" />
    <line x1="207.37" y1="146.41" x2="207.37" y2="127.38" stroke="#2d5a1b" stroke-width="9.25" />
    <line x1="207.37" y1="127.47" x2="216.57" y2="121.56" stroke="#2d5a1b" stroke-width="5.12" />
    <line x1="216.36" y1="121.85" x2="225.57" y2="115.94" stroke="#2d5a1b" stroke-width="5.12" />
    <line x1="207.37" y1="127.47" x2="198.58" y2="121.56" stroke="#2d5a1b" stroke-width="5.12" />
    <line x1="198.37" y1="121.85" x2="189.59" y2="115.94" stroke="#2d5a1b" stroke-width="5.12" />
    <line x1="150.00" y1="201.20" x2="123.49" y2="184.09" stroke="#2d5a1b" stroke-width="13.38" />
    <line x1="121.32" y1="183.28" x2="121.32" y2="164.25" stroke="#2d5a1b" stroke-width="9.25" />
    <line x1="121.32" y1="164.33" x2="130.52" y2="158.42" stroke="#2d5a1b" stroke-width="5.12" />
    <line x1="130.31" y1="158.71" x2="139.51" y2="152.80" stroke="#2d5a1b" stroke-width="5.12" />
    <line x1="121.32" y1="164.33" x2="112.53" y2="158.42" stroke="#2d5a1b" stroke-width="5.12" />
    <line x1="112.32" y1="158.71" x2="103.53" y2="152.80" stroke="#2d5a1b" stroke-width="5.12" />
    <line x1="121.32" y1="164.33" x2="121.32" y2="145.31" stroke="#2d5a1b" stroke-width="9.25" />
    <line x1="121.32" y1="145.39" x2="130.52" y2="139.48" stroke="#2d5a1b" stroke-width="5.12" />
    <line x1="130.31" y1="139.77" x2="139.51" y2="133.86" stroke="#2d5a1b" stroke-width="5.12" />
    <line x1="121.32" y1="145.39" x2="112.53" y2="139.48" stroke="#2d5a1b" stroke-width="5.12" />
    <line x1="112.32" y1="139.77" x2="103.53" y2="133.86" stroke="#2d5a1b" stroke-width="5.12" />
    <line x1="121.32" y1="183.28" x2="104.29" y2="191.49" stroke="#2d5a1b" stroke-width="9.25" />
    <line x1="104.29" y1="191.58" x2="95.50" y2="185.67" stroke="#2d5a1b" stroke-width="5.12" />
    <line x1="95.30" y1="185.96" x2="86.51" y2="180.05" stroke="#2d5a1b" stroke-width="5.12" />
    <line x1="104.29" y1="191.58" x2="103.39" y2="201.84" stroke="#2d5a1b" stroke-width="5.12" />
    <line x1="103.18" y1="202.13" x2="102.28" y2="212.39" stroke="#2d5a1b" stroke-width="5.12" />
    <line x1="104.29" y1="191.58" x2="87.27" y2="199.80" stroke="#2d5a1b" stroke-width="9.25" />
    <line x1="87.27" y1="199.88" x2="78.48" y2="193.97" stroke="#2d5a1b" stroke-width="5.12" />
    <line x1="78.27" y1="194.26" x2="69.48" y2="188.35" stroke="#2d5a1b" stroke-width="5.12" />
    <line x1="87.27" y1="199.88" x2="86.37" y2="210.14" stroke="#2d5a1b" stroke-width="5.12" />
    <line x1="86.16" y1="210.43" x2="85.26" y2="220.69" stroke="#2d5a1b" stroke-width="5.12" />
    <line x1="121.32" y1="183.28" x2="94.81" y2="166.17" stroke="#2d5a1b" stroke-width="13.38" />
    <line x1="92.63" y1="165.35" x2="92.63" y2="146.32" stroke="#2d5a1b" stroke-width="9.25" />
    <line x1="92.63" y1="146.41" x2="101.83" y2="140.50" stroke="#2d5a1b" stroke-width="5.12" />
    <line x1="101.63" y1="140.79" x2="110.83" y2="134.88" stroke="#2d5a1b" stroke-width="5.12" />
    <line x1="92.63" y1="146.41" x2="83.84" y2="140.50" stroke="#2d5a1b" stroke-width="5.12" />
    <line x1="83.64" y1="140.79" x2="74.85" y2="134.88" stroke="#2d5a1b" stroke-width="5.12" />
    <line x1="92.63" y1="146.41" x2="92.63" y2="127.38" stroke="#2d5a1b" stroke-width="9.25" />
    <line x1="92.63" y1="127.47" x2="101.83" y2="121.56" stroke="#2d5a1b" stroke-width="5.12" />
    <line x1="101.63" y1="121.85" x2="110.83" y2="115.94" stroke="#2d5a1b" stroke-width="5.12" />
    <line x1="92.63" y1="127.47" x2="83.84" y2="121.56" stroke="#2d5a1b" stroke-width="5.12" />
    <line x1="83.64" y1="121.85" x2="74.85" y2="115.94" stroke="#2d5a1b" stroke-width="5.12" />
    <line x1="92.63" y1="165.35" x2="75.61" y2="173.57" stroke="#2d5a1b" stroke-width="9.25" />
    <line x1="75.61" y1="173.66" x2="66.82" y2="167.75" stroke="#2d5a1b" stroke-width="5.12" />
    <line x1="66.61" y1="168.03" x2="57.82" y2="162.12" stroke="#2d5a1b" stroke-width="5.12" />
    <line x1="75.61" y1="173.66" x2="74.71" y2="183.92" stroke="#2d5a1b" stroke-width="5.12" />
    <line x1="74.50" y1="184.20" x2="73.60" y2="194.46" stroke="#2d5a1b" stroke-width="5.12" />
    <line x1="75.61" y1="173.66" x2="58.58" y2="181.87" stroke="#2d5a1b" stroke-width="9.25" />
    <line x1="58.58" y1="181.96" x2="49.79" y2="176.05" stroke="#2d5a1b" stroke-width="5.12" />
    <line x1="49.59" y1="176.34" x2="40.80" y2="170.43" stroke="#2d5a1b" stroke-width="5.12" />
    <line x1="58.58" y1="181.96" x2="57.68" y2="192.22" stroke="#2d5a1b" stroke-width="5.12" />
    <line x1="57.47" y1="192.51" x2="56.57" y2="202.77" stroke="#2d5a1b" stroke-width="5.12" />
    <line x1="150.00" y1="201.20" x2="150.00" y2="140.84" stroke="#2d1a0e" stroke-width="17.50" />
    <line x1="150.00" y1="140.80" x2="180.86" y2="123.69" stroke="#2d5a1b" stroke-width="13.38" />
    <line x1="178.68" y1="122.88" x2="195.71" y2="131.09" stroke="#2d5a1b" stroke-width="9.25" />
    <line x1="195.71" y1="131.18" x2="212.73" y2="139.40" stroke="#2d5a1b" stroke-width="9.25" />
    <line x1="178.68" y1="122.88" x2="178.68" y2="103.85" stroke="#2d5a1b" stroke-width="9.25" />
    <line x1="178.68" y1="103.93" x2="178.68" y2="84.91" stroke="#2d5a1b" stroke-width="9.25" />
    <line x1="178.68" y1="122.88" x2="209.54" y2="105.77" stroke="#2d5a1b" stroke-width="13.38" />
    <line x1="207.37" y1="104.95" x2="224.39" y2="113.17" stroke="#2d5a1b" stroke-width="9.25" />
    <line x1="224.39" y1="113.26" x2="241.42" y2="121.47" stroke="#2d5a1b" stroke-width="9.25" />
    <line x1="207.37" y1="104.95" x2="207.37" y2="85.92" stroke="#2d5a1b" stroke-width="9.25" />
    <line x1="207.37" y1="86.01" x2="207.37" y2="66.98" stroke="#2d5a1b" stroke-width="9.25" />
    <line x1="150.00" y1="140.80" x2="123.49" y2="123.69" stroke="#2d5a1b" stroke-width="13.38" />
    <line x1="121.32" y1="122.88" x2="121.32" y2="103.85" stroke="#2d5a1b" stroke-width="9.25" />
    <line x1="121.32" y1="103.93" x2="121.32" y2="84.91" stroke="#2d5a1b" stroke-width="9.25" />
    <line x1="121.32" y1="122.88" x2="104.29" y2="131.09" stroke="#2d5a1b" stroke-width="9.25" />
    <line x1="104.29" y1="131.18" x2="87.27" y2="139.40" stroke="#2d5a1b" stroke-width="9.25" />
    <line x1="121.32" y1="122.88" x2="94.81" y2="105.77" stroke="#2d5a1b" stroke-width="13.38" />
    <line x1="92.63" y1="104.95" x2="92.63" y2="85.92" stroke="#2d5a1b" stroke-width="9.25" />
    <line x1="92.63" y1="86.01" x2="92.63" y2="66.98" stroke="#2d5a1b" stroke-width="9.25" />
    <line x1="92.63" y1="104.95" x2="75.61" y2="113.17" stroke="#2d5a1b" stroke-width="9.25" />
    <line x1="75.61" y1="113.26" x2="58.58" y2="121.47" stroke="#2d5a1b" stroke-width="9.25" />
    <line x1="150.00" y1="140.80" x2="150.00" y2="80.44" stroke="#2d1a0e" stroke-width="17.50" />
    <line x1="150.00" y1="80.40" x2="180.86" y2="63.29" stroke="#2d5a1b" stroke-width="13.38" />
    <line x1="178.68" y1="62.48" x2="209.54" y2="45.37" stroke="#2d5a1b" stroke-width="13.38" />
    <line x1="150.00" y1="80.40" x2="123.49" y2="63.29" stroke="#2d5a1b" stroke-width="13.38" />
    <line x1="121.32" y1="62.48" x2="94.81" y2="45.37" stroke="#2d5a1b" stroke-width="13.38" />
    <line x1="150.00" y1="80.40" x2="150.00" y2="20.04" stroke="#2d1a0e" stroke-width="17.50" />
  </g>
</svg>