<svg xmlns="http://www.w3.org/2000/svg" viewBox="0 0 300 350" width="300" height="350">
  <defs />
  <rect width="100%" height="100%" fill="none" />
  <rect x="142.50" y="322.00" width="15.00" height="28.00" fill="#2d1a0e" rx="2.25" />
  <g stroke-linecap="round" stroke-linejoin="round">
    <line x1="150.00" y1="322.00" x2="150.81" y2="260.45" stroke="#2d1a0e" stroke-width="17.50" />
    <line x1="150.00" y1="261.60" x2="177.45" y2="242.37" stroke="#2d5a1b" stroke-width="13.38" />
    <line x1="177.43" y1="241.81" x2="194.65" y2="250.31" stroke="#2d5a1b" stroke-width="9.25" />
    <line x1="194.66" y1="249.70" x2="196.71" y2="259.98" stroke="#2d5a1b" stroke-width="5.12" />
    <line x1="196.72" y1="260.10" x2="192.22" y2="263.98" stroke="#2d5a1b" stroke-width="1.00" />
    <line x1="192.22" y1="263.98" x2="187.73" y2="267.87" stroke="#2d5a1b" stroke-width="1.00" />
    <line x1="196.72" y1="260.10" x2="202.36" y2="261.98" stroke="#2d5a1b" stroke-width="1.00" />
    <line x1="202.36" y1="261.98" x2="207.99" y2="263.85" stroke="#2d5a1b" stroke-width="1.00" />
    <line x1="196.72" y1="260.10" x2="198.77" y2="270.38" stroke="#2d5a1b" stroke-width="5.12" />
    <line x1="198.78" y1="270.51" x2="194.29" y2="274.39" stroke="#2d5a1b" stroke-width="1.00" />
    <line x1="194.29" y1="274.39" x2="189.79" y2="278.27" stroke="#2d5a1b" stroke-width="1.00" />
    <line x1="198.78" y1="270.51" x2="204.42" y2="272.38" stroke="#2d5a1b" stroke-width="1.00" />
    <line x1="204.42" y1="272.38" x2="210.05" y2="274.26" stroke="#2d5a1b" stroke-width="1.00" />
    <line x1="194.66" y1="249.70" x2="203.87" y2="244.33" stroke="#2d5a1b" stroke-width="5.12" />
    <line x1="203.88" y1="244.45" x2="208.98" y2="247.49" stroke="#2d5a1b" stroke-width="1.00" />
    <line x1="208.98" y1="247.49" x2="214.09" y2="250.53" stroke="#2d5a1b" stroke-width="1.00" />
    <line x1="203.88" y1="244.45" x2="203.88" y2="238.51" stroke="#2d5a1b" stroke-width="1.00" />
    <line x1="203.88" y1="238.51" x2="203.88" y2="232.57" stroke="#2d5a1b" stroke-width="1.00" />
    <line x1="203.88" y1="244.45" x2="213.09" y2="239.09" stroke="#2d5a1b" stroke-width="5.12" />
    <line x1="213.10" y1="239.21" x2="218.20" y2="242.25" stroke="#2d5a1b" stroke-width="1.00" />
    <line x1="218.20" y1="242.25" x2="223.31" y2="245.29" stroke="#2d5a1b" stroke-width="1.00" />
    <line x1="213.10" y1="239.21" x2="213.10" y2="233.27" stroke="#2d5a1b" stroke-width="1.00" />
    <line x1="213.10" y1="233.27" x2="213.10" y2="227.33" stroke="#2d5a1b" stroke-width="1.00" />
    <line x1="194.66" y1="249.70" x2="211.88" y2="258.19" stroke="#2d5a1b" stroke-width="9.25" />
    <line x1="211.88" y1="257.58" x2="213.93" y2="267.86" stroke="#2d5a1b" stroke-width="5.12" />
    <line x1="213.94" y1="267.98" x2="209.45" y2="271.87" stroke="#2d5a1b" stroke-width="1.00" />
    <line x1="209.45" y1="271.87" x2="204.95" y2="275.75" stroke="#2d5a1b" stroke-width="1.00" />
    <line x1="213.94" y1="267.98" x2="219.58" y2="269.86" stroke="#2d5a1b" stroke-width="1.00" />
    <line x1="219.58" y1="269.86" x2="225.22" y2="271.73" stroke="#2d5a1b" stroke-width="1.00" />
    <line x1="213.94" y1="267.98" x2="216.00" y2="278.26" stroke="#2d5a1b" stroke-width="5.12" />
    <line x1="216.01" y1="278.39" x2="211.51" y2="282.27" stroke="#2d5a1b" stroke-width="1.00" />
    <line x1="211.51" y1="282.27" x2="207.02" y2="286.15" stroke="#2d5a1b" stroke-width="1.00" />
    <line x1="216.01" y1="278.39" x2="221.64" y2="280.26" stroke="#2d5a1b" stroke-width="1.00" />
    <line x1="221.64" y1="280.26" x2="227.28" y2="282.14" stroke="#2d5a1b" stroke-width="1.00" />
    <line x1="211.88" y1="257.58" x2="221.09" y2="252.21" stroke="#2d5a1b" stroke-width="5.12" />
    <line x1="221.10" y1="252.34" x2="226.21" y2="255.38" stroke="#2d5a1b" stroke-width="1.00" />
    <line x1="226.21" y1="255.38" x2="231.31" y2="258.42" stroke="#2d5a1b" stroke-width="1.00" />
    <line x1="221.10" y1="252.34" x2="221.10" y2="246.40" stroke="#2d5a1b" stroke-width="1.00" />
    <line x1="221.10" y1="246.40" x2="221.10" y2="240.46" stroke="#2d5a1b" stroke-width="1.00" />
    <line x1="221.10" y1="252.34" x2="230.31" y2="246.97" stroke="#2d5a1b" stroke-width="5.12" />
    <line x1="230.32" y1="247.10" x2="235.43" y2="250.14" stroke="#2d5a1b" stroke-width="1.00" />
    <line x1="235.43" y1="250.14" x2="240.53" y2="253.17" stroke="#2d5a1b" stroke-width="1.00" />
    <line x1="230.32" y1="247.10" x2="230.32" y2="241.16" stroke="#2d5a1b" stroke-width="1.00" />
    <line x1="230.32" y1="241.16" x2="230.32" y2="235.22" stroke="#2d5a1b" stroke-width="1.00" />
    <line x1="177.43" y1="241.81" x2="175.39" y2="223.60" stroke="#2d5a1b" stroke-width="9.25" />
    <line x1="175.39" y1="222.98" x2="183.27" y2="215.76" stroke="#2d5a1b" stroke-width="5.12" />
    <line x1="183.28" y1="215.89" x2="188.91" y2="217.76" stroke="#2d5a1b" stroke-width="1.00" />
    <line x1="188.91" y1="217.76" x2="194.55" y2="219.64" stroke="#2d5a1b" stroke-width="1.00" />
    <line x1="183.28" y1="215.89" x2="182.00" y2="210.09" stroke="#2d5a1b" stroke-width="1.00" />
    <line x1="182.00" y1="210.09" x2="180.73" y2="204.28" stroke="#2d5a1b" stroke-width="1.00" />
    <line x1="183.28" y1="215.89" x2="191.15" y2="208.67" stroke="#2d5a1b" stroke-width="5.12" />
    <line x1="191.16" y1="208.79" x2="196.80" y2="210.67" stroke="#2d5a1b" stroke-width="1.00" />
    <line x1="196.80" y1="210.67" x2="202.43" y2="212.54" stroke="#2d5a1b" stroke-width="1.00" />
    <line x1="191.16" y1="208.79" x2="189.89" y2="202.99" stroke="#2d5a1b" stroke-width="1.00" />
    <line x1="189.89" y1="202.99" x2="188.61" y2="197.19" stroke="#2d5a1b" stroke-width="1.00" />
    <line x1="175.39" y1="222.98" x2="166.16" y2="217.62" stroke="#2d5a1b" stroke-width="5.12" />
    <line x1="166.17" y1="217.74" x2="166.17" y2="211.80" stroke="#2d5a1b" stroke-width="1.00" />
    <line x1="166.17" y1="211.80" x2="166.17" y2="205.86" stroke="#2d5a1b" stroke-width="1.00" />
    <line x1="166.17" y1="217.74" x2="161.07" y2="220.78" stroke="#2d5a1b" stroke-width="1.00" />
    <line x1="161.07" y1="220.78" x2="155.96" y2="223.82" stroke="#2d5a1b" stroke-width="1.00" />
    <line x1="166.17" y1="217.74" x2="156.94" y2="212.38" stroke="#2d5a1b" stroke-width="5.12" />
    <line x1="156.95" y1="212.50" x2="156.95" y2="206.56" stroke="#2d5a1b" stroke-width="1.00" />
    <line x1="156.95" y1="206.56" x2="156.95" y2="200.62" stroke="#2d5a1b" stroke-width="1.00" />
    <line x1="156.95" y1="212.50" x2="151.84" y2="215.54" stroke="#2d5a1b" stroke-width="1.00" />
    <line x1="151.84" y1="215.54" x2="146.74" y2="218.58" stroke="#2d5a1b" stroke-width="1.00" />
    <line x1="175.39" y1="222.98" x2="173.35" y2="204.77" stroke="#2d5a1b" stroke-width="9.25" />
    <line x1="173.35" y1="204.15" x2="181.22" y2="196.93" stroke="#2d5a1b" stroke-width="5.12" />
    <line x1="181.23" y1="197.06" x2="186.87" y2="198.93" stroke="#2d5a1b" stroke-width="1.00" />
    <line x1="186.87" y1="198.93" x2="192.51" y2="200.81" stroke="#2d5a1b" stroke-width="1.00" />
    <line x1="181.23" y1="197.06" x2="179.96" y2="191.25" stroke="#2d5a1b" stroke-width="1.00" />
    <line x1="179.96" y1="191.25" x2="178.69" y2="185.45" stroke="#2d5a1b" stroke-width="1.00" />
    <line x1="181.23" y1="197.06" x2="189.11" y2="189.83" stroke="#2d5a1b" stroke-width="5.12" />
    <line x1="189.12" y1="189.96" x2="194.75" y2="191.83" stroke="#2d5a1b" stroke-width="1.00" />
    <line x1="194.75" y1="191.83" x2="200.39" y2="193.71" stroke="#2d5a1b" stroke-width="1.00" />
    <line x1="189.12" y1="189.96" x2="187.84" y2="184.16" stroke="#2d5a1b" stroke-width="1.00" />
    <line x1="187.84" y1="184.16" x2="186.57" y2="178.36" stroke="#2d5a1b" stroke-width="1.00" />
    <line x1="173.35" y1="204.15" x2="164.12" y2="198.79" stroke="#2d5a1b" stroke-width="5.12" />
    <line x1="164.13" y1="198.91" x2="164.13" y2="192.97" stroke="#2d5a1b" stroke-width="1.00" />
    <line x1="164.13" y1="192.97" x2="164.13" y2="187.03" stroke="#2d5a1b" stroke-width="1.00" />
    <line x1="164.13" y1="198.91" x2="159.02" y2="201.95" stroke="#2d5a1b" stroke-width="1.00" />
    <line x1="159.02" y1="201.95" x2="153.92" y2="204.99" stroke="#2d5a1b" stroke-width="1.00" />
    <line x1="164.13" y1="198.91" x2="154.90" y2="193.54" stroke="#2d5a1b" stroke-width="5.12" />
    <line x1="154.91" y1="193.67" x2="154.91" y2="187.73" stroke="#2d5a1b" stroke-width="1.00" />
    <line x1="154.91" y1="187.73" x2="154.91" y2="181.79" stroke="#2d5a1b" stroke-width="1.00" />
    <line x1="154.91" y1="193.67" x2="149.80" y2="196.71" stroke="#2d5a1b" stroke-width="1.00" />
    <line x1="149.80" y1="196.71" x2="144.70" y2="199.75" stroke="#2d5a1b" stroke-width="1.00" />
    <line x1="177.43" y1="241.81" x2="204.88" y2="222.59" stroke="#2d5a1b" stroke-width="13.38" />
    <line x1="204.87" y1="222.03" x2="222.09" y2="230.53" stroke="#2d5a1b" stroke-width="9.25" />
    <line x1="222.09" y1="229.91" x2="224.14" y2="240.19" stroke="#2d5a1b" stroke-width="5.12" />
    <line x1="224.15" y1="240.32" x2="219.66" y2="244.20" stroke="#2d5a1b" stroke-width="1.00" />
    <line x1="219.66" y1="244.20" x2="215.16" y2="248.08" stroke="#2d5a1b" stroke-width="1.00" />
    <line x1="224.15" y1="240.32" x2="229.79" y2="242.19" stroke="#2d5a1b" stroke-width="1.00" />
    <line x1="229.79" y1="242.19" x2="235.43" y2="244.07" stroke="#2d5a1b" stroke-width="1.00" />
    <line x1="224.15" y1="240.32" x2="226.21" y2="250.59" stroke="#2d5a1b" stroke-width="5.12" />
    <line x1="226.22" y1="250.72" x2="221.72" y2="254.60" stroke="#2d5a1b" stroke-width="1.00" />
    <line x1="221.72" y1="254.60" x2="217.23" y2="258.49" stroke="#2d5a1b" stroke-width="1.00" />
    <line x1="226.22" y1="250.72" x2="231.85" y2="252.59" stroke="#2d5a1b" stroke-width="1.00" />
    <line x1="231.85" y1="252.59" x2="237.49" y2="254.47" stroke="#2d5a1b" stroke-width="1.00" />
    <line x1="222.09" y1="229.91" x2="231.30" y2="224.54" stroke="#2d5a1b" stroke-width="5.12" />
    <line x1="231.31" y1="224.67" x2="236.42" y2="227.71" stroke="#2d5a1b" stroke-width="1.00" />
    <line x1="236.42" y1="227.71" x2="241.52" y2="230.75" stroke="#2d5a1b" stroke-width="1.00" />
    <line x1="231.31" y1="224.67" x2="231.31" y2="218.73" stroke="#2d5a1b" stroke-width="1.00" />
    <line x1="231.31" y1="218.73" x2="231.31" y2="212.79" stroke="#2d5a1b" stroke-width="1.00" />
    <line x1="231.31" y1="224.67" x2="240.52" y2="219.30" stroke="#2d5a1b" stroke-width="5.12" />
    <line x1="240.53" y1="219.43" x2="245.64" y2="222.47" stroke="#2d5a1b" stroke-width="1.00" />
    <line x1="245.64" y1="222.47" x2="250.74" y2="225.51" stroke="#2d5a1b" stroke-width="1.00" />
    <line x1="240.53" y1="219.43" x2="240.53" y2="213.49" stroke="#2d5a1b" stroke-width="1.00" />
    <line x1="240.53" y1="213.49" x2="240.53" y2="207.55" stroke="#2d5a1b" stroke-width="1.00" />
    <line x1="222.09" y1="229.91" x2="239.31" y2="238.41" stroke="#2d5a1b" stroke-width="9.25" />
    <line x1="239.31" y1="237.79" x2="241.37" y2="248.07" stroke="#2d5a1b" stroke-width="5.12" />
    <line x1="241.38" y1="248.20" x2="236.88" y2="252.08" stroke="#2d5a1b" stroke-width="1.00" />
    <line x1="236.88" y1="252.08" x2="232.39" y2="255.96" stroke="#2d5a1b" stroke-width="1.00" />
    <line x1="241.38" y1="248.20" x2="247.01" y2="250.07" stroke="#2d5a1b" stroke-width="1.00" />
    <line x1="247.01" y1="250.07" x2="252.65" y2="251.95" stroke="#2d5a1b" stroke-width="1.00" />
    <line x1="241.38" y1="248.20" x2="243.43" y2="258.48" stroke="#2d5a1b" stroke-width="5.12" />
    <line x1="243.44" y1="258.60" x2="238.94" y2="262.48" stroke="#2d5a1b" stroke-width="1.00" />
    <line x1="238.94" y1="262.48" x2="234.45" y2="266.37" stroke="#2d5a1b" stroke-width="1.00" />
    <line x1="243.44" y1="258.60" x2="249.08" y2="260.48" stroke="#2d5a1b" stroke-width="1.00" />
    <line x1="249.08" y1="260.48" x2="254.71" y2="262.35" stroke="#2d5a1b" stroke-width="1.00" />
    <line x1="239.31" y1="237.79" x2="248.53" y2="232.43" stroke="#2d5a1b" stroke-width="5.12" />
    <line x1="248.54" y1="232.55" x2="253.64" y2="235.59" stroke="#2d5a1b" stroke-width="1.00" />
    <line x1="253.64" y1="235.59" x2="258.74" y2="238.63" stroke="#2d5a1b" stroke-width="1.00" />
    <line x1="248.54" y1="232.55" x2="248.54" y2="226.61" stroke="#2d5a1b" stroke-width="1.00" />
    <line x1="248.54" y1="226.61" x2="248.54" y2="220.67" stroke="#2d5a1b" stroke-width="1.00" />
    <line x1="248.54" y1="232.55" x2="257.75" y2="227.18" stroke="#2d5a1b" stroke-width="5.12" />
    <line x1="257.76" y1="227.31" x2="262.86" y2="230.35" stroke="#2d5a1b" stroke-width="1.00" />
    <line x1="262.86" y1="230.35" x2="267.96" y2="233.39" stroke="#2d5a1b" stroke-width="1.00" />
    <line x1="257.76" y1="227.31" x2="257.76" y2="221.37" stroke="#2d5a1b" stroke-width="1.00" />
    <line x1="257.76" y1="221.37" x2="257.76" y2="215.43" stroke="#2d5a1b" stroke-width="1.00" />
    <line x1="204.87" y1="222.03" x2="202.82" y2="203.81" stroke="#2d5a1b" stroke-width="9.25" />
    <line x1="202.82" y1="203.20" x2="210.70" y2="195.98" stroke="#2d5a1b" stroke-width="5.12" />
    <line x1="210.71" y1="196.10" x2="216.35" y2="197.98" stroke="#2d5a1b" stroke-width="1.00" />
    <line x1="216.35" y1="197.98" x2="221.98" y2="199.85" stroke="#2d5a1b" stroke-width="1.00" />
    <line x1="210.71" y1="196.10" x2="209.44" y2="190.30" stroke="#2d5a1b" stroke-width="1.00" />
    <line x1="209.44" y1="190.30" x2="208.16" y2="184.50" stroke="#2d5a1b" stroke-width="1.00" />
    <line x1="210.71" y1="196.10" x2="218.58" y2="188.88" stroke="#2d5a1b" stroke-width="5.12" />
    <line x1="218.59" y1="189.01" x2="224.23" y2="190.88" stroke="#2d5a1b" stroke-width="1.00" />
    <line x1="224.23" y1="190.88" x2="229.87" y2="192.76" stroke="#2d5a1b" stroke-width="1.00" />
    <line x1="218.59" y1="189.01" x2="217.32" y2="183.20" stroke="#2d5a1b" stroke-width="1.00" />
    <line x1="217.32" y1="183.20" x2="216.05" y2="177.40" stroke="#2d5a1b" stroke-width="1.00" />
    <line x1="202.82" y1="203.20" x2="193.59" y2="197.83" stroke="#2d5a1b" stroke-width="5.12" />
    <line x1="193.60" y1="197.96" x2="193.60" y2="192.02" stroke="#2d5a1b" stroke-width="1.00" />
    <line x1="193.60" y1="192.02" x2="193.60" y2="186.08" stroke="#2d5a1b" stroke-width="1.00" />
    <line x1="193.60" y1="197.96" x2="188.50" y2="201.00" stroke="#2d5a1b" stroke-width="1.00" />
    <line x1="188.50" y1="201.00" x2="183.40" y2="204.04" stroke="#2d5a1b" stroke-width="1.00" />
    <line x1="193.60" y1="197.96" x2="184.37" y2="192.59" stroke="#2d5a1b" stroke-width="5.12" />
    <line x1="184.38" y1="192.72" x2="184.38" y2="186.78" stroke="#2d5a1b" stroke-width="1.00" />
    <line x1="184.38" y1="186.78" x2="184.38" y2="180.84" stroke="#2d5a1b" stroke-width="1.00" />
    <line x1="184.38" y1="192.72" x2="179.28" y2="195.76" stroke="#2d5a1b" stroke-width="1.00" />
    <line x1="179.28" y1="195.76" x2="174.17" y2="198.79" stroke="#2d5a1b" stroke-width="1.00" />
    <line x1="202.82" y1="203.20" x2="200.78" y2="184.98" stroke="#2d5a1b" stroke-width="9.25" />
    <line x1="200.78" y1="184.37" x2="208.66" y2="177.14" stroke="#2d5a1b" stroke-width="5.12" />
    <line x1="208.67" y1="177.27" x2="214.30" y2="179.15" stroke="#2d5a1b" stroke-width="1.00" />
    <line x1="214.30" y1="179.15" x2="219.94" y2="181.02" stroke="#2d5a1b" stroke-width="1.00" />
    <line x1="208.67" y1="177.27" x2="207.39" y2="171.47" stroke="#2d5a1b" stroke-width="1.00" />
    <line x1="207.39" y1="171.47" x2="206.12" y2="165.67" stroke="#2d5a1b" stroke-width="1.00" />
    <line x1="208.67" y1="177.27" x2="216.54" y2="170.05" stroke="#2d5a1b" stroke-width="5.12" />
    <line x1="216.55" y1="170.17" x2="222.19" y2="172.05" stroke="#2d5a1b" stroke-width="1.00" />
    <line x1="222.19" y1="172.05" x2="227.82" y2="173.92" stroke="#2d5a1b" stroke-width="1.00" />
    <line x1="216.55" y1="170.17" x2="215.28" y2="164.37" stroke="#2d5a1b" stroke-width="1.00" />
    <line x1="215.28" y1="164.37" x2="214.00" y2="158.57" stroke="#2d5a1b" stroke-width="1.00" />
    <line x1="200.78" y1="184.37" x2="191.55" y2="179.00" stroke="#2d5a1b" stroke-width="5.12" />
    <line x1="191.56" y1="179.13" x2="191.56" y2="173.19" stroke="#2d5a1b" stroke-width="1.00" />
    <line x1="191.56" y1="173.19" x2="191.56" y2="167.25" stroke="#2d5a1b" stroke-width="1.00" />
    <line x1="191.56" y1="179.13" x2="186.46" y2="182.17" stroke="#2d5a1b" stroke-width="1.00" />
    <line x1="186.46" y1="182.17" x2="181.35" y2="185.20" stroke="#2d5a1b" stroke-width="1.00" />
    <line x1="191.56" y1="179.13" x2="182.33" y2="173.76" stroke="#2d5a1b" stroke-width="5.12" />
    <line x1="182.34" y1="173.88" x2="182.34" y2="167.94" stroke="#2d5a1b" stroke-width="1.00" />
    <line x1="182.34" y1="167.94" x2="182.34" y2="162.00" stroke="#2d5a1b" stroke-width="1.00" />
    <line x1="182.34" y1="173.88" x2="177.24" y2="176.92" stroke="#2d5a1b" stroke-width="1.00" />
    <line x1="177.24" y1="176.92" x2="172.13" y2="179.96" stroke="#2d5a1b" stroke-width="1.00" />
    <line x1="150.00" y1="261.60" x2="122.58" y2="242.37" stroke="#2d5a1b" stroke-width="13.38" />
    <line x1="122.57" y1="241.81" x2="124.61" y2="223.60" stroke="#2d5a1b" stroke-width="9.25" />
    <line x1="124.61" y1="222.98" x2="133.82" y2="217.62" stroke="#2d5a1b" stroke-width="5.12" />
    <line x1="133.83" y1="217.74" x2="138.93" y2="220.78" stroke="#2d5a1b" stroke-width="1.00" />
    <line x1="138.93" y1="220.78" x2="144.04" y2="223.82" stroke="#2d5a1b" stroke-width="1.00" />
    <line x1="133.83" y1="217.74" x2="133.83" y2="211.80" stroke="#2d5a1b" stroke-width="1.00" />
    <line x1="133.83" y1="211.80" x2="133.83" y2="205.86" stroke="#2d5a1b" stroke-width="1.00" />
    <line x1="133.83" y1="217.74" x2="143.04" y2="212.38" stroke="#2d5a1b" stroke-width="5.12" />
    <line x1="143.05" y1="212.50" x2="148.16" y2="215.54" stroke="#2d5a1b" stroke-width="1.00" />
    <line x1="148.16" y1="215.54" x2="153.26" y2="218.58" stroke="#2d5a1b" stroke-width="1.00" />
    <line x1="143.05" y1="212.50" x2="143.05" y2="206.56" stroke="#2d5a1b" stroke-width="1.00" />
    <line x1="143.05" y1="206.56" x2="143.05" y2="200.62" stroke="#2d5a1b" stroke-width="1.00" />
    <line x1="124.61" y1="222.98" x2="116.71" y2="215.76" stroke="#2d5a1b" stroke-width="5.12" />
    <line x1="116.72" y1="215.89" x2="118.00" y2="210.09" stroke="#2d5a1b" stroke-width="1.00" />
    <line x1="118.00" y1="210.09" x2="119.27" y2="204.28" stroke="#2d5a1b" stroke-width="1.00" />
    <line x1="116.72" y1="215.89" x2="111.09" y2="217.76" stroke="#2d5a1b" stroke-width="1.00" />
    <line x1="111.09" y1="217.76" x2="105.45" y2="219.64" stroke="#2d5a1b" stroke-width="1.00" />
    <line x1="116.72" y1="215.89" x2="108.83" y2="208.67" stroke="#2d5a1b" stroke-width="5.12" />
    <line x1="108.84" y1="208.79" x2="110.11" y2="202.99" stroke="#2d5a1b" stroke-width="1.00" />
    <line x1="110.11" y1="202.99" x2="111.39" y2="197.19" stroke="#2d5a1b" stroke-width="1.00" />
    <line x1="108.84" y1="208.79" x2="103.20" y2="210.67" stroke="#2d5a1b" stroke-width="1.00" />
    <line x1="103.20" y1="210.67" x2="97.57" y2="212.54" stroke="#2d5a1b" stroke-width="1.00" />
    <line x1="124.61" y1="222.98" x2="126.65" y2="204.77" stroke="#2d5a1b" stroke-width="9.25" />
    <line x1="126.65" y1="204.15" x2="135.86" y2="198.79" stroke="#2d5a1b" stroke-width="5.12" />
    <line x1="135.87" y1="198.91" x2="140.98" y2="201.95" stroke="#2d5a1b" stroke-width="1.00" />
    <line x1="140.98" y1="201.95" x2="146.08" y2="204.99" stroke="#2d5a1b" stroke-width="1.00" />
    <line x1="135.87" y1="198.91" x2="135.87" y2="192.97" stroke="#2d5a1b" stroke-width="1.00" />
    <line x1="135.87" y1="192.97" x2="135.87" y2="187.03" stroke="#2d5a1b" stroke-width="1.00" />
    <line x1="135.87" y1="198.91" x2="145.08" y2="193.54" stroke="#2d5a1b" stroke-width="5.12" />
    <line x1="145.09" y1="193.67" x2="150.20" y2="196.71" stroke="#2d5a1b" stroke-width="1.00" />
    <line x1="150.20" y1="196.71" x2="155.30" y2="199.75" stroke="#2d5a1b" stroke-width="1.00" />
    <line x1="145.09" y1="193.67" x2="145.09" y2="187.73" stroke="#2d5a1b" stroke-width="1.00" />
    <line x1="145.09" y1="187.73" x2="145.09" y2="181.79" stroke="#2d5a1b" stroke-width="1.00" />
    <line x1="126.65" y1="204.15" x2="118.76" y2="196.93" stroke="#2d5a1b" stroke-width="5.12" />
    <line x1="118.77" y1="197.06" x2="120.04" y2="191.25" stroke="#2d5a1b" stroke-width="1.00" />
    <line x1="120.04" y1="191.25" x2="121.31" y2="185.45" stroke="#2d5a1b" stroke-width="1.00" />
    <line x1="118.77" y1="197.06" x2="113.13" y2="198.93" stroke="#2d5a1b" stroke-width="1.00" />
    <line x1="113.13" y1="198.93" x2="107.49" y2="200.81" stroke="#2d5a1b" stroke-width="1.00" />
    <line x1="118.77" y1="197.06" x2="110.87" y2="189.83" stroke="#2d5a1b" stroke-width="5.12" />
    <line x1="110.88" y1="189.96" x2="112.16" y2="184.16" stroke="#2d5a1b" stroke-width="1.00" />
    <line x1="112.16" y1="184.16" x2="113.43" y2="178.36" stroke="#2d5a1b" stroke-width="1.00" />
    <line x1="110.88" y1="189.96" x2="105.25" y2="191.83" stroke="#2d5a1b" stroke-width="1.00" />
    <line x1="105.25" y1="191.83" x2="99.61" y2="193.71" stroke="#2d5a1b" stroke-width="1.00" />
    <line x1="122.57" y1="241.81" x2="105.34" y2="250.31" stroke="#2d5a1b" stroke-width="9.25" />
    <line x1="105.34" y1="249.70" x2="96.11" y2="244.33" stroke="#2d5a1b" stroke-width="5.12" />
    <line x1="96.12" y1="244.45" x2="96.12" y2="238.51" stroke="#2d5a1b" stroke-width="1.00" />
    <line x1="96.12" y1="238.51" x2="96.12" y2="232.57" stroke="#2d5a1b" stroke-width="1.00" />
    <line x1="96.12" y1="244.45" x2="91.02" y2="247.49" stroke="#2d5a1b" stroke-width="1.00" />
    <line x1="91.02" y1="247.49" x2="85.91" y2="250.53" stroke="#2d5a1b" stroke-width="1.00" />
    <line x1="96.12" y1="244.45" x2="86.89" y2="239.09" stroke="#2d5a1b" stroke-width="5.12" />
    <line x1="86.90" y1="239.21" x2="86.90" y2="233.27" stroke="#2d5a1b" stroke-width="1.00" />
    <line x1="86.90" y1="233.27" x2="86.90" y2="227.33" stroke="#2d5a1b" stroke-width="1.00" />
    <line x1="86.90" y1="239.21" x2="81.80" y2="242.25" stroke="#2d5a1b" stroke-width="1.00" />
    <line x1="81.80" y1="242.25" x2="76.69" y2="245.29" stroke="#2d5a1b" stroke-width="1.00" />
    <line x1="105.34" y1="249.70" x2="103.27" y2="259.98" stroke="#2d5a1b" stroke-width="5.12" />
    <line x1="103.28" y1="260.10" x2="97.64" y2="261.98" stroke="#2d5a1b" stroke-width="1.00" />
    <line x1="97.64" y1="261.98" x2="92.01" y2="263.85" stroke="#2d5a1b" stroke-width="1.00" />
    <line x1="103.28" y1="260.10" x2="107.78" y2="263.98" stroke="#2d5a1b" stroke-width="1.00" />
    <line x1="107.78" y1="263.98" x2="112.27" y2="267.87" stroke="#2d5a1b" stroke-width="1.00" />
    <line x1="103.28" y1="260.10" x2="101.21" y2="270.38" stroke="#2d5a1b" stroke-width="5.12" />
    <line x1="101.22" y1="270.51" x2="95.58" y2="272.38" stroke="#2d5a1b" stroke-width="1.00" />
    <line x1="95.58" y1="272.38" x2="89.95" y2="274.26" stroke="#2d5a1b" stroke-width="1.00" />
    <line x1="101.22" y1="270.51" x2="105.71" y2="274.39" stroke="#2d5a1b" stroke-width="1.00" />
    <line x1="105.71" y1="274.39" x2="110.21" y2="278.27" stroke="#2d5a1b" stroke-width="1.00" />
    <line x1="105.34" y1="249.70" x2="88.12" y2="258.19" stroke="#2d5a1b" stroke-width="9.25" />
    <line x1="88.12" y1="257.58" x2="78.89" y2="252.21" stroke="#2d5a1b" stroke-width="5.12" />
    <line x1="78.90" y1="252.34" x2="78.90" y2="246.40" stroke="#2d5a1b" stroke-width="1.00" />
    <line x1="78.90" y1="246.40" x2="78.90" y2="240.46" stroke="#2d5a1b" stroke-width="1.00" />
    <line x1="78.90" y1="252.34" x2="73.79" y2="255.38" stroke="#2d5a1b" stroke-width="1.00" />
    <line x1="73.79" y1="255.38" x2="68.69" y2="258.42" stroke="#2d5a1b" stroke-width="1.00" />
    <line x1="78.90" y1="252.34" x2="69.67" y2="246.97" stroke="#2d5a1b" stroke-width="5.12" />
    <line x1="69.68" y1="247.10" x2="69.68" y2="241.16" stroke="#2d5a1b" stroke-width="1.00" />
    <line x1="69.68" y1="241.16" x2="69.68" y2="235.22" stroke="#2d5a1b" stroke-width="1.00" />
    <line x1="69.68" y1="247.10" x2="64.57" y2="250.14" stroke="#2d5a1b" stroke-width="1.00" />
    <line x1="64.57" y1="250.14" x2="59.47" y2="253.17" stroke="#2d5a1b" stroke-width="1.00" />
    <line x1="88.12" y1="257.58" x2="86.05" y2="267.86" stroke="#2d5a1b" stroke-width="5.12" />
    <line x1="86.06" y1="267.98" x2="80.42" y2="269.86" stroke="#2d5a1b" stroke-width="1.00" />
    <line x1="80.42" y1="269.86" x2="74.78" y2="271.73" stroke="#2d5a1b" stroke-width="1.00" />
    <line x1="86.06" y1="267.98" x2="90.55" y2="271.87" stroke="#2d5a1b" stroke-width="1.00" />
    <line x1="90.55" y1="271.87" x2="95.05" y2="275.75" stroke="#2d5a1b" stroke-width="1.00" />
    <line x1="86.06" y1="267.98" x2="83.98" y2="278.26" stroke="#2d5a1b" stroke-width="5.12" />
    <line x1="83.99" y1="278.39" x2="78.36" y2="280.26" stroke="#2d5a1b" stroke-width="1.00" />
    <line x1="78.36" y1="280.26" x2="72.72" y2="282.14" stroke="#2d5a1b" stroke-width="1.00" />
    <line x1="83.99" y1="278.39" x2="88.49" y2="282.27" stroke="#2d5a1b" stroke-width="1.00" />
    <line x1="88.49" y1="282.27" x2="92.98" y2="286.15" stroke="#2d5a1b" stroke-width="1.00" />
    <line x1="122.57" y1="241.81" x2="95.15" y2="222.59" stroke="#2d5a1b" stroke-width="13.38" />
    <line x1="95.13" y1="222.03" x2="97.17" y2="203.81" stroke="#2d5a1b" stroke-width="9.25" />
    <line x1="97.18" y1="203.20" x2="106.39" y2="197.83" stroke="#2d5a1b" stroke-width="5.12" />
    <line x1="106.40" y1="197.96" x2="111.50" y2="201.00" stroke="#2d5a1b" stroke-width="1.00" />
    <line x1="111.50" y1="201.00" x2="116.60" y2="204.04" stroke="#2d5a1b" stroke-width="1.00" />
    <line x1="106.40" y1="197.96" x2="106.40" y2="192.02" stroke="#2d5a1b" stroke-width="1.00" />
    <line x1="106.40" y1="192.02" x2="106.40" y2="186.08" stroke="#2d5a1b" stroke-width="1.00" />
    <line x1="106.40" y1="197.96" x2="115.61" y2="192.59" stroke="#2d5a1b" stroke-width="5.12" />
    <line x1="115.62" y1="192.72" x2="120.72" y2="195.76" stroke="#2d5a1b" stroke-width="1.00" />
    <line x1="120.72" y1="195.76" x2="125.83" y2="198.79" stroke="#2d5a1b" stroke-width="1.00" />
    <line x1="115.62" y1="192.72" x2="115.62" y2="186.78" stroke="#2d5a1b" stroke-width="1.00" />
    <line x1="115.62" y1="186.78" x2="115.62" y2="180.84" stroke="#2d5a1b" stroke-width="1.00" />
    <line x1="97.18" y1="203.20" x2="89.28" y2="195.98" stroke="#2d5a1b" stroke-width="5.12" />
    <line x1="89.29" y1="196.10" x2="90.56" y2="190.30" stroke="#2d5a1b" stroke-width="1.00" />
    <line x1="90.56" y1="190.30" x2="91.84" y2="184.50" stroke="#2d5a1b" stroke-width="1.00" />
    <line x1="89.29" y1="196.10" x2="83.65" y2="197.98" stroke="#2d5a1b" stroke-width="1.00" />
    <line x1="83.65" y1="197.98" x2="78.02" y2="199.85" stroke="#2d5a1b" stroke-width="1.00" />
    <line x1="89.29" y1="196.10" x2="81.40" y2="188.88" stroke="#2d5a1b" stroke-width="5.12" />
    <line x1="81.41" y1="189.01" x2="82.68" y2="183.20" stroke="#2d5a1b" stroke-width="1.00" />
    <line x1="82.68" y1="183.20" x2="83.95" y2="177.40" stroke="#2d5a1b" stroke-width="1.00" />
    <line x1="81.41" y1="189.01" x2="75.77" y2="190.88" stroke="#2d5a1b" stroke-width="1.00" />
    <line x1="75.77" y1="190.88" x2="70.13" y2="192.76" stroke="#2d5a1b" stroke-width="1.00" />
    <line x1="97.18" y1="203.20" x2="99.21" y2="184.98" stroke="#2d5a1b" stroke-width="9.25" />
    <line x1="99.22" y1="184.37" x2="108.43" y2="179.00" stroke="#2d5a1b" stroke-width="5.12" />
    <line x1="108.44" y1="179.13" x2="113.54" y2="182.17" stroke="#2d5a1b" stroke-width="1.00" />
    <line x1="113.54" y1="182.17" x2="118.65" y2="185.20" stroke="#2d5a1b" stroke-width="1.00" />
    <line x1="108.44" y1="179.13" x2="108.44" y2="173.19" stroke="#2d5a1b" stroke-width="1.00" />
    <line x1="108.44" y1="173.19" x2="108.44" y2="167.25" stroke="#2d5a1b" stroke-width="1.00" />
    <line x1="108.44" y1="179.13" x2="117.65" y2="173.76" stroke="#2d5a1b" stroke-width="5.12" />
    <line x1="117.66" y1="173.88" x2="122.76" y2="176.92" stroke="#2d5a1b" stroke-width="1.00" />
    <line x1="122.76" y1="176.92" x2="127.87" y2="179.96" stroke="#2d5a1b" stroke-width="1.00" />
    <line x1="117.66" y1="173.88" x2="117.66" y2="167.94" stroke="#2d5a1b" stroke-width="1.00" />
    <line x1="117.66" y1="167.94" x2="117.66" y2="162.00" stroke="#2d5a1b" stroke-width="1.00" />
    <line x1="99.22" y1="184.37" x2="91.32" y2="177.14" stroke="#2d5a1b" stroke-width="5.12" />
    <line x1="91.33" y1="177.27" x2="92.61" y2="171.47" stroke="#2d5a1b" stroke-width="1.00" />
    <line x1="92.61" y1="171.47" x2="93.88" y2="165.67" stroke="#2d5a1b" stroke-width="1.00" />
    <line x1="91.33" y1="177.27" x2="85.70" y2="179.15" stroke="#2d5a1b" stroke-width="1.00" />
    <line x1="85.70" y1="179.15" x2="80.06" y2="181.02" stroke="#2d5a1b" stroke-width="1.00" />
    <line x1="91.33" y1="177.27" x2="83.44" y2="170.05" stroke="#2d5a1b" stroke-width="5.12" />
    <line x1="83.45" y1="170.17" x2="84.72" y2="164.37" stroke="#2d5a1b" stroke-width="1.00" />
    <line x1="84.72" y1="164.37" x2="86.00" y2="158.57" stroke="#2d5a1b" stroke-width="1.00" />
    <line x1="83.45" y1="170.17" x2="77.81" y2="172.05" stroke="#2d5a1b" stroke-width="1.00" />
    <line x1="77.81" y1="172.05" x2="72.18" y2="173.92" stroke="#2d5a1b" stroke-width="1.00" />
    <line x1="95.13" y1="222.03" x2="77.91" y2="230.53" stroke="#2d5a1b" stroke-width="9.25" />
    <line x1="77.91" y1="229.91" x2="68.68" y2="224.54" stroke="#2d5a1b" stroke-width="5.12" />
    <line x1="68.69" y1="224.67" x2="68.69" y2="218.73" stroke="#2d5a1b" stroke-width="1.00" />
    <line x1="68.69" y1="218.73" x2="68.69" y2="212.79" stroke="#2d5a1b" stroke-width="1.00" />
    <line x1="68.69" y1="224.67" x2="63.58" y2="227.71" stroke="#2d5a1b" stroke-width="1.00" />
    <line x1="63.58" y1="227.71" x2="58.48" y2="230.75" stroke="#2d5a1b" stroke-width="1.00" />
    <line x1="68.69" y1="224.67" x2="59.46" y2="219.30" stroke="#2d5a1b" stroke-width="5.12" />
    <line x1="59.47" y1="219.43" x2="59.47" y2="213.49" stroke="#2d5a1b" stroke-width="1.00" />
    <line x1="59.47" y1="213.49" x2="59.47" y2="207.55" stroke="#2d5a1b" stroke-width="1.00" />
    <line x1="59.47" y1="219.43" x2="54.36" y2="222.47" stroke="#2d5a1b" stroke-width="1.00" />
    <line x1="54.36" y1="222.47" x2="49.26" y2="225.51" stroke="#2d5a1b" stroke-width="1.00" />
    <line x1="77.91" y1="229.91" x2="75.84" y2="240.19" stroke="#2d5a1b" stroke-width="5.12" />
    <line x1="75.85" y1="240.32" x2="70.21" y2="242.19" stroke="#2d5a1b" stroke-width="1.00" />
    <line x1="70.21" y1="242.19" x2="64.57" y2="244.07" stroke="#2d5a1b" stroke-width="1.00" />
    <line x1="75.85" y1="240.32" x2="80.34" y2="244.20" stroke="#2d5a1b" stroke-width="1.00" />
    <line x1="80.34" y1="244.20" x2="84.84" y2="248.08" stroke="#2d5a1b" stroke-width="1.00" />
    <line x1="75.85" y1="240.32" x2="73.77" y2="250.59" stroke="#2d5a1b" stroke-width="5.12" />
    <line x1="73.78" y1="250.72" x2="68.15" y2="252.59" stroke="#2d5a1b" stroke-width="1.00" />
    <line x1="68.15" y1="252.59" x2="62.51" y2="254.47" stroke="#2d5a1b" stroke-width="1.00" />
    <line x1="73.78" y1="250.72" x2="78.28" y2="254.60" stroke="#2d5a1b" stroke-width="1.00" />
    <line x1="78.28" y1="254.60" x2="82.77" y2="258.49" stroke="#2d5a1b" stroke-width="1.00" />
    <line x1="77.91" y1="229.91" x2="60.68" y2="238.41" stroke="#2d5a1b" stroke-width="9.25" />
    <line x1="60.69" y1="237.79" x2="51.45" y2="232.43" stroke="#2d5a1b" stroke-width="5.12" />
    <line x1="51.46" y1="232.55" x2="51.46" y2="226.61" stroke="#2d5a1b" stroke-width="1.00" />
    <line x1="51.46" y1="226.61" x2="51.46" y2="220.67" stroke="#2d5a1b" stroke-width="1.00" />
    <line x1="51.46" y1="232.55" x2="46.36" y2="235.59" stroke="#2d5a1b" stroke-width="1.00" />
    <line x1="46.36" y1="235.59" x2="41.26" y2="238.63" stroke="#2d5a1b" stroke-width="1.00" />
    <line x1="51.46" y1="232.55" x2="42.23" y2="227.18" stroke="#2d5a1b" stroke-width="5.12" />
    <line x1="42.24" y1="227.31" x2="42.24" y2="221.37" stroke="#2d5a1b" stroke-width="1.00" />
    <line x1="42.24" y1="221.37" x2="42.24" y2="215.43" stroke="#2d5a1b" stroke-width="1.00" />
    <line x1="42.24" y1="227.31" x2="37.14" y2="230.35" stroke="#2d5a1b" stroke-width="1.00" />
    <line x1="37.14" y1="230.35" x2="32.04" y2="233.39" stroke="#2d5a1b" stroke-width="1.00" />
    <line x1="60.69" y1="237.79" x2="58.61" y2="248.07" stroke="#2d5a1b" stroke-width="5.12" />
    <line x1="58.62" y1="248.20" x2="52.99" y2="250.07" stroke="#2d5a1b" stroke-width="1.00" />
    <line x1="52.99" y1="250.07" x2="47.35" y2="251.95" stroke="#2d5a1b" stroke-width="1.00" />
    <line x1="58.62" y1="248.20" x2="63.12" y2="252.08" stroke="#2d5a1b" stroke-width="1.00" />
    <line x1="63.12" y1="252.08" x2="67.61" y2="255.96" stroke="#2d5a1b" stroke-width="1.00" />
    <line x1="58.62" y1="248.20" x2="56.55" y2="258.48" stroke="#2d5a1b" stroke-width="5.12" />
    <line x1="56.56" y1="258.60" x2="50.92" y2="260.48" stroke="#2d5a1b" stroke-width="1.00" />
    <line x1="50.92" y1="260.48" x2="45.29" y2="262.35" stroke="#2d5a1b" stroke-width="1.00" />
    <line x1="56.56" y1="258.60" x2="61.06" y2="262.48" stroke="#2d5a1b" stroke-width="1.00" />
    <line x1="61.06" y1="262.48" x2="65.55" y2="266.37" stroke="#2d5a1b" stroke-width="1.00" />
    <line x1="150.00" y1="261.60" x2="150.81" y2="200.05" stroke="#2d1a0e" stroke-width="17.50" />
    <line x1="150.00" y1="201.20" x2="177.45" y2="181.97" stroke="#2d5a1b" stroke-width="13.38" />
    <line x1="177.43" y1="181.41" x2="194.65" y2="189.91" stroke="#2d5a1b" stroke-width="9.25" />
    <line x1="194.66" y1="189.30" x2="196.71" y2="199.58" stroke="#2d5a1b" stroke-width="5.12" />
    <line x1="196.72" y1="199.70" x2="198.77" y2="209.98" stroke="#2d5a1b" stroke-width="5.12" />
    <line x1="194.66" y1="189.30" x2="203.87" y2="183.93" stroke="#2d5a1b" stroke-width="5.12" />
    <line x1="203.88" y1="184.05" x2="213.09" y2="178.69" stroke="#2d5a1b" stroke-width="5.12" />
    <line x1="194.66" y1="189.30" x2="211.88" y2="197.79" stroke="#2d5a1b" stroke-width="9.25" />
    <line x1="211.88" y1="197.18" x2="213.93" y2="207.46" stroke="#2d5a1b" stroke-width="5.12" />
    <line x1="213.94" y1="207.58" x2="216.00" y2="217.86" stroke="#2d5a1b" stroke-width="5.12" />
    <line x1="211.88" y1="197.18" x2="221.09" y2="191.81" stroke="#2d5a1b" stroke-width="5.12" />
    <line x1="221.10" y1="191.94" x2="230.31" y2="186.57" stroke="#2d5a1b" stroke-width="5.12" />
    <line x1="177.43" y1="181.41" x2="175.39" y2="163.20" stroke="#2d5a1b" stroke-width="9.25" />
    <line x1="175.39" y1="162.58" x2="183.27" y2="155.36" stroke="#2d5a1b" stroke-width="5.12" />
    <line x1="183.28" y1="155.49" x2="191.15" y2="148.27" stroke="#2d5a1b" stroke-width="5.12" />
    <line x1="175.39" y1="162.58" x2="166.16" y2="157.22" stroke="#2d5a1b" stroke-width="5.12" />
    <line x1="166.17" y1="157.34" x2="156.94" y2="151.98" stroke="#2d5a1b" stroke-width="5.12" />
    <line x1="175.39" y1="162.58" x2="173.35" y2="144.37" stroke="#2d5a1b" stroke-width="9.25" />
    <line x1="173.35" y1="143.75" x2="181.22" y2="136.53" stroke="#2d5a1b" stroke-width="5.12" />
    <line x1="181.23" y1="136.66" x2="189.11" y2="129.43" stroke="#2d5a1b" stroke-width="5.12" />
    <line x1="173.35" y1="143.75" x2="164.12" y2="138.39" stroke="#2d5a1b" stroke-width="5.12" />
    <line x1="164.13" y1="138.51" x2="154.90" y2="133.14" stroke="#2d5a1b" stroke-width="5.12" />
    <line x1="177.43" y1="181.41" x2="204.88" y2="162.19" stroke="#2d5a1b" stroke-width="13.38" />
    <line x1="204.87" y1="161.63" x2="222.09" y2="170.13" stroke="#2d5a1b" stroke-width="9.25" />
    <line x1="222.09" y1="169.51" x2="224.14" y2="179.79" stroke="#2d5a1b" stroke-width="5.12" />
    <line x1="224.15" y1="179.92" x2="226.21" y2="190.19" stroke="#2d5a1b" stroke-width="5.12" />
    <line x1="222.09" y1="169.51" x2="231.30" y2="164.14" stroke="#2d5a1b" stroke-width="5.12" />
    <line x1="231.31" y1="164.27" x2="240.52" y2="158.90" stroke="#2d5a1b" stroke-width="5.12" />
    <line x1="222.09" y1="169.51" x2="239.31" y2="178.01" stroke="#2d5a1b" stroke-width="9.25" />
    <line x1="239.31" y1="177.39" x2="241.37" y2="187.67" stroke="#2d5a1b" stroke-width="5.12" />
    <line x1="241.38" y1="187.80" x2="243.43" y2="198.08" stroke="#2d5a1b" stroke-width="5.12" />
    <line x1="239.31" y1="177.39" x2="248.53" y2="172.03" stroke="#2d5a1b" stroke-width="5.12" />
    <line x1="248.54" y1="172.15" x2="257.75" y2="166.78" stroke="#2d5a1b" stroke-width="5.12" />
    <line x1="204.87" y1="161.63" x2="202.82" y2="143.41" stroke="#2d5a1b" stroke-width="9.25" />
    <line x1="202.82" y1="142.80" x2="210.70" y2="135.58" stroke="#2d5a1b" stroke-width="5.12" />
    <line x1="210.71" y1="135.70" x2="218.58" y2="128.48" stroke="#2d5a1b" stroke-width="5.12" />
    <line x1="202.82" y1="142.80" x2="193.59" y2="137.43" stroke="#2d5a1b" stroke-width="5.12" />
    <line x1="193.60" y1="137.56" x2="184.37" y2="132.19" stroke="#2d5a1b" stroke-width="5.12" />
    <line x1="202.82" y1="142.80" x2="200.78" y2="124.58" stroke="#2d5a1b" stroke-width="9.25" />
    <line x1="200.78" y1="123.97" x2="208.66" y2="116.74" stroke="#2d5a1b" stroke-width="5.12" />
    <line x1="208.67" y1="116.87" x2="216.54" y2="109.65" stroke="#2d5a1b" stroke-width="5.12" />
    <line x1="200.78" y1="123.97" x2="191.55" y2="118.60" stroke="#2d5a1b" stroke-width="5.12" />
    <line x1="191.56" y1="118.73" x2="182.33" y2="113.36" stroke="#2d5a1b" stroke-width="5.12" />
    <line x1="150.00" y1="201.20" x2="122.58" y2="181.97" stroke="#2d5a1b" stroke-width="13.38" />
    <line x1="122.57" y1="181.41" x2="124.61" y2="163.20" stroke="#2d5a1b" stroke-width="9.25" />
    <line x1="124.61" y1="162.58" x2="133.82" y2="157.22" stroke="#2d5a1b" stroke-width="5.12" />
    <line x1="133.83" y1="157.34" x2="143.04" y2="151.98" stroke="#2d5a1b" stroke-width="5.12" />
    <line x1="124.61" y1="162.58" x2="116.71" y2="155.36" stroke="#2d5a1b" stroke-width="5.12" />
    <line x1="116.72" y1="155.49" x2="108.83" y2="148.27" stroke="#2d5a1b" stroke-width="5.12" />
    <line x1="124.61" y1="162.58" x2="126.65" y2="144.37" stroke="#2d5a1b" stroke-width="9.25" />
    <line x1="126.65" y1="143.75" x2="135.86" y2="138.39" stroke="#2d5a1b" stroke-width="5.12" />
    <line x1="135.87" y1="138.51" x2="145.08" y2="133.14" stroke="#2d5a1b" stroke-width="5.12" />
    <line x1="126.65" y1="143.75" x2="118.76" y2="136.53" stroke="#2d5a1b" stroke-width="5.12" />
    <line x1="118.77" y1="136.66" x2="110.87" y2="129.43" stroke="#2d5a1b" stroke-width="5.12" />
    <line x1="122.57" y1="181.41" x2="105.34" y2="189.91" stroke="#2d5a1b" stroke-width="9.25" />
    <line x1="105.34" y1="189.30" x2="96.11" y2="183.93" stroke="#2d5a1b" stroke-width="5.12" />
    <line x1="96.12" y1="184.05" x2="86.89" y2="178.69" stroke="#2d5a1b" stroke-width="5.12" />
    <line x1="105.34" y1="189.30" x2="103.27" y2="199.58" stroke="#2d5a1b" stroke-width="5.12" />
    <line x1="103.28" y1="199.70" x2="101.21" y2="209.98" stroke="#2d5a1b" stroke-width="5.12" />
    <line x1="105.34" y1="189.30" x2="88.12" y2="197.79" stroke="#2d5a1b" stroke-width="9.25" />
    <line x1="88.12" y1="197.18" x2="78.89" y2="191.81" stroke="#2d5a1b" stroke-width="5.12" />
    <line x1="78.90" y1="191.94" x2="69.67" y2="186.57" stroke="#2d5a1b" stroke-width="5.12" />
    <line x1="88.12" y1="197.18" x2="86.05" y2="207.46" stroke="#2d5a1b" stroke-width="5.12" />
    <line x1="86.06" y1="207.58" x2="83.98" y2="217.86" stroke="#2d5a1b" stroke-width="5.12" />
    <line x1="122.57" y1="181.41" x2="95.15" y2="162.19" stroke="#2d5a1b" stroke-width="13.38" />
    <line x1="95.13" y1="161.63" x2="97.17" y2="143.41" stroke="#2d5a1b" stroke-width="9.25" />
    <line x1="97.18" y1="142.80" x2="106.39" y2="137.43" stroke="#2d5a1b" stroke-width="5.12" />
    <line x1="106.40" y1="137.56" x2="115.61" y2="132.19" stroke="#2d5a1b" stroke-width="5.12" />
    <line x1="97.18" y1="142.80" x2="89.28" y2="135.58" stroke="#2d5a1b" stroke-width="5.12" />
    <line x1="89.29" y1="135.70" x2="81.40" y2="128.48" stroke="#2d5a1b" stroke-width="5.12" />
    <line x1="97.18" y1="142.80" x2="99.21" y2="124.58" stroke="#2d5a1b" stroke-width="9.25" />
    <line x1="99.22" y1="123.97" x2="108.43" y2="118.60" stroke="#2d5a1b" stroke-width="5.12" />
    <line x1="108.44" y1="118.73" x2="117.65" y2="113.36" stroke="#2d5a1b" stroke-width="5.12" />
    <line x1="99.22" y1="123.97" x2="91.32" y2="116.74" stroke="#2d5a1b" stroke-width="5.12" />
    <line x1="91.33" y1="116.87" x2="83.44" y2="109.65" stroke="#2d5a1b" stroke-width="5.12" />
    <line x1="95.13" y1="161.63" x2="77.91" y2="170.13" stroke="#2d5a1b" stroke-width="9.25" />
    <line x1="77.91" y1="169.51" x2="68.68" y2="164.14" stroke="#2d5a1b" stroke-width="5.12" />
    <line x1="68.69" y1="164.27" x2="59.46" y2="158.90" stroke="#2d5a1b" stroke-width="5.12" />
    <line x1="77.91" y1="169.51" x2="75.84" y2="179.79" stroke="#2d5a1b" stroke-width="5.12" />
    <line x1="75.85" y1="179.92" x2="73.77" y2="190.19" stroke="#2d5a1b" stroke-width="5.12" />
    <line x1="77.91" y1="169.51" x2="60.68" y2="178.01" stroke="#2d5a1b" stroke-width="9.25" />
    <line x1="60.69" y1="177.39" x2="51.45" y2="172.03" stroke="#2d5a1b" stroke-width="5.12" />
    <line x1="51.46" y1="172.15" x2="42.23" y2="166.78" stroke="#2d5a1b" stroke-width="5.12" />
    <line x1="60.69" y1="177.39" x2="58.61" y2="187.67" stroke="#2d5a1b" stroke-width="5.12" />
    <line x1="58.62" y1="187.80" x2="56.55" y2="198.08" stroke="#2d5a1b" stroke-width="5.12" />
    <line x1="150.00" y1="201.20" x2="150.81" y2="139.65" stroke="#2d1a0e" stroke-width="17.50" />
    <line x1="150.00" y1="140.80" x2="177.45" y2="121.57" stroke="#2d5a1b" stroke-width="13.38" />
    <line x1="177.43" y1="121.01" x2="194.65" y2="129.51" stroke="#2d5a1b" stroke-width="9.25" />
    <line x1="194.66" y1="128.90" x2="211.88" y2="137.39" stroke="#2d5a1b" stroke-width="9.25" />
    <line x1="177.43" y1="121.01" x2="175.39" y2="102.80" stroke="#2d5a1b" stroke-width="9.25" />
    <line x1="175.39" y1="102.18" x2="173.35" y2="83.97" stroke="#2d5a1b" stroke-width="9.25" />
    <line x1="177.43" y1="121.01" x2="204.88" y2="101.79" stroke="#2d5a1b" stroke-width="13.38" />
    <line x1="204.87" y1="101.23" x2="222.09" y2="109.73" stroke="#2d5a1b" stroke-width="9.25" />
    <line x1="222.09" y1="109.11" x2="239.31" y2="117.61" stroke="#2d5a1b" stroke-width="9.25" />
    <line x1="204.87" y1="101.23" x2="202.82" y2="83.01" stroke="#2d5a1b" stroke-width="9.25" />
    <line x1="202.82" y1="82.40" x2="200.78" y2="64.18" stroke="#2d5a1b" stroke-width="9.25" />
    <line x1="150.00" y1="140.80" x2="122.58" y2="121.57" stroke="#2d5a1b" stroke-width="13.38" />
    <line x1="122.57" y1="121.01" x2="124.61" y2="102.80" stroke="#2d5a1b" stroke-width="9.25" />
    <line x1="124.61" y1="102.18" x2="126.65" y2="83.97" stroke="#2d5a1b" stroke-width="9.25" />
    <line x1="122.57" y1="121.01" x2="105.34" y2="129.51" stroke="#2d5a1b" stroke-width="9.25" />
    <line x1="105.34" y1="128.90" x2="88.12" y2="137.39" stroke="#2d5a1b" stroke-width="9.25" />
    <line x1="122.57" y1="121.01" x2="95.15" y2="101.79" stroke="#2d5a1b" stroke-width="13.38" />
    <line x1="95.13" y1="101.23" x2="97.17" y2="83.01" stroke="#2d5a1b" stroke-width="9.25" />
    <line x1="97.18" y1="82.40" x2="99.21" y2="64.18" stroke="#2d5a1b" stroke-width="9.25" />
    <line x1="95.13" y1="101.23" x2="77.91" y2="109.73" stroke="#2d5a1b" stroke-width="9.25" />
    <line x1="77.91" y1="109.11" x2="60.68" y2="117.61" stroke="#2d5a1b" stroke-width="9.25" />
    <line x1="150.00" y1="140.80" x2="150.81" y2="79.25" stroke="#2d1a0e" stroke-width="17.50" />
    <line x1="150.00" y1="80.40" x2="177.45" y2="61.17" stroke="#2d5a1b" stroke-width="13.38" />
    <line x1="177.43" y1="60.61" x2="204.88" y2="41.39" stroke="#2d5a1b" stroke-width="13.38" />
    <line x1="150.00" y1="80.40" x2="122.58" y2="61.17" stroke="#2d5a1b" stroke-width="13.38" />
    <line x1="122.57" y1="60.61" x2="95.15" y2="41.39" stroke="#2d5a1b" stroke-width="13.38" />
    <line x1="150.00" y1="80.40" x2="150.81" y2="18.85" stroke="#2d1a0e" stroke-width="17.50" />
  </g>
</svg>