<svg xmlns="http://www.w3.org/2000/svg" viewBox="0 0 300 350" width="300" height="350">
  <defs>
    <clipPath id="crownClip">
      <polygon points="288.04,186.50 289.82,193.37 290.49,200.34 289.97,207.26 288.79,214.11 286.93,220.80 284.37,227.26 281.22,233.45 277.66,239.38 273.66,244.99 269.28,250.26 264.51,255.13 259.36,259.57 253.97,263.61 248.46,267.30 242.84,270.65 237.11,273.61 231.30,276.20 225.51,278.51 219.72,280.51 213.93,282.18 208.13,283.49 202.37,284.48 196.78,285.40 191.31,286.23 185.92,286.89 180.58,287.31 175.29,287.47 170.11,287.60 165.02,287.76 159.99,287.91 154.99,287.99 150.00,287.95 145.02,287.85 140.03,287.78 134.99,287.68 129.91,287.49 124.78,287.19 119.57,286.80 114.28,286.34 108.90,285.72 103.51,284.80 98.16,283.48 92.71,282.08 87.06,280.70 81.32,279.10 75.70,277.03 70.15,274.60 64.48,272.02 58.78,269.18 53.27,265.88 48.11,262.07 43.23,257.84 38.78,253.16 34.79,248.08 30.71,242.92 26.54,237.64 22.75,232.03 19.75,226.01 17.45,219.70 15.33,213.29 13.52,206.74 12.33,200.06 11.86,193.29 11.96,186.50 12.63,179.75 13.83,173.09 15.15,166.50 16.68,159.98 18.83,153.64 21.86,147.63 25.17,141.84 28.41,136.14 31.93,130.66 36.13,125.64 40.98,121.16 45.92,116.96 51.00,113.07 56.28,109.59 61.46,106.25 66.60,103.10 71.87,100.30 77.46,98.11 83.31,96.58 89.06,95.30 94.63,94.12 100.01,92.97 105.26,91.90 110.42,90.95 115.54,90.20 120.63,89.67 125.62,89.18 130.56,88.75 135.47,88.53 140.36,88.58 145.18,88.49 150.00,88.03 154.86,87.54 159.77,87.34 164.69,87.43 169.68,87.55 174.71,87.86 179.73,88.48 184.86,89.08 190.15,89.58 195.51,90.29 200.76,91.54 205.85,93.32 211.02,95.18 216.28,97.13 221.64,99.21 227.37,101.14 233.40,103.10 239.44,105.44 245.10,108.45 250.16,112.22 254.94,116.38 259.38,120.94 263.45,125.86 267.70,130.83 272.12,135.92 276.15,141.36 279.35,147.26 281.96,153.45 284.42,159.76 286.27,166.29 287.10,173.00 287.55,179.74" />
    </clipPath>
  </defs>
  <rect width="100%" height="100%" fill="none" />
  <rect x="143.20" y="297.50" width="13.59" height="52.50" fill="#2d1a0e" rx="2.04" />
  <g stroke-linecap="round" stroke-linejoin="round" clip-path="url(#crownClip)">
    <line x1="150.00" y1="297.50" x2="150.00" y2="277.69" stroke="#2d1a0e" stroke-width="15.00" />
    <line x1="150.00" y1="277.68" x2="150.00" y2="257.87" stroke="#2d1a0e" stroke-width="15.00" />
    <line x1="150.00" y1="257.86" x2="150.00" y2="238.05" stroke="#2d1a0e" stroke-width="15.00" />
    <line x1="150.00" y1="238.04" x2="150.00" y2="218.23" stroke="#2d1a0e" stroke-width="15.00" />
    <line x1="150.00" y1="218.21" x2="156.94" y2="206.17" stroke="#2d5a1b" stroke-width="8.00" />
    <line x1="156.94" y1="206.20" x2="163.87" y2="194.15" stroke="#2d5a1b" stroke-width="8.00" />
    <line x1="163.87" y1="194.18" x2="172.29" y2="189.33" stroke="#2d5a1b" stroke-width="1.00" />
    <line x1="172.29" y1="189.33" x2="180.70" y2="184.47" stroke="#2d5a1b" stroke-width="1.00" />
    <line x1="163.87" y1="194.18" x2="163.87" y2="184.47" stroke="#2d5a1b" stroke-width="1.00" />
    <line x1="163.87" y1="184.47" x2="163.87" y2="174.76" stroke="#2d5a1b" stroke-width="1.00" />
    <line x1="163.87" y1="194.18" x2="170.81" y2="182.14" stroke="#2d5a1b" stroke-width="8.00" />
    <line x1="170.81" y1="182.17" x2="177.75" y2="170.12" stroke="#2d5a1b" stroke-width="8.00" />
    <line x1="177.75" y1="170.15" x2="184.69" y2="158.11" stroke="#2d5a1b" stroke-width="8.00" />
    <line x1="184.69" y1="158.13" x2="191.62" y2="146.09" stroke="#2d5a1b" stroke-width="8.00" />
    <line x1="150.00" y1="218.21" x2="143.06" y2="206.17" stroke="#2d5a1b" stroke-width="8.00" />
    <line x1="143.06" y1="206.20" x2="136.12" y2="194.15" stroke="#2d5a1b" stroke-width="8.00" />
    <line x1="136.12" y1="194.18" x2="136.12" y2="184.47" stroke="#2d5a1b" stroke-width="1.00" />
    <line x1="136.12" y1="184.47" x2="136.12" y2="174.76" stroke="#2d5a1b" stroke-width="1.00" />
    <line x1="136.12" y1="194.18" x2="127.71" y2="189.33" stroke="#2d5a1b" stroke-width="1.00" />
    <line x1="127.71" y1="189.33" x2="119.30" y2="184.47" stroke="#2d5a1b" stroke-width="1.00" />
    <line x1="136.12" y1="194.18" x2="129.19" y2="182.14" stroke="#2d5a1b" stroke-width="8.00" />
    <line x1="129.19" y1="182.17" x2="122.25" y2="170.12" stroke="#2d5a1b" stroke-width="8.00" />
    <line x1="122.25" y1="170.15" x2="115.31" y2="158.11" stroke="#2d5a1b" stroke-width="8.00" />
    <line x1="115.31" y1="158.13" x2="108.38" y2="146.09" stroke="#2d5a1b" stroke-width="8.00" />
    <line x1="150.00" y1="218.21" x2="150.00" y2="198.40" stroke="#2d1a0e" stroke-width="15.00" />
    <line x1="150.00" y1="198.39" x2="150.00" y2="178.58" stroke="#2d1a0e" stroke-width="15.00" />
    <line x1="150.00" y1="178.57" x2="150.00" y2="158.76" stroke="#2d1a0e" stroke-width="15.00" />
    <line x1="150.00" y1="158.75" x2="150.00" y2="138.94" stroke="#2d1a0e" stroke-width="15.00" />
    <line x1="150.00" y1="138.93" x2="150.00" y2="119.12" stroke="#2d1a0e" stroke-width="15.00" />
    <line x1="150.00" y1="119.11" x2="150.00" y2="99.30" stroke="#2d1a0e" stroke-width="15.00" />
    <line x1="150.00" y1="99.29" x2="156.94" y2="87.24" stroke="#2d5a1b" stroke-width="8.00" />
    <line x1="156.94" y1="87.27" x2="163.88" y2="75.22" stroke="#2d5a1b" stroke-width="8.00" />
    <line x1="150.00" y1="99.29" x2="143.06" y2="87.24" stroke="#2d5a1b" stroke-width="8.00" />
    <line x1="143.06" y1="87.27" x2="136.12" y2="75.22" stroke="#2d5a1b" stroke-width="8.00" />
    <line x1="150.00" y1="99.29" x2="150.00" y2="79.48" stroke="#2d1a0e" stroke-width="15.00" />
    <line x1="150.00" y1="79.46" x2="150.00" y2="59.65" stroke="#2d1a0e" stroke-width="15.00" />
    <line x1="150.00" y1="59.64" x2="150.00" y2="39.83" stroke="#2d1a0e" stroke-width="15.00" />
    <line x1="150.00" y1="39.82" x2="150.00" y2="20.01" stroke="#2d1a0e" stroke-width="15.00" />
  </g>
  <polygon points="292.24,186.50 292.62,193.51 292.26,200.51 291.14,207.44 289.41,214.23 287.18,220.86 284.42,227.28 281.17,233.43 277.41,239.27 273.14,244.74 268.53,249.86 263.70,254.65 258.63,259.09 253.32,263.13 247.84,266.79 242.28,270.14 236.62,273.12 230.85,275.71 224.99,277.87 219.12,279.70 213.40,281.39 207.76,282.87 202.18,284.11 196.60,285.02 191.06,285.63 185.67,286.19 180.39,286.69 175.21,287.13 170.08,287.46 165.00,287.63 159.97,287.75 154.98,287.89 150.00,288.00 145.01,288.02 140.01,287.97 134.96,287.88 129.86,287.75 124.70,287.52 119.52,286.99 114.34,286.17 109.03,285.41 103.54,284.72 97.98,283.82 92.45,282.51 86.89,280.96 81.14,279.34 75.34,277.47 69.64,275.16 64.15,272.35 58.81,269.15 53.81,265.44 49.05,261.37 44.07,257.28 39.01,253.02 34.29,248.35 30.25,243.14 26.70,237.57 23.21,231.87 20.05,225.92 17.47,219.70 15.53,213.25 14.10,206.66 13.27,199.97 12.88,193.24 12.59,186.50 12.60,179.75 13.38,173.04 15.04,166.48 16.93,160.03 18.82,153.64 21.17,147.42 24.39,141.56 28.31,136.10 32.35,130.86 36.73,125.95 41.37,121.39 45.95,116.98 50.63,112.80 55.60,109.03 61.09,105.91 66.93,103.43 72.68,101.20 78.30,99.14 83.77,97.20 89.14,95.42 94.47,93.86 99.80,92.59 105.10,91.57 110.30,90.65 115.43,89.89 120.55,89.43 125.63,89.23 130.58,88.85 135.41,88.16 140.25,87.54 145.12,87.24 150.00,87.19 154.88,87.11 159.77,87.27 164.66,87.65 169.61,87.89 174.67,88.02 179.77,88.36 184.80,89.23 189.77,90.48 194.85,91.68 200.01,92.94 205.33,94.19 211.02,95.18 216.98,96.18 222.99,97.56 228.72,99.64 234.06,102.44 239.31,105.56 244.27,109.14 249.08,113.02 254.19,116.88 259.45,120.90 264.34,125.38 268.56,130.43 272.40,135.80 276.16,141.36 279.26,147.29 281.49,153.56 283.52,159.94 285.58,166.39 287.13,172.99 287.61,179.74" fill="#2d5a1b" opacity="0.18" />
</svg>