<svg xmlns="http://www.w3.org/2000/svg" viewBox="0 0 300 350" width="300" height="350">
  <defs />
  <rect width="100%" height="100%" fill="none" />
  <rect x="142.50" y="308.00" width="15.00" height="42.00" fill="#1a1a1a" rx="2.25" />
  <g stroke-linecap="round" stroke-linejoin="round">
    <line x1="150.00" y1="308.00" x2="150.00" y2="260.03" stroke="#1a1a1a" stroke-width="20.00" />
    <line x1="150.00" y1="260.00" x2="181.39" y2="254.42" stroke="#2c2c2c" stroke-width="16.20" />
    <line x1="179.07" y1="253.63" x2="187.83" y2="270.30" stroke="#2c2c2c" stroke-width="12.40" />
    <line x1="187.53" y1="270.03" x2="179.52" y2="278.04" stroke="#2c2c2c" stroke-width="8.60" />
    <line x1="179.40" y1="278.08" x2="173.40" y2="274.47" stroke="#2c2c2c" stroke-width="4.80" />
    <line x1="173.21" y1="274.61" x2="174.51" y2="270.40" stroke="#2c2c2c" stroke-width="1.00" />
    <line x1="173.21" y1="274.61" x2="170.30" y2="277.90" stroke="#2c2c2c" stroke-width="1.00" />
    <line x1="179.40" y1="278.08" x2="182.99" y2="284.16" stroke="#2c2c2c" stroke-width="4.80" />
    <line x1="182.80" y1="284.30" x2="179.48" y2="287.17" stroke="#2c2c2c" stroke-width="1.00" />
    <line x1="182.80" y1="284.30" x2="187.02" y2="283.04" stroke="#2c2c2c" stroke-width="1.00" />
    <line x1="187.53" y1="270.03" x2="198.92" y2="268.03" stroke="#2c2c2c" stroke-width="8.60" />
    <line x1="198.80" y1="268.07" x2="202.08" y2="274.32" stroke="#2c2c2c" stroke-width="4.80" />
    <line x1="201.89" y1="274.46" x2="198.42" y2="277.16" stroke="#2c2c2c" stroke-width="1.00" />
    <line x1="201.89" y1="274.46" x2="206.16" y2="273.42" stroke="#2c2c2c" stroke-width="1.00" />
    <line x1="198.80" y1="268.07" x2="199.74" y2="260.89" stroke="#2c2c2c" stroke-width="4.80" />
    <line x1="199.56" y1="261.02" x2="203.93" y2="260.56" stroke="#2c2c2c" stroke-width="1.00" />
    <line x1="199.56" y1="261.02" x2="195.38" y2="259.64" stroke="#2c2c2c" stroke-width="1.00" />
    <line x1="179.07" y1="253.63" x2="180.19" y2="235.47" stroke="#2c2c2c" stroke-width="12.40" />
    <line x1="179.89" y1="235.20" x2="191.07" y2="232.22" stroke="#2c2c2c" stroke-width="8.60" />
    <line x1="190.95" y1="232.26" x2="194.78" y2="238.21" stroke="#2c2c2c" stroke-width="4.80" />
    <line x1="194.59" y1="238.35" x2="191.37" y2="241.35" stroke="#2c2c2c" stroke-width="1.00" />
    <line x1="194.59" y1="238.35" x2="198.75" y2="236.94" stroke="#2c2c2c" stroke-width="1.00" />
    <line x1="190.95" y1="232.26" x2="191.27" y2="225.03" stroke="#2c2c2c" stroke-width="4.80" />
    <line x1="191.09" y1="225.17" x2="195.40" y2="224.33" stroke="#2c2c2c" stroke-width="1.00" />
    <line x1="191.09" y1="225.17" x2="186.81" y2="224.16" stroke="#2c2c2c" stroke-width="1.00" />
    <line x1="179.89" y1="235.20" x2="169.26" y2="231.25" stroke="#2c2c2c" stroke-width="8.60" />
    <line x1="169.14" y1="231.29" x2="169.83" y2="224.08" stroke="#2c2c2c" stroke-width="4.80" />
    <line x1="169.64" y1="224.21" x2="173.99" y2="223.59" stroke="#2c2c2c" stroke-width="1.00" />
    <line x1="169.64" y1="224.21" x2="165.41" y2="222.99" stroke="#2c2c2c" stroke-width="1.00" />
    <line x1="169.14" y1="231.29" x2="165.16" y2="236.89" stroke="#2c2c2c" stroke-width="4.80" />
    <line x1="164.98" y1="237.03" x2="160.95" y2="235.25" stroke="#2c2c2c" stroke-width="1.00" />
    <line x1="164.98" y1="237.03" x2="167.91" y2="240.30" stroke="#2c2c2c" stroke-width="1.00" />
    <line x1="150.00" y1="260.00" x2="123.25" y2="254.42" stroke="#2c2c2c" stroke-width="16.20" />
    <line x1="120.93" y1="253.63" x2="120.41" y2="235.47" stroke="#2c2c2c" stroke-width="12.40" />
    <line x1="120.11" y1="235.20" x2="130.98" y2="231.25" stroke="#2c2c2c" stroke-width="8.60" />
    <line x1="130.86" y1="231.29" x2="135.21" y2="236.89" stroke="#2c2c2c" stroke-width="4.80" />
    <line x1="135.02" y1="237.03" x2="132.09" y2="240.30" stroke="#2c2c2c" stroke-width="1.00" />
    <line x1="135.02" y1="237.03" x2="139.05" y2="235.25" stroke="#2c2c2c" stroke-width="1.00" />
    <line x1="130.86" y1="231.29" x2="130.55" y2="224.08" stroke="#2c2c2c" stroke-width="4.80" />
    <line x1="130.36" y1="224.21" x2="134.59" y2="222.99" stroke="#2c2c2c" stroke-width="1.00" />
    <line x1="130.36" y1="224.21" x2="126.01" y2="223.59" stroke="#2c2c2c" stroke-width="1.00" />
    <line x1="120.11" y1="235.20" x2="109.17" y2="232.22" stroke="#2c2c2c" stroke-width="8.60" />
    <line x1="109.05" y1="232.26" x2="109.10" y2="225.03" stroke="#2c2c2c" stroke-width="4.80" />
    <line x1="108.91" y1="225.17" x2="113.19" y2="224.16" stroke="#2c2c2c" stroke-width="1.00" />
    <line x1="108.91" y1="225.17" x2="104.60" y2="224.33" stroke="#2c2c2c" stroke-width="1.00" />
    <line x1="109.05" y1="232.26" x2="105.60" y2="238.21" stroke="#2c2c2c" stroke-width="4.80" />
    <line x1="105.41" y1="238.35" x2="101.25" y2="236.94" stroke="#2c2c2c" stroke-width="1.00" />
    <line x1="105.41" y1="238.35" x2="108.63" y2="241.35" stroke="#2c2c2c" stroke-width="1.00" />
    <line x1="120.93" y1="253.63" x2="112.77" y2="270.30" stroke="#2c2c2c" stroke-width="12.40" />
    <line x1="112.47" y1="270.03" x2="101.32" y2="268.03" stroke="#2c2c2c" stroke-width="8.60" />
    <line x1="101.20" y1="268.07" x2="100.63" y2="260.89" stroke="#2c2c2c" stroke-width="4.80" />
    <line x1="100.44" y1="261.02" x2="104.62" y2="259.64" stroke="#2c2c2c" stroke-width="1.00" />
    <line x1="100.44" y1="261.02" x2="96.07" y2="260.56" stroke="#2c2c2c" stroke-width="1.00" />
    <line x1="101.20" y1="268.07" x2="98.30" y2="274.32" stroke="#2c2c2c" stroke-width="4.80" />
    <line x1="98.11" y1="274.46" x2="93.84" y2="273.42" stroke="#2c2c2c" stroke-width="1.00" />
    <line x1="98.11" y1="274.46" x2="101.58" y2="277.16" stroke="#2c2c2c" stroke-width="1.00" />
    <line x1="112.47" y1="270.03" x2="120.72" y2="278.04" stroke="#2c2c2c" stroke-width="8.60" />
    <line x1="120.60" y1="278.08" x2="117.38" y2="284.16" stroke="#2c2c2c" stroke-width="4.80" />
    <line x1="117.20" y1="284.30" x2="112.98" y2="283.04" stroke="#2c2c2c" stroke-width="1.00" />
    <line x1="117.20" y1="284.30" x2="120.52" y2="287.17" stroke="#2c2c2c" stroke-width="1.00" />
    <line x1="120.60" y1="278.08" x2="126.98" y2="274.47" stroke="#2c2c2c" stroke-width="4.80" />
    <line x1="126.79" y1="274.61" x2="129.70" y2="277.90" stroke="#2c2c2c" stroke-width="1.00" />
    <line x1="126.79" y1="274.61" x2="125.49" y2="270.40" stroke="#2c2c2c" stroke-width="1.00" />
    <line x1="150.00" y1="260.00" x2="150.00" y2="212.03" stroke="#1a1a1a" stroke-width="20.00" />
    <line x1="150.00" y1="212.00" x2="181.39" y2="206.42" stroke="#2c2c2c" stroke-width="16.20" />
    <line x1="179.07" y1="205.63" x2="187.83" y2="222.30" stroke="#2c2c2c" stroke-width="12.40" />
    <line x1="187.53" y1="222.03" x2="179.52" y2="230.04" stroke="#2c2c2c" stroke-width="8.60" />
    <line x1="179.40" y1="230.08" x2="173.40" y2="226.47" stroke="#2c2c2c" stroke-width="4.80" />
    <line x1="179.40" y1="230.08" x2="182.99" y2="236.16" stroke="#2c2c2c" stroke-width="4.80" />
    <line x1="187.53" y1="222.03" x2="198.92" y2="220.03" stroke="#2c2c2c" stroke-width="8.60" />
    <line x1="198.80" y1="220.07" x2="202.08" y2="226.32" stroke="#2c2c2c" stroke-width="4.80" />
    <line x1="198.80" y1="220.07" x2="199.74" y2="212.89" stroke="#2c2c2c" stroke-width="4.80" />
    <line x1="179.07" y1="205.63" x2="180.19" y2="187.47" stroke="#2c2c2c" stroke-width="12.40" />
    <line x1="179.89" y1="187.20" x2="191.07" y2="184.22" stroke="#2c2c2c" stroke-width="8.60" />
    <line x1="190.95" y1="184.26" x2="194.78" y2="190.21" stroke="#2c2c2c" stroke-width="4.80" />
    <line x1="190.95" y1="184.26" x2="191.27" y2="177.03" stroke="#2c2c2c" stroke-width="4.80" />
    <line x1="179.89" y1="187.20" x2="169.26" y2="183.25" stroke="#2c2c2c" stroke-width="8.60" />
    <line x1="169.14" y1="183.29" x2="169.83" y2="176.08" stroke="#2c2c2c" stroke-width="4.80" />
    <line x1="169.14" y1="183.29" x2="165.16" y2="188.89" stroke="#2c2c2c" stroke-width="4.80" />
    <line x1="150.00" y1="212.00" x2="123.25" y2="206.42" stroke="#2c2c2c" stroke-width="16.20" />
    <line x1="120.93" y1="205.63" x2="120.41" y2="187.47" stroke="#2c2c2c" stroke-width="12.40" />
    <line x1="120.11" y1="187.20" x2="130.98" y2="183.25" stroke="#2c2c2c" stroke-width="8.60" />
    <line x1="130.86" y1="183.29" x2="135.21" y2="188.89" stroke="#2c2c2c" stroke-width="4.80" />
    <line x1="130.86" y1="183.29" x2="130.55" y2="176.08" stroke="#2c2c2c" stroke-width="4.80" />
    <line x1="120.11" y1="187.20" x2="109.17" y2="184.22" stroke="#2c2c2c" stroke-width="8.60" />
    <line x1="109.05" y1="184.26" x2="109.10" y2="177.03" stroke="#2c2c2c" stroke-width="4.80" />
    <line x1="109.05" y1="184.26" x2="105.60" y2="190.21" stroke="#2c2c2c" stroke-width="4.80" />
    <line x1="120.93" y1="205.63" x2="112.77" y2="222.30" stroke="#2c2c2c" stroke-width="12.40" />
    <line x1="112.47" y1="222.03" x2="101.32" y2="220.03" stroke="#2c2c2c" stroke-width="8.60" />
    <line x1="101.20" y1="220.07" x2="100.63" y2="212.89" stroke="#2c2c2c" stroke-width="4.80" />
    <line x1="101.20" y1="220.07" x2="98.30" y2="226.32" stroke="#2c2c2c" stroke-width="4.80" />
    <line x1="112.47" y1="222.03" x2="120.72" y2="230.04" stroke="#2c2c2c" stroke-width="8.60" />
    <line x1="120.60" y1="230.08" x2="117.38" y2="236.16" stroke="#2c2c2c" stroke-width="4.80" />
    <line x1="120.60" y1="230.08" x2="126.98" y2="226.47" stroke="#2c2c2c" stroke-width="4.80" />
    <line x1="150.00" y1="212.00" x2="150.00" y2="164.03" stroke="#1a1a1a" stroke-width="20.00" />
    <line x1="150.00" y1="164.00" x2="181.39" y2="158.42" stroke="#2c2c2c" stroke-width="16.20" />
    <line x1="179.07" y1="157.63" x2="187.83" y2="174.30" stroke="#2c2c2c" stroke-width="12.40" />
    <line x1="187.53" y1="174.03" x2="179.52" y2="182.04" stroke="#2c2c2c" stroke-width="8.60" />
    <line x1="187.53" y1="174.03" x2="198.92" y2="172.03" stroke="#2c2c2c" stroke-width="8.60" />
    <line x1="179.07" y1="157.63" x2="180.19" y2="139.47" stroke="#2c2c2c" stroke-width="12.40" />
    <line x1="179.89" y1="139.20" x2="191.07" y2="136.22" stroke="#2c2c2c" stroke-width="8.60" />
    <line x1="179.89" y1="139.20" x2="169.26" y2="135.25" stroke="#2c2c2c" stroke-width="8.60" />
    <line x1="150.00" y1="164.00" x2="123.25" y2="158.42" stroke="#2c2c2c" stroke-width="16.20" />
    <line x1="120.93" y1="157.63" x2="120.41" y2="139.47" stroke="#2c2c2c" stroke-width="12.40" />
    <line x1="120.11" y1="139.20" x2="130.98" y2="135.25" stroke="#2c2c2c" stroke-width="8.60" />
    <line x1="120.11" y1="139.20" x2="109.17" y2="136.22" stroke="#2c2c2c" stroke-width="8.60" />
    <line x1="120.93" y1="157.63" x2="112.77" y2="174.30" stroke="#2c2c2c" stroke-width="12.40" />
    <line x1="112.47" y1="174.03" x2="101.32" y2="172.03" stroke="#2c2c2c" stroke-width="8.60" />
    <line x1="112.47" y1="174.03" x2="120.72" y2="182.04" stroke="#2c2c2c" stroke-width="8.60" />
    <line x1="150.00" y1="164.00" x2="150.00" y2="116.03" stroke="#1a1a1a" stroke-width="20.00" />
    <line x1="150.00" y1="116.00" x2="181.39" y2="110.42" stroke="#2c2c2c" stroke-width="16.20" />
    <line x1="179.07" y1="109.63" x2="187.83" y2="126.30" stroke="#2c2c2c" stroke-width="12.40" />
    <line x1="179.07" y1="109.63" x2="180.19" y2="91.47" stroke="#2c2c2c" stroke-width="12.40" />
    <line x1="150.00" y1="116.00" x2="123.25" y2="110.42" stroke="#2c2c2c" stroke-width="16.20" />
    <line x1="120.93" y1="109.63" x2="120.41" y2="91.47" stroke="#2c2c2c" stroke-width="12.40" />
    <line x1="120.93" y1="109.63" x2="112.77" y2="126.30" stroke="#2c2c2c" stroke-width="12.40" />
    <line x1="150.00" y1="116.00" x2="150.00" y2="68.03" stroke="#1a1a1a" stroke-width="20.00" />
    <line x1="150.00" y1="68.00" x2="181.39" y2="62.42" stroke="#2c2c2c" stroke-width="16.20" />
    <line x1="150.00" y1="68.00" x2="123.25" y2="62.42" stroke="#2c2c2c" stroke-width="16.20" />
    <line x1="150.00" y1="68.00" x2="150.00" y2="20.03" stroke="#1a1a1a" stroke-width="20.00" />
  </g>
</svg>