<svg xmlns="http://www.w3.org/2000/svg" viewBox="0 0 300 350" width="300" height="350">
  <defs>
    <clipPath id="crownClip">
      <polygon points="241.20,186.50 242.38,191.04 242.83,195.64 242.48,200.22 241.70,204.74 240.47,209.16 238.78,213.43 236.70,217.52 234.35,221.44 231.70,225.14 228.81,228.62 225.66,231.85 222.26,234.78 218.69,237.45 215.05,239.89 211.34,242.10 207.55,244.05 203.72,245.77 199.89,247.29 196.07,248.62 192.24,249.71 188.41,250.58 184.60,251.24 180.91,251.85 177.29,252.39 173.73,252.83 170.20,253.10 166.71,253.21 163.29,253.30 159.92,253.40 156.60,253.50 153.29,253.56 150.00,253.53 146.71,253.46 143.41,253.41 140.08,253.35 136.73,253.22 133.34,253.03 129.90,252.77 126.40,252.46 122.85,252.05 119.28,251.45 115.75,250.58 112.15,249.65 108.41,248.74 104.62,247.68 100.91,246.31 97.24,244.71 93.49,243.01 89.73,241.13 86.09,238.95 82.68,236.43 79.46,233.64 76.52,230.54 73.88,227.19 71.18,223.78 68.43,220.29 65.92,216.58 63.94,212.61 62.43,208.44 61.02,204.20 59.83,199.88 59.04,195.46 58.73,190.98 58.80,186.50 59.24,182.04 60.03,177.64 60.90,173.28 61.92,168.98 63.34,164.79 65.34,160.82 67.52,156.99 69.67,153.22 71.99,149.60 74.77,146.29 77.97,143.33 81.23,140.55 84.59,137.99 88.08,135.68 91.50,133.48 94.90,131.40 98.38,129.54 102.07,128.10 105.94,127.09 109.74,126.24 113.41,125.46 116.97,124.71 120.44,123.99 123.85,123.37 127.23,122.88 130.59,122.52 133.89,122.20 137.15,121.91 140.40,121.77 143.63,121.80 146.82,121.74 150.00,121.44 153.21,121.12 156.45,120.99 159.71,121.05 163.00,121.12 166.33,121.33 169.65,121.74 173.03,122.13 176.53,122.46 180.07,122.93 183.54,123.76 186.90,124.93 190.31,126.17 193.79,127.45 197.33,128.83 201.12,130.10 205.10,131.40 209.09,132.94 212.83,134.93 216.18,137.42 219.34,140.17 222.27,143.18 224.96,146.43 227.77,149.72 230.69,153.08 233.35,156.68 235.46,160.58 237.19,164.66 238.81,168.83 240.04,173.14 240.59,177.58 240.88,182.04" />
    </clipPath>
  </defs>
  <rect width="100%" height="100%" fill="none" />
  <rect x="146.83" y="297.50" width="6.34" height="52.50" fill="#2d1a0e" rx="0.95" />
  <g stroke-linecap="round" stroke-linejoin="round" clip-path="url(#crownClip)">
    <line x1="150.00" y1="297.50" x2="150.00" y2="288.26" stroke="#2d1a0e" stroke-width="7.93" />
    <line x1="150.00" y1="288.25" x2="150.00" y2="279.01" stroke="#2d1a0e" stroke-width="7.93" />
    <line x1="150.00" y1="279.00" x2="150.00" y2="269.76" stroke="#2d1a0e" stroke-width="7.93" />
    <line x1="150.00" y1="269.75" x2="150.00" y2="260.51" stroke="#2d1a0e" stroke-width="7.93" />
    <line x1="150.00" y1="260.50" x2="150.00" y2="251.26" stroke="#2d1a0e" stroke-width="7.93" />
    <line x1="150.00" y1="251.25" x2="150.00" y2="242.01" stroke="#2d1a0e" stroke-width="7.93" />
    <line x1="150.00" y1="242.00" x2="150.00" y2="232.76" stroke="#2d1a0e" stroke-width="7.93" />
    <line x1="150.00" y1="232.75" x2="150.00" y2="223.51" stroke="#2d1a0e" stroke-width="7.93" />
    <line x1="150.00" y1="223.50" x2="153.42" y2="218.00" stroke="#2d5a1b" stroke-width="5.46" />
    <line x1="153.24" y1="217.89" x2="156.66" y2="212.39" stroke="#2d5a1b" stroke-width="5.46" />
    <line x1="156.47" y1="212.28" x2="159.90" y2="206.78" stroke="#2d5a1b" stroke-width="5.46" />
    <line x1="159.71" y1="206.68" x2="163.13" y2="201.18" stroke="#2d5a1b" stroke-width="5.46" />
    <line x1="162.95" y1="201.07" x2="166.90" y2="198.78" stroke="#2d5a1b" stroke-width="3.00" />
    <line x1="166.88" y1="198.80" x2="170.82" y2="196.51" stroke="#2d5a1b" stroke-width="3.00" />
    <line x1="170.80" y1="196.54" x2="173.97" y2="196.54" stroke="#2d5a1b" stroke-width="0.53" />
    <line x1="173.97" y1="196.54" x2="177.15" y2="196.54" stroke="#2d5a1b" stroke-width="0.53" />
    <line x1="170.80" y1="196.54" x2="172.39" y2="193.79" stroke="#2d5a1b" stroke-width="0.53" />
    <line x1="172.39" y1="193.79" x2="173.97" y2="191.04" stroke="#2d5a1b" stroke-width="0.53" />
    <line x1="170.80" y1="196.54" x2="174.75" y2="194.24" stroke="#2d5a1b" stroke-width="3.00" />
    <line x1="174.73" y1="194.27" x2="178.67" y2="191.98" stroke="#2d5a1b" stroke-width="3.00" />
    <line x1="178.65" y1="192.00" x2="182.60" y2="189.71" stroke="#2d5a1b" stroke-width="3.00" />
    <line x1="182.58" y1="189.74" x2="186.52" y2="187.44" stroke="#2d5a1b" stroke-width="3.00" />
    <line x1="162.95" y1="201.07" x2="162.97" y2="196.51" stroke="#2d5a1b" stroke-width="3.00" />
    <line x1="162.95" y1="196.54" x2="162.97" y2="191.98" stroke="#2d5a1b" stroke-width="3.00" />
    <line x1="162.95" y1="192.00" x2="164.54" y2="189.26" stroke="#2d5a1b" stroke-width="0.53" />
    <line x1="164.54" y1="189.26" x2="166.12" y2="186.51" stroke="#2d5a1b" stroke-width="0.53" />
    <line x1="162.95" y1="192.00" x2="161.36" y2="189.26" stroke="#2d5a1b" stroke-width="0.53" />
    <line x1="161.36" y1="189.26" x2="159.78" y2="186.51" stroke="#2d5a1b" stroke-width="0.53" />
    <line x1="162.95" y1="192.00" x2="162.97" y2="187.44" stroke="#2d5a1b" stroke-width="3.00" />
    <line x1="162.95" y1="187.47" x2="162.97" y2="182.91" stroke="#2d5a1b" stroke-width="3.00" />
    <line x1="162.95" y1="182.94" x2="162.97" y2="178.38" stroke="#2d5a1b" stroke-width="3.00" />
    <line x1="162.95" y1="178.41" x2="162.97" y2="173.85" stroke="#2d5a1b" stroke-width="3.00" />
    <line x1="162.95" y1="201.07" x2="166.37" y2="195.57" stroke="#2d5a1b" stroke-width="5.46" />
    <line x1="166.19" y1="195.46" x2="169.61" y2="189.96" stroke="#2d5a1b" stroke-width="5.46" />
    <line x1="169.43" y1="189.85" x2="172.85" y2="184.35" stroke="#2d5a1b" stroke-width="5.46" />
    <line x1="172.66" y1="184.25" x2="176.08" y2="178.75" stroke="#2d5a1b" stroke-width="5.46" />
    <line x1="175.90" y1="178.64" x2="179.32" y2="173.14" stroke="#2d5a1b" stroke-width="5.46" />
    <line x1="179.14" y1="173.03" x2="182.56" y2="167.53" stroke="#2d5a1b" stroke-width="5.46" />
    <line x1="182.38" y1="167.42" x2="186.32" y2="165.13" stroke="#2d5a1b" stroke-width="3.00" />
    <line x1="186.30" y1="165.16" x2="190.25" y2="162.86" stroke="#2d5a1b" stroke-width="3.00" />
    <line x1="182.38" y1="167.42" x2="182.40" y2="162.86" stroke="#2d5a1b" stroke-width="3.00" />
    <line x1="182.38" y1="162.89" x2="182.40" y2="158.33" stroke="#2d5a1b" stroke-width="3.00" />
    <line x1="182.38" y1="167.42" x2="185.80" y2="161.92" stroke="#2d5a1b" stroke-width="5.46" />
    <line x1="185.61" y1="161.82" x2="189.03" y2="156.32" stroke="#2d5a1b" stroke-width="5.46" />
    <line x1="188.85" y1="156.21" x2="192.27" y2="150.71" stroke="#2d5a1b" stroke-width="5.46" />
    <line x1="192.09" y1="150.60" x2="195.51" y2="145.10" stroke="#2d5a1b" stroke-width="5.46" />
    <line x1="150.00" y1="223.50" x2="146.95" y2="218.00" stroke="#2d5a1b" stroke-width="5.46" />
    <line x1="146.76" y1="217.89" x2="143.71" y2="212.39" stroke="#2d5a1b" stroke-width="5.46" />
    <line x1="143.53" y1="212.28" x2="140.47" y2="206.78" stroke="#2d5a1b" stroke-width="5.46" />
    <line x1="140.29" y1="206.68" x2="137.23" y2="201.18" stroke="#2d5a1b" stroke-width="5.46" />
    <line x1="137.05" y1="201.07" x2="137.07" y2="196.51" stroke="#2d5a1b" stroke-width="3.00" />
    <line x1="137.05" y1="196.54" x2="137.07" y2="191.98" stroke="#2d5a1b" stroke-width="3.00" />
    <line x1="137.05" y1="192.00" x2="138.64" y2="189.26" stroke="#2d5a1b" stroke-width="0.53" />
    <line x1="138.64" y1="189.26" x2="140.22" y2="186.51" stroke="#2d5a1b" stroke-width="0.53" />
    <line x1="137.05" y1="192.00" x2="135.46" y2="189.26" stroke="#2d5a1b" stroke-width="0.53" />
    <line x1="135.46" y1="189.26" x2="133.88" y2="186.51" stroke="#2d5a1b" stroke-width="0.53" />
    <line x1="137.05" y1="192.00" x2="137.07" y2="187.44" stroke="#2d5a1b" stroke-width="3.00" />
    <line x1="137.05" y1="187.47" x2="137.07" y2="182.91" stroke="#2d5a1b" stroke-width="3.00" />
    <line x1="137.05" y1="182.94" x2="137.07" y2="178.38" stroke="#2d5a1b" stroke-width="3.00" />
    <line x1="137.05" y1="178.41" x2="137.07" y2="173.85" stroke="#2d5a1b" stroke-width="3.00" />
    <line x1="137.05" y1="201.07" x2="133.15" y2="198.78" stroke="#2d5a1b" stroke-width="3.00" />
    <line x1="133.12" y1="198.80" x2="129.22" y2="196.51" stroke="#2d5a1b" stroke-width="3.00" />
    <line x1="129.20" y1="196.54" x2="127.61" y2="193.79" stroke="#2d5a1b" stroke-width="0.53" />
    <line x1="127.61" y1="193.79" x2="126.03" y2="191.04" stroke="#2d5a1b" stroke-width="0.53" />
    <line x1="129.20" y1="196.54" x2="126.03" y2="196.54" stroke="#2d5a1b" stroke-width="0.53" />
    <line x1="126.03" y1="196.54" x2="122.85" y2="196.54" stroke="#2d5a1b" stroke-width="0.53" />
    <line x1="129.20" y1="196.54" x2="125.30" y2="194.24" stroke="#2d5a1b" stroke-width="3.00" />
    <line x1="125.27" y1="194.27" x2="121.37" y2="191.98" stroke="#2d5a1b" stroke-width="3.00" />
    <line x1="121.35" y1="192.00" x2="117.45" y2="189.71" stroke="#2d5a1b" stroke-width="3.00" />
    <line x1="117.42" y1="189.74" x2="113.52" y2="187.44" stroke="#2d5a1b" stroke-width="3.00" />
    <line x1="137.05" y1="201.07" x2="134.00" y2="195.57" stroke="#2d5a1b" stroke-width="5.46" />
    <line x1="133.81" y1="195.46" x2="130.76" y2="189.96" stroke="#2d5a1b" stroke-width="5.46" />
    <line x1="130.58" y1="189.85" x2="127.52" y2="184.35" stroke="#2d5a1b" stroke-width="5.46" />
    <line x1="127.34" y1="184.25" x2="124.28" y2="178.75" stroke="#2d5a1b" stroke-width="5.46" />
    <line x1="124.10" y1="178.64" x2="121.05" y2="173.14" stroke="#2d5a1b" stroke-width="5.46" />
    <line x1="120.86" y1="173.03" x2="117.81" y2="167.53" stroke="#2d5a1b" stroke-width="5.46" />
    <line x1="117.63" y1="167.42" x2="117.65" y2="162.86" stroke="#2d5a1b" stroke-width="3.00" />
    <line x1="117.63" y1="162.89" x2="117.65" y2="158.33" stroke="#2d5a1b" stroke-width="3.00" />
    <line x1="117.63" y1="167.42" x2="113.72" y2="165.13" stroke="#2d5a1b" stroke-width="3.00" />
    <line x1="113.70" y1="165.16" x2="109.80" y2="162.86" stroke="#2d5a1b" stroke-width="3.00" />
    <line x1="117.63" y1="167.42" x2="114.57" y2="161.92" stroke="#2d5a1b" stroke-width="5.46" />
    <line x1="114.39" y1="161.82" x2="111.33" y2="156.32" stroke="#2d5a1b" stroke-width="5.46" />
    <line x1="111.15" y1="156.21" x2="108.10" y2="150.71" stroke="#2d5a1b" stroke-width="5.46" />
    <line x1="107.91" y1="150.60" x2="104.86" y2="145.10" stroke="#2d5a1b" stroke-width="5.46" />
    <line x1="150.00" y1="223.50" x2="150.00" y2="214.26" stroke="#2d1a0e" stroke-width="7.93" />
    <line x1="150.00" y1="214.25" x2="150.00" y2="205.01" stroke="#2d1a0e" stroke-width="7.93" />
    <line x1="150.00" y1="205.00" x2="150.00" y2="195.76" stroke="#2d1a0e" stroke-width="7.93" />
    <line x1="150.00" y1="195.75" x2="150.00" y2="186.51" stroke="#2d1a0e" stroke-width="7.93" />
    <line x1="150.00" y1="186.50" x2="150.00" y2="177.26" stroke="#2d1a0e" stroke-width="7.93" />
    <line x1="150.00" y1="177.25" x2="150.00" y2="168.01" stroke="#2d1a0e" stroke-width="7.93" />
    <line x1="150.00" y1="168.00" x2="150.00" y2="158.76" stroke="#2d1a0e" stroke-width="7.93" />
    <line x1="150.00" y1="158.75" x2="150.00" y2="149.51" stroke="#2d1a0e" stroke-width="7.93" />
    <line x1="150.00" y1="149.50" x2="150.00" y2="140.26" stroke="#2d1a0e" stroke-width="7.93" />
    <line x1="150.00" y1="140.25" x2="150.00" y2="131.01" stroke="#2d1a0e" stroke-width="7.93" />
    <line x1="150.00" y1="131.00" x2="150.00" y2="121.76" stroke="#2d1a0e" stroke-width="7.93" />
    <line x1="150.00" y1="121.75" x2="150.00" y2="112.51" stroke="#2d1a0e" stroke-width="7.93" />
    <line x1="150.00" y1="112.50" x2="153.42" y2="107.00" stroke="#2d5a1b" stroke-width="5.46" />
    <line x1="153.24" y1="106.89" x2="156.66" y2="101.39" stroke="#2d5a1b" stroke-width="5.46" />
    <line x1="156.48" y1="101.28" x2="160.42" y2="98.99" stroke="#2d5a1b" stroke-width="3.00" />
    <line x1="160.40" y1="99.02" x2="164.35" y2="96.72" stroke="#2d5a1b" stroke-width="3.00" />
    <line x1="156.48" y1="101.28" x2="156.50" y2="96.72" stroke="#2d5a1b" stroke-width="3.00" />
    <line x1="156.48" y1="96.75" x2="156.50" y2="92.19" stroke="#2d5a1b" stroke-width="3.00" />
    <line x1="156.48" y1="101.28" x2="159.90" y2="95.78" stroke="#2d5a1b" stroke-width="5.46" />
    <line x1="159.71" y1="95.68" x2="163.13" y2="90.18" stroke="#2d5a1b" stroke-width="5.46" />
    <line x1="162.95" y1="90.07" x2="166.37" y2="84.57" stroke="#2d5a1b" stroke-width="5.46" />
    <line x1="166.19" y1="84.46" x2="169.61" y2="78.96" stroke="#2d5a1b" stroke-width="5.46" />
    <line x1="150.00" y1="112.50" x2="146.95" y2="107.00" stroke="#2d5a1b" stroke-width="5.46" />
    <line x1="146.76" y1="106.89" x2="143.71" y2="101.39" stroke="#2d5a1b" stroke-width="5.46" />
    <line x1="143.53" y1="101.28" x2="143.55" y2="96.72" stroke="#2d5a1b" stroke-width="3.00" />
    <line x1="143.53" y1="96.75" x2="143.55" y2="92.19" stroke="#2d5a1b" stroke-width="3.00" />
    <line x1="143.53" y1="101.28" x2="139.62" y2="98.99" stroke="#2d5a1b" stroke-width="3.00" />
    <line x1="139.60" y1="99.02" x2="135.70" y2="96.72" stroke="#2d5a1b" stroke-width="3.00" />
    <line x1="143.53" y1="101.28" x2="140.47" y2="95.78" stroke="#2d5a1b" stroke-width="5.46" />
    <line x1="140.29" y1="95.68" x2="137.23" y2="90.18" stroke="#2d5a1b" stroke-width="5.46" />
    <line x1="137.05" y1="90.07" x2="134.00" y2="84.57" stroke="#2d5a1b" stroke-width="5.46" />
    <line x1="133.81" y1="84.46" x2="130.76" y2="78.96" stroke="#2d5a1b" stroke-width="5.46" />
    <line x1="150.00" y1="112.50" x2="150.00" y2="103.26" stroke="#2d1a0e" stroke-width="7.93" />
    <line x1="150.00" y1="103.25" x2="150.00" y2="94.01" stroke="#2d1a0e" stroke-width="7.93" />
    <line x1="150.00" y1="94.00" x2="150.00" y2="84.76" stroke="#2d1a0e" stroke-width="7.93" />
    <line x1="150.00" y1="84.75" x2="150.00" y2="75.51" stroke="#2d1a0e" stroke-width="7.93" />
    <line x1="150.00" y1="75.50" x2="150.00" y2="66.26" stroke="#2d1a0e" stroke-width="7.93" />
    <line x1="150.00" y1="66.25" x2="150.00" y2="57.01" stroke="#2d1a0e" stroke-width="7.93" />
    <line x1="150.00" y1="57.00" x2="153.42" y2="51.50" stroke="#2d5a1b" stroke-width="5.46" />
    <line x1="153.24" y1="51.39" x2="156.66" y2="45.89" stroke="#2d5a1b" stroke-width="5.46" />
    <line x1="150.00" y1="57.00" x2="146.95" y2="51.50" stroke="#2d5a1b" stroke-width="5.46" />
    <line x1="146.76" y1="51.39" x2="143.71" y2="45.89" stroke="#2d5a1b" stroke-width="5.46" />
    <line x1="150.00" y1="57.00" x2="150.00" y2="47.76" stroke="#2d1a0e" stroke-width="7.93" />
    <line x1="150.00" y1="47.75" x2="150.00" y2="38.51" stroke="#2d1a0e" stroke-width="7.93" />
    <line x1="150.00" y1="38.50" x2="150.00" y2="29.26" stroke="#2d1a0e" stroke-width="7.93" />
    <line x1="150.00" y1="29.25" x2="150.00" y2="20.01" stroke="#2d1a0e" stroke-width="7.93" />
  </g>
  <polygon points="243.98,186.50 244.23,191.13 243.99,195.76 243.25,200.33 242.11,204.82 240.64,209.20 238.81,213.44 236.67,217.51 234.18,221.37 231.36,224.98 228.32,228.36 225.12,231.53 221.77,234.46 218.26,237.13 214.64,239.55 210.97,241.76 207.23,243.73 203.42,245.44 199.55,246.87 195.67,248.08 191.89,249.19 188.16,250.17 184.47,250.99 180.79,251.59 177.13,252.00 173.57,252.36 170.08,252.70 166.65,252.99 163.27,253.20 159.91,253.32 156.59,253.40 153.29,253.49 150.00,253.56 146.70,253.58 143.40,253.55 140.06,253.48 136.69,253.40 133.28,253.24 129.86,252.89 126.44,252.36 122.93,251.85 119.31,251.40 115.63,250.80 111.98,249.94 108.30,248.91 104.51,247.84 100.67,246.61 96.91,245.08 93.28,243.22 89.75,241.11 86.45,238.66 83.30,235.97 80.01,233.26 76.67,230.45 73.55,227.36 70.88,223.92 68.53,220.24 66.23,216.47 64.14,212.55 62.43,208.43 61.16,204.17 60.21,199.82 59.66,195.40 59.40,190.95 59.21,186.50 59.22,182.04 59.73,177.61 60.83,173.27 62.08,169.01 63.33,164.79 64.88,160.68 67.01,156.80 69.60,153.20 72.27,149.74 75.16,146.50 78.22,143.48 81.25,140.56 84.34,137.81 87.63,135.31 91.25,133.26 95.11,131.61 98.92,130.14 102.63,128.78 106.24,127.50 109.79,126.32 113.31,125.29 116.83,124.45 120.34,123.78 123.77,123.17 127.16,122.67 130.54,122.36 133.90,122.23 137.17,121.98 140.36,121.52 143.56,121.11 146.78,120.92 150.00,120.88 153.23,120.83 156.46,120.94 159.69,121.19 162.96,121.35 166.30,121.43 169.67,121.66 173.00,122.23 176.28,123.06 179.63,123.85 183.04,124.69 186.56,125.51 190.32,126.16 194.26,126.83 198.23,127.73 202.01,129.11 205.54,130.96 209.01,133.02 212.28,135.38 215.46,137.95 218.84,140.50 222.32,143.16 225.55,146.12 228.33,149.45 230.87,153.00 233.36,156.67 235.40,160.59 236.88,164.74 238.22,168.95 239.58,173.21 240.60,177.58 240.92,182.03" fill="#2d5a1b" opacity="0.18" />
</svg>